<?xml version="1.0" standalone="no"?>
<!DOCTYPE svg PUBLIC "-//W3C//DTD SVG 1.1//EN" "http://www.w3.org/Graphics/SVG/1.1/DTD/svg11.dtd" >
<svg xmlns="http://www.w3.org/2000/svg">
<metadata>Generated by IcoMoon</metadata>
<defs>
<font id="icomoon" horiz-adv-x="1024">
<font-face units-per-em="1024" ascent="960" descent="-64" />
<missing-glyph horiz-adv-x="1024" />
<glyph unicode="&#x20;" horiz-adv-x="512" d="" />
<glyph unicode="&#xe900;" glyph-name="mona-min" d="M205.69 579.212l-41.547-257.713h-160.77v-78.277h148.366l-0.602-2.649c-0.361-1.566-1.686-9.152-2.77-16.86l-2.168-14.21h-142.826v-78.277h130.061l-0.723-4.576c-0.361-2.409-3.011-18.546-5.78-35.767l-5.058-31.311 72.256-0.361c39.62-0.12 72.376 0 72.738 0.361 0.241 0.241 2.89 15.294 5.78 33.358s5.54 34.081 5.901 35.646l0.602 2.649h95.137v78.277l-41.306 0.241-41.306 0.361 2.168 13.849c1.204 7.587 2.409 15.053 2.77 16.619l0.602 2.649h77.073v78.277l-32.274 0.241-32.274 0.361 16.98 105.614c9.393 58.166 17.221 105.975 17.582 106.337 0.361 0.241 35.044-106.337 77.073-237l76.471-237.481 145.716-0.602 76.23 236.879c41.908 130.422 76.591 237.361 77.073 237.843s15.896-92.729 34.322-207.134 35.767-221.344 38.416-237.722l4.817-29.866h145.596l-0.723 3.252c-0.361 1.927-28.059 173.535-61.538 381.512s-61.418 381.512-62.14 385.727l-1.325 7.466-145.957-0.602-88.514-274.934c-48.652-151.135-88.875-274.452-89.357-273.971-0.482 0.602-40.584 124.401-89.116 275.295l-88.273 274.212h-145.837z" />
<glyph unicode="&#xe901;" glyph-name="btc-min" horiz-adv-x="778" d="M617.313 484.858c52.995 26.974 86.153 74.479 78.407 153.62-10.431 108.154-103.896 144.421-221.884 154.749l-0.023 150.019h-91.418l-0.026-146.074c-24.053 0-48.572-0.472-72.98-0.961l-0.020 147.015-91.335 0.009-0.017-149.982c-19.794-0.404-39.233-0.788-58.214-0.788v0.444l-126.094 0.051 0.017-97.513s67.51 1.269 66.398 0.037c37.015-0.026 49.101-21.501 52.577-40.038l0.028-170.903v-240.063c-1.63-11.634-8.488-30.222-34.369-30.256 1.178-1.035-66.5 0.011-66.5 0.011l-18.133-109.042h118.946c22.164-0.026 43.941-0.37 65.306-0.54l0.080-151.717 91.312-0.026-0.026 150.127c25.122-0.512 49.371-0.734 73.057-0.703l-0.026-149.424h91.415l0.051 151.464c153.663 8.818 261.239 47.494 274.614 191.673 10.78 116.079-43.901 167.893-131.143 188.811zM311.575 688.865c51.558 0 213.709 16.404 213.732-91.204-0.023-103.165-162.122-91.113-213.732-91.113v182.318zM311.535 213.484l0.040 201.023c61.946 0.017 256.242 17.809 256.267-100.466 0.026-113.425-194.321-100.511-256.307-100.557z" />
<glyph unicode="&#xe902;" glyph-name="ltc-min" d="M170.699-45.616c3.040 9.136 23.653 79.099 101.739 345.429l5.477 18.683-20-5.941c-11.003-3.269-37.227-11.243-58.277-17.723s-39.019-11.029-39.931-10.117c-0.917 0.912 3.819 19.371 10.523 41.013l12.181 39.344 121.616 35.979 133.045 449.653c15.813 53.451 25.872 80.768 32 86.933 8.731 8.779 11.024 8.997 96.171 8.997 93.392 0 104.992-2.267 104.992-20.512 0-4.437-28.869-106.133-64.16-225.995-35.28-119.856-63.611-219.339-62.949-221.067 0.661-1.723 27.285 4.725 59.157 14.331 31.877 9.605 58.187 17.493 58.475 17.52 0.283 0.032-4.971-18.651-11.68-41.504l-12.197-41.557-59.205-17.125c-32.565-9.419-60.72-18.149-62.565-19.397-2.811-1.899-80.693-262.107-80.693-269.6 0-1.355 97.979-2.469 217.739-2.469h217.744l6.645-10.144c6.336-9.669 6.043-12.267-6.176-54.96-27.872-97.387-28.347-98.613-40.48-104.885-9.733-5.029-58.267-5.877-337.115-5.877h-325.744z" />
<glyph unicode="&#xe903;" glyph-name="doge-min" d="M128.405 166.091v227.611h-95.285v137.627h95.285v423.461l202.469-0.176c279.467-0.245 335.093-6.32 414.197-45.211 93.445-45.947 157.077-117.717 198.272-223.627 28.757-73.931 44.267-198.741 36.955-297.365-14.795-199.44-93.547-334.88-235.227-404.539-79.104-38.896-134.725-44.971-414.197-45.216l-202.469-0.176zM608.299 98.224c151.477 45.84 209.973 155.664 201.387 378.112-3.499 90.491-12.848 139.264-35.573 185.547-32.395 65.968-85.984 109.003-165.813 133.163-39.584 11.979-54.149 13.28-174.208 15.541l-131.008 2.469v-281.728h269.957v-137.627h-269.957v-313.493l131.008 2.475c120.059 2.261 134.624 3.557 174.213 15.541z" />
<glyph unicode="&#xe904;" glyph-name="sol-min" d="M10.304 56.587c-17.365 7.008-3.92 25.333 78.347 106.795l84.235 83.413h419.765c407.2 0 419.84-0.267 422.091-8.88 1.744-6.672-18.395-29.531-80.795-91.728-45.707-45.557-89.088-85.061-96.389-87.781-13.461-5.013-814.965-6.773-827.253-1.819zM91.264 438.704c-73.771 70.523-87.083 85.317-85.899 95.488l1.403 12.037 834.016 2.411 88.48-88.037c75.205-74.827 87.781-89.333 83.84-96.693-4.443-8.299-21.765-8.656-419.584-8.656h-414.96zM3.184 661.211c-1.744 6.667 18.395 29.531 80.795 91.723 45.712 45.563 89.088 85.067 96.389 87.787 14.315 5.328 811.984 7.339 825.691 2.080 19.040-7.307 7.024-24.069-76.779-107.056l-84.235-83.413h-419.771c-407.2 0-419.835 0.261-422.091 8.88z" />
<glyph unicode="&#xe905;" glyph-name="github" d="M512 960c-282.88 0-512-229.12-512-512 0-226.56 146.56-417.92 350.080-485.76 25.6-4.48 35.2 10.88 35.2 24.32 0 12.16-0.64 52.48-0.64 95.36-128.64-23.68-161.92 31.36-172.16 60.16-5.76 14.72-30.72 60.16-52.48 72.32-17.92 9.6-43.52 33.28-0.64 33.92 40.32 0.64 69.12-37.12 78.72-52.48 46.080-77.44 119.68-55.68 149.12-42.24 4.48 33.28 17.92 55.68 32.64 68.48-113.92 12.8-232.96 56.96-232.96 252.8 0 55.68 19.84 101.76 52.48 137.6-5.12 12.8-23.040 65.28 5.12 135.68 0 0 42.88 13.44 140.8-52.48 40.96 11.52 84.48 17.28 128 17.28s87.040-5.76 128-17.28c97.92 66.56 140.8 52.48 140.8 52.48 28.16-70.4 10.24-122.88 5.12-135.68 32.64-35.84 52.48-81.28 52.48-137.6 0-196.48-119.68-240-233.6-252.8 18.56-16 34.56-46.72 34.56-94.72 0-68.48-0.64-123.52-0.64-140.8 0-13.44 9.6-29.44 35.2-24.32 202.24 67.84 348.8 259.84 348.8 485.76 0 282.88-229.12 512-512 512z" />
<glyph unicode="&#xe906;" glyph-name="mastodon" d="M909.952 594.517c0 185.131-121.301 239.36-121.301 239.36-61.141 28.075-166.144 39.893-275.243 40.789h-2.688c-109.099-0.896-214.016-12.715-275.2-40.789 0 0-121.301-54.272-121.301-239.36 0-42.368-0.811-93.056 0.512-146.816 4.395-181.035 33.195-359.467 200.576-403.755 77.184-20.437 143.445-24.704 196.779-21.76 96.768 5.376 151.083 34.517 151.083 34.517l-3.2 70.229s-69.163-21.803-146.816-19.157c-76.971 2.645-158.165 8.277-170.624 102.784-1.088 7.697-1.709 16.588-1.709 25.623 0 0.307 0.001 0.614 0.002 0.92v-0.047s75.52-18.475 171.264-22.869c58.539-2.688 113.408 3.413 169.173 10.069 106.923 12.757 200.021 78.635 211.712 138.837 18.517 94.848 16.981 231.424 16.981 231.424zM766.891 356.011h-88.789v217.557c0 45.867-19.285 69.12-57.899 69.12-42.667 0-64.043-27.605-64.043-82.219v-119.083h-88.277v119.083c0 54.613-21.376 82.219-64.085 82.219-38.613 0-57.899-23.296-57.899-69.12v-217.557h-88.789v224.128c0 45.824 11.648 82.219 35.115 109.141 24.149 26.923 55.765 40.747 95.061 40.747 45.44 0 79.872-17.451 102.613-52.395l22.101-37.077 22.144 37.077c22.741 34.944 57.173 52.395 102.613 52.395 39.253 0 70.912-13.824 95.061-40.747 23.424-26.923 35.072-63.317 35.072-109.141v-224.128z" />
<glyph unicode="&#xe907;" glyph-name="misskey" d="M380.192 239.296c-44.355-0.162-82.438 26.854-100.381 58.283-9.607 13.726-28.582 18.62-28.847 0v-85.965c0-34.534-12.438-64.414-37.368-89.609-24.215-24.448-53.75-36.672-88.657-36.672-34.139 0-63.7 12.224-88.63 36.698-24.189 25.169-36.31 55.049-36.31 89.583v472.773c0 26.615 7.489 50.715 22.442 72.301 15.64 22.308 35.595 37.795 59.81 46.408 12.542 4.794 27.049 7.571 42.204 7.571 0.17 0 0.34 0 0.51-0.001h-0.026c38.453 0 70.502-15.113 96.12-45.338l127.878-150.004c2.858-2.14 11.221-18.644 31.229-18.644 20.060 0 29.508 16.503 32.34 18.67l126.793 149.978c26.359 30.225 58.752 45.338 97.203 45.338 14.238 0 28.48-2.514 42.718-7.57 24.188-8.613 43.772-24.073 58.752-46.408 15.637-21.586 23.471-45.686 23.471-72.301v-472.773c0-34.534-12.437-64.414-37.367-89.609-24.213-24.448-53.777-36.672-88.657-36.672-34.167 0-63.701 12.224-88.657 36.698-24.188 25.169-36.284 55.049-36.284 89.583v85.965c-2.116 23.462-22.626 8.67-29.905 0-19.213-35.972-56.051-58.095-100.379-58.283zM915.072 592.641c-29.905 0-55.531 10.432-76.881 31.295-20.642 21.577-30.963 47.478-30.963 77.704s10.321 55.77 30.963 76.634c21.35 21.577 46.976 32.365 76.881 32.365s55.539-10.788 76.907-32.365c21.346-20.864 32.021-46.409 32.021-76.634s-10.675-56.127-32.021-77.704c-21.367-20.864-47.002-31.295-76.907-31.295zM916.13 571.028c29.905 0 55.189-10.788 75.849-32.365 21.346-21.577 32.021-47.488 32.021-77.731v-266.598c0-30.225-10.675-56.128-32.021-77.705-20.642-20.864-45.926-31.296-75.849-31.296-29.888 0-55.514 10.432-76.881 31.296-21.346 21.577-32.021 47.479-32.021 77.705v266.598c0 30.225 10.675 56.137 32.021 77.731 21.35 21.577 46.976 32.365 76.881 32.365z" />
<glyph unicode="&#xe908;" glyph-name="youtube" d="M921.301 652.672c-10.138 36.753-38.458 65.129-74.426 75.17l-0.752 0.179c-66.816 18.347-334.123 18.645-334.123 18.645s-267.264 0.299-334.123-17.237c-36.669-10.677-64.916-39.093-75.162-75.091l-0.187-0.77c-17.621-66.816-17.792-205.397-17.792-205.397s-0.171-139.264 17.323-205.397c9.813-36.565 38.613-65.451 75.221-75.307 67.499-18.347 334.080-18.645 334.080-18.645s267.307-0.299 334.123 17.195c36.741 10.204 65.106 38.513 75.211 74.466l0.181 0.756c17.664 66.773 17.792 205.312 17.792 205.312s0.853 139.307-17.365 206.123zM426.496 319.787l0.213 256 222.165-128.213-222.379-127.787z" />
<glyph unicode="&#xe909;" glyph-name="spotify" d="M511.802 960c-282.208 0-511.802-229.611-511.802-511.842 0-282.406 229.594-512.158 511.802-512.158 282.426 0 512.198 229.752 512.198 512.158 0 282.231-229.772 511.842-512.198 511.842zM252.072 260.088c59.338 18.063 120.177 27.222 180.818 27.222 102.991 0 204.666-26.1 294.079-75.507 5.318-2.897 10.153-12.479 12.322-24.408 2.169-11.925 1.306-24.19-2.176-30.569-4.395-8.185-13.312-13.477-22.723-13.477-0.067-0.001-0.145-0.001-0.224-0.001-4.639 0-8.994 1.21-12.769 3.332l0.131-0.068c-82.081 45.116-174.973 68.967-268.641 68.967-56.589 0-112.143-8.377-165.072-24.875-2.358-0.746-5.069-1.178-7.881-1.182h-0.002c-11.59-0.003-21.648 7.38-25.023 18.335-4.556 14.977 4.868 48.212 17.16 52.231zM229.745 448.661c60.901 17.206 130.841 27.097 203.091 27.097 0.020 0 0.041 0 0.061 0h-0.004c123.434 0 246.005-29.867 354.542-86.416 7.608-3.861 13.215-10.408 15.783-18.432 2.605-8.128 1.82-16.867-2.246-24.667-9.686-18.956-21.007-31.694-28.178-31.694-5.083 0-9.988 1.219-14.873 3.66-100.785 52.483-210.138 79.093-325.031 79.093-63.908 0-126.607-8.404-186.297-24.962-2.522-0.716-5.419-1.128-8.412-1.128-14.651 0-26.998 9.866-30.759 23.317l-0.054 0.225c-4.798 18.012 6.164 49.498 22.377 53.906zM224.028 571.867c-3.032-0.749-6.131-1.125-9.213-1.125-0.029 0-0.064 0-0.099 0-17.529 0-32.256 12-36.413 28.234l-0.057 0.26c-5.234 21.229 8.048 45.889 27.282 50.733 74.806 18.375 151.3 27.692 227.362 27.692 147.241 0 288.254-33.104 419.172-98.411 8.987-4.464 15.805-12.162 19.015-21.536l0.079-0.264c3.223-9.582 2.511-19.896-1.988-29.008-6.131-12.271-19.379-25.482-33.98-25.482-6.008 0.030-11.689 1.4-16.77 3.826l0.238-0.102c-120.258 60.168-250.047 90.676-385.763 90.676-69.746-0.003-140.016-8.578-208.866-25.493z" />
<glyph unicode="&#xe90a;" glyph-name="x" horiz-adv-x="1133" d="M892.194 960h173.704l-379.5-433.763 446.465-590.237h-349.59l-273.792 357.985-313.29-357.985h-173.824l405.917 463.95-428.284 560.050h358.443l247.495-327.203 286.256 327.203zM831.223 39.98h96.26l-621.338 821.498h-103.285l628.363-821.498z" />
<glyph unicode="&#xe90b;" glyph-name="twitter" d="M322.048 38.4c386.406 0 597.76 315.205 597.76 588.52 0 8.973 0 17.895-0.614 26.767 41.114 29.237 76.595 65.531 104.806 107.068-38.298-16.736-79.002-27.725-120.627-32.564 43.827 25.86 76.646 66.489 92.365 114.427-41.267-24.095-86.374-41.083-133.427-50.207-79.565 83.275-212.634 87.308-297.267 8.973-54.528-50.509-77.722-125.82-60.774-197.652-168.909 8.368-326.298 86.904-432.998 216.101-55.757-94.516-27.238-215.396 65.075-276.088-33.434 0.958-66.15 9.83-95.386 25.86v-2.621c0.051-98.448 70.554-183.236 168.55-202.743-30.925-8.317-63.386-9.527-94.822-3.529 27.494-84.283 106.394-142.001 196.25-143.665-74.394-57.567-166.298-88.82-260.915-88.719-16.691 0.051-33.382 1.009-50.022 2.974 96.102-60.692 207.872-92.903 322.048-92.752z" />
<glyph unicode="&#xe90c;" glyph-name="wikipedia" d="M515.456 408.235c-33.28-68.736-78.891-161.792-101.504-203.776-21.888-38.229-40.107-33.109-54.528-1.024-50.005 118.187-152.747 325.333-201.045 441.472-8.917 21.419-15.659 35.115-22.016 40.533-6.443 5.333-19.712 8.533-39.936 9.685-7.424 0.811-11.093 2.603-11.093 5.589v16.171l1.835 1.621c32.896 0.171 192.128 0 192.128 0l1.792-1.621v-15.445c0-4.267-2.688-6.272-8.021-6.272l-20.053-1.024c-17.195-1.109-25.813-5.845-25.813-15.573 0-4.779 1.877-11.733 5.931-21.376 38.485-94.123 171.392-374.272 171.392-374.272l4.864-1.664 85.76 171.179-17.152 37.973-59.008 116.096s-11.307 23.253-15.232 31.019c-25.899 51.328-25.301 53.973-51.456 57.472-7.381 0.853-11.136 1.792-11.136 5.333v16.64l2.133 1.579h152.661l4.053-1.28v-16.043c0-3.755-2.688-5.333-8.064-5.333l-10.965-1.664c-28.16-2.176-23.509-13.568-4.821-50.603l56.277-115.712 62.507 124.672c10.411 22.741 8.277 28.501 3.968 33.664-2.475 2.987-10.88 7.893-28.885 8.533l-7.168 0.768c-0.003 0-0.007 0-0.011 0-1.961 0-3.76 0.692-5.166 1.846l0.014-0.011c-1.449 0.969-2.391 2.598-2.391 4.448 0 0.041 0 0.082 0.001 0.123v-0.006 15.232l2.176 1.579c44.373 0.299 143.829 0 143.829 0l2.133-1.579v-15.531c0-4.309-2.133-6.315-6.869-6.315-22.997-1.024-27.819-3.371-36.437-15.616-4.267-6.571-13.355-20.907-22.955-36.907l-81.877-152.021-2.304-4.779 99.328-203.221 6.059-1.749 156.373 371.371c5.504 15.019 4.565 25.685-2.261 31.829-7.040 6.144-12.331 9.728-30.549 10.496l-14.933 0.597c-0.095-0.004-0.206-0.006-0.318-0.006-1.907 0-3.675 0.593-5.13 1.604l0.030-0.019c-1.453 0.916-2.435 2.465-2.559 4.25l-0.001 0.017v15.403l2.091 1.621h176.512l1.451-1.621v-15.531c0-4.267-2.645-6.4-7.424-6.4-23.083-1.024-40.107-6.4-51.328-14.976-11.221-9.088-19.84-21.931-26.197-37.973 0 0-143.829-329.387-193.024-438.997-18.688-35.84-37.461-32.64-53.461 1.109-20.352 41.685-63.061 134.656-94.123 203.136l1.92 1.28z" />
<glyph unicode="&#xe90d;" glyph-name="amazon" d="M86.485 233.685c2.603 4.181 6.656 4.48 12.331 0.853 129.493-75.093 270.421-112.853 422.656-112.853 101.589 0 201.813 19.072 300.843 56.832l11.179 4.992c4.907 2.176 8.32 3.584 10.411 4.651 8.064 3.157 13.909 1.579 18.688-4.651 4.352-6.101 3.243-11.904-4.267-17.067-9.088-6.741-21.333-14.592-35.84-23.253-44.245-26.411-93.995-46.848-148.992-61.483-48.166-13.476-103.523-21.367-160.676-21.674l-0.177-0.001c-80.597 0-157.013 14.080-229.077 42.24-74.551 29.623-138.625 69.937-193.879 119.833l0.557-0.495c-3.584 2.603-5.333 5.248-5.333 7.851 0 1.664 0.683 3.157 1.749 4.651l-0.171-0.427zM320.256 455.083c0 35.84 8.832 66.347 26.411 91.819 17.664 25.259 41.685 44.416 72.661 57.429 28.416 11.989 62.507 20.48 103.68 25.685 13.909 1.579 36.736 3.669 68.267 6.187v13.227c0 32.981-3.584 55.424-10.581 66.731-10.752 15.317-27.733 23.083-51.328 23.083h-6.4c-17.067-1.664-31.829-6.912-44.331-16.341-12.263-9.479-20.947-23.069-23.998-38.675l-0.066-0.407c-2.091-10.667-7.339-16.512-15.403-18.176l-89.813 11.264c-8.917 2.176-13.269 6.4-13.269 13.909 0 1.579 0.256 3.157 0.768 5.248 8.917 45.995 30.507 80.256 64.853 102.571 34.731 21.931 74.752 34.731 120.661 37.333h19.243c58.837 0 105.344-15.403 138.411-45.909 4.907-5.248 9.685-10.667 14.507-16.981 4.267-5.931 8.021-11.264 9.984-16.085 2.688-4.736 5.419-11.733 6.997-20.267 2.176-9.088 3.755-15.019 4.821-18.176 0.981-3.669 2.176-10.667 2.731-21.931 0.256-11.179 0.683-17.493 0.683-19.669v-187.989c0-13.397 2.091-25.685 5.845-36.907 3.755-11.093 7.424-19.243 11.179-24.021l18.261-23.936c2.627-3.609 4.343-8.036 4.73-12.838l0.006-0.090c0-4.352-2.091-8.021-6.315-11.093-42.752-37.419-66.261-57.685-69.931-60.928-5.845-4.821-13.355-5.333-22.4-1.664-6.747 5.705-12.856 11.477-18.636 17.564l-0.094 0.1-11.008 12.416c-2.176 2.688-6.016 7.424-11.349 15.019l-10.667 15.488c-28.843-31.573-57.088-51.413-85.419-59.435-17.664-5.333-38.997-8.021-65.237-8.021-39.509 0-72.576 12.16-98.261 36.821-25.515 24.576-38.4 59.264-38.4 104.661l-1.835 2.688 0.043 0.299zM453.845 470.741c0-20.267 4.992-36.352 15.147-48.597 10.069-12.16 24.021-18.261 41.173-18.261 1.493 0 3.755 0.341 6.827 0.768 3.328 0.512 4.736 0.853 6.016 0.853 21.845 5.675 38.485 19.669 50.731 41.899 5.581 9.314 9.979 20.115 12.612 31.59l0.145 0.752c3.243 11.435 4.267 21.077 4.736 28.416 0.683 7.083 0.683 19.328 0.683 35.84v19.243c-29.995 0-52.907-2.091-68.437-6.315-45.355-12.928-68.437-41.685-68.437-86.571l-1.237 0.683v-0.299zM780.075 220.501c1.067 2.176 2.688 3.925 4.651 6.101 12.843 8.576 25.429 14.592 37.419 17.749 16.896 4.538 36.529 7.609 56.717 8.553l0.627 0.023c4.992 0.427 9.984 0 14.763-1.067 22.997-2.176 37.248-6.016 41.685-11.648 2.261-3.328 3.157-8.149 3.157-13.995v-5.333c0-18.176-4.992-39.509-14.848-64.085s-23.595-44.416-41.088-59.819c-2.603-2.091-4.907-3.157-6.997-3.157-1.067 0-2.176 0-3.157 0.427-3.243 1.579-3.84 4.267-2.347 8.576 19.243 44.843 28.672 76.245 28.672 93.909 0 5.419-1.067 9.685-3.157 12.331-5.077 5.845-19.499 9.259-43.52 9.259-11.202-0.172-21.981-0.772-32.639-1.789l1.621 0.125c-12.928-1.749-24.832-3.328-35.584-4.907-3.157 0-5.248 0.597-6.4 1.579-1.067 1.067-1.323 1.664-0.768 2.731 0 0.597 0.256 1.067 0.768 2.261v2.091l0.427 0.085z" />
<glyph unicode="&#xe90e;" glyph-name="booth" d="M773.828 521.659v49.273l-123.084 197.068h-42.517l-67.134-161.238-66.016 138.792-36.939 0.064-111.866-264.271v250.82h-76.1v-22.174h-58.172v-77.253h58.172v-223.046c0-19.792 16.055-35.835 35.832-35.835h38.029v-245.859l77.65 0.054 0.012 111.302c0 61.68 53.331 111.681 119.268 112.081 0.235 0 0.482 0.028 0.744 0.028h0.168c107.847-0.077 195.264-81.745 195.264-182.448v-41.017h56.689v220.573h58.172v121.94l-58.172 51.146z" />
<glyph unicode="&#xe90f;" glyph-name="alpha-police" d="M128.688 62.736c-14.277 14.277-14.293 16.053-0.603 50.795l11.024 27.968-33.723 9.941c-120.48 35.509-128.416 164.805-22.016 358.869 40.336 73.568 70.592 116.501 84.597 120.048 16.224 4.107 42.096-11.861 42.096-25.984 0-5.669-15.467-35.424-34.368-66.117-100.448-163.083-128.501-287.403-71.712-317.792 5.595-2.997 21.941-7.093 36.331-9.12l26.155-3.669 28.464 68.496c38.912 93.643 101.92 223.541 147.403 303.909 104.731 185.051 190.549 275.029 269.691 282.784 105.973 10.379 167.632-106.363 205.408-388.869 2.027-15.184 5.168-27.611 6.971-27.611 1.808 0 38.032 18.363 80.507 40.8 70.219 37.104 78.603 40.176 92.416 33.883 18.976-8.645 24.896-29.797 13.189-47.115-6.912-10.219-69.451-44.48-182.224-99.813-0.464-0.229 1.365-33.973 4.059-74.981 2.693-41.013 5.413-110.085 6.043-153.499 1.024-70.661 0.021-79.755-9.531-86.741-15.931-11.648-35.707-9.445-45.904 5.115-6.64 9.483-9.168 28.427-9.493 71.205-0.603 80.016-7.904 193.547-12.752 198.4-2.197 2.197-24.32-5.813-49.173-17.797-164.091-79.179-335.504-141.504-452.907-164.683l-50.379-9.947-13.931-37.781c-19.403-52.64-40.571-65.76-65.637-40.693zM332.133 237.205c100.661 28.811 201.781 69.003 356.037 141.515 51.68 24.288 68.304 34.773 68.304 43.061 0 16.688-15.931 126.325-25.947 178.581-24.667 128.661-72.299 208.037-118.725 197.84-76.299-16.757-213.365-221.051-338.731-504.88-37.627-85.184-36.539-79.653-14.832-75.499 10.272 1.968 43.52 10.688 73.893 19.381z" />
<glyph unicode="&#xe910;" glyph-name="berrys-cafe" d="M378.645-59.168c-128.885 27.189-215.413 119.52-249.424 266.171-15.749 67.925-47.781 143.285-67.995 159.979-36.539 30.181-4.72 76.437 67.184 97.669l38.213 11.28-32.971 98.133c-30.549 90.944-31.904 99.093-18.469 111.253 30.843 27.909 152.357 77.685 223.349 91.483 68.64 13.333 75.072 16.411 85.067 40.603 15.051 36.405 74.149 98.624 112.037 117.957 17.419 8.885 46.629 17.387 64.907 18.891 32.027 2.64 33.691 1.408 45.627-33.861l12.395-36.597 83.931 9.941 66.523-199.573c36.587-109.76 66.517-206.432 66.517-214.827 0-9.813-7.013-15.509-19.627-15.952-13.029-0.459-15.232-2.347-6.544-5.605 56.907-21.387 76.715-64.085 43.621-94.037-24.656-22.315-22.069-27.568 16.651-33.76 49.84-7.968 79.317-46.085 79.317-102.571 0-51.936-14.629-82.917-56.507-119.685-39.563-34.741-82.827-56.805-148.779-75.888-28.645-8.288-68.725-26.469-89.067-40.411s-53.707-31.381-74.155-38.757c-44.864-16.187-187.957-23.189-241.803-11.829zM664.88 40.816c34.432 39.216 49.44 74.901 66.763 158.757 14.176 68.64 23.435 92.448 46.037 118.357 15.627 17.915 9.707 18.629-49.307 5.973-39.163-8.4-44.656-12.608-57.136-43.797-7.595-18.976-13.808-57.44-13.808-85.483 0-82.107-14.773-140.907-44.789-178.256l-27.029-33.637 25.893 13.387c14.24 7.365 38.256 27.477 53.376 44.693zM830.027 101.189c56.933 29.056 90.043 65.941 91.051 101.445 0.939 33.003-26.133 60.768-59.253 60.768-16.816 0-22.235-6.677-30.064-37.077-15.52-60.251-27.579-96.624-40.496-122.139-14.795-29.237-12.944-29.376 38.763-2.997zM320.272 333.883c31.573 14.773 92.491 35.243 135.376 45.493l77.984 18.624-60.075 173.904c-33.040 95.653-62.139 175.979-64.667 178.507-16.64 16.64-265.824-69.237-266.357-91.803-0.181-7.52 115.989-351.584 118.704-351.584 0.907 0 27.467 12.091 59.040 26.859zM677.029 337.136c118.48 21.12 164.373 56.533 115.099 88.816-35.893 23.52-75.968 17.248-163.552-25.6-49.813-24.363-103.344-43.184-141.269-49.664-33.589-5.739-68.923-13.707-78.517-17.707-29.6-12.352 195.216-8.869 268.24 4.149zM200.299 373.269c-2.933 7.643-7.749 23.541-10.709 35.333-6.139 24.453-26.773 24.645-41.6 0.389-7.861-12.875-5.824-18.96 10.944-32.72 25.387-20.832 48.864-22.539 41.365-3.003zM655.579 450.197c27.488 11.573 75.461 26.027 106.613 32.128 31.147 6.101 60.021 13.963 64.16 17.461 10.123 8.565-106.549 356.907-119.483 356.736-36.027-0.475-34.88-13.003 14.933-162.443 26.971-80.933 49.045-149.749 49.045-152.917 0-3.173-14.8-8.272-32.885-11.328-44.459-7.509-95.84-37.931-122.144-72.32-11.931-15.589-19.109-28.347-15.947-28.347 3.152 0 28.224 9.461 55.707 21.029zM681.755 547.899c22.613 8.373 42.496 16.245 44.197 17.493 1.696 1.248-23.168 81.035-55.253 177.301-66.101 198.32-64 196.027-137.296 149.536-40.869-25.915-85.355-88.053-85.355-119.216 0-9.173 23.872-88.293 53.045-175.835l53.051-159.157 43.253 47.323c28.944 31.675 56.843 52.363 84.357 62.555z" />
<glyph unicode="&#xe911;" glyph-name="estar" d="M42.747-53.653c-42.795 20.683-50.336 105.568-12.533 141.083 29.216 27.445 88.533 25.611 117.781-3.643 17.856-17.856 21.739-28.613 21.739-60.245 0-31.92-3.936-42.619-23.024-62.544-18.576-19.387-29.189-23.931-54.88-23.504-17.52 0.293-39.605 4.277-49.083 8.853zM108.352-9.92c16.64 10.587 20.464 45.483 6.507 59.435-13.669 13.675-26.224 15.877-46.4 8.133-15.163-5.819-17.317-62.512-2.603-68.453 14.837-5.984 32.267-5.621 42.496 0.891zM224.619 88.48c-41.013 16.053-58.331 28.661-69.813 50.869-29.163 56.4-20.859 127.589 19.605 168.053l22.997 23.003-15.797 53.045c-18.080 60.715-21.648 191.083-7.131 260.688 36.72 176.123 182.267 295.243 377.477 308.965 239.189 16.816 425.061-115.653 460.96-328.523 12.885-76.357 5.509-200.064-15.483-259.707-45.547-129.419-147.84-219.28-286.896-252.027-68.267-16.075-208.064-11.536-265.008 8.603l-37.803 13.371-21.584-20.683c-36.091-34.576-109.099-46.176-161.531-25.653zM342.56 158.72c33.403 28.731 28.165 97.381-8.704 114.181-21.291 9.696-80.283 12.128-101.051 4.16-15.216-5.84-35.627-43.045-35.627-64.933 0-24.501 15.819-53.243 34.208-62.149 31.6-15.301 88.421-10.832 111.173 8.741zM665.899 172.448c78.304 12.704 130.645 36.139 178.576 79.947 75.328 68.843 109.632 158.629 108.64 284.336-0.555 69.456-3.6 85.995-26.752 145.040-51.696 131.84-147.744 193.579-313.669 201.6-90.597 4.389-153.077-7.216-219.115-40.677-42.192-21.381-101.813-82.453-125.152-128.203-41.765-81.872-52.331-224.144-23.44-315.68l16.448-52.128 41.653-4.299c69.611-7.184 105.888-38.725 122.059-106.117 11.445-47.723 17.643-51.808 95.573-62.987 68.464-9.829 89.024-9.947 145.179-0.832z" />
<glyph unicode="&#xe912;" glyph-name="kakuyomu" horiz-adv-x="1029" d="M418.919 680.707h-139.65v-418.919h-93.086v512.016h232.736zM837.827 122.159h-232.726v93.086h139.629v418.919h93.086z" />
<glyph unicode="&#xe913;" glyph-name="lanove-street" d="M11.104 446.469v502.187h1004.379v-1004.373h-1004.373zM585.877 135.472c129.813 19.851 223.941 83.125 251.067 168.773 6.011 18.987 7.52 53.76 3.136 72.379-6.555 27.829-23.216 50.331-50.891 68.72-25.707 17.077-48.667 26.037-120.853 47.168-47.867 14.011-68.725 26.171-68.725 40.064 0 18.635 20.944 34.395 58.272 43.84 15.216 3.851 22.336 4.368 60.405 4.395 34.411 0.027 47.307-0.736 63.616-3.76l20.459-3.797 9.371 10.629c6.293 7.141 8.597 11.061 7.008 11.947-1.301 0.72-12.080 2.907-23.947 4.859-26.763 4.405-102.256 5.072-129.472 1.147-80.213-11.573-136.336-45.291-136.336-81.92 0-29.195 28.667-48.187 109.301-72.405 79.819-23.973 108.496-47.563 108.427-89.173-0.112-60.112-55.019-110.117-140.155-127.632-30.293-6.24-67.36-8.544-98.165-6.117-25.216 1.989-52.928 5.813-51.605 7.131 0.331 0.325 48.267 8.299 106.528 17.717s106.715 17.824 107.669 18.683c1.312 1.173-34.304 122.315-36.651 124.661-0.24 0.24-65.707-18.011-145.467-40.565-79.765-22.549-145.221-40.8-145.451-40.56-0.235 0.24 6.677 101.323 15.355 224.624 8.677 123.296 15.2 224.747 14.507 225.451-1.109 1.109-189.472-28.341-191.173-29.888-0.352-0.32 18.923-119.611 42.837-265.093 48.933-297.707 42.533-269.675 65.264-285.792 17.52-12.427 34.091-20.24 63.269-29.845 25.557-8.411 55.461-15.008 83.312-18.389 24.965-3.029 123.136-1.216 149.088 2.752zM467.195 156.224c-28.496 1.941-67.387 8.64-91.963 15.851-32.987 9.675-76.944 32.949-67.691 35.84 5.029 1.568 103.221 16.885 108.261 16.885 2.741 0 12.64-1.819 21.995-4.043 81.189-19.28 163.179-14.395 227.643 13.568 37.2 16.139 59.413 33.669 77.856 61.461 14.981 22.56 21.253 48.485 17.301 71.467-3.413 19.84-10.016 32.587-24.117 46.571-14.651 14.528-31.899 23.568-64.363 33.717-75.013 23.467-90.123 28.853-104.549 37.301-40.24 23.552-37.184 51.76 8.939 82.528 29.216 19.493 73.461 31.019 128.053 33.36 35.115 1.509 101.195-4.267 100.96-8.816-0.037-0.693-1.733-3.264-3.776-5.707l-3.707-4.448-18.293 3.077c-25.253 4.245-76.811 5.888-99.717 3.179-25.355-3.008-39.499-6.859-56.88-15.509-25.387-12.629-38.336-29.355-34.517-44.581 3.52-14.011 27.429-28.96 65.904-41.211 52.864-16.827 82.56-27.397 99.984-35.589 59.84-28.144 79.627-66.027 66.837-127.989-6.576-31.872-22.741-60.165-48.411-84.741-16.624-15.909-32.48-26.736-57.195-39.024-51.467-25.589-106-38.875-177.483-43.221-34.688-2.107-39.051-2.107-71.072 0.075z" />
<glyph unicode="&#xe914;" glyph-name="monogatary" d="M480.96 281.472c-1.227 1.227-14.88 3.509-30.331 5.067-91.435 9.205-175.712 50.347-235.563 114.997-9.973 10.768-19.216 18.309-20.544 16.763-1.333-1.547-9.12-12.389-17.307-24.091-32.437-46.363-99.019-101.68-122.379-101.68-24.608 0-41.685 18.683-38.539 42.16 2.171 16.181 3.696 17.771 40.224 42.091 51.285 34.144 82.347 72.512 96.016 118.603 2.075 6.997 4.448 32.837 5.28 57.429 1.776 52.507 5.125 62.144 24.923 71.733 11.243 5.44 14.891 5.84 25.003 2.736 22.293-6.843 26.224-14.496 27.429-53.387 0.587-18.869-0.469-42.613-2.347-52.752l-3.408-18.443 17.2-22.848c67.611-89.829 145.211-126.645 266.933-126.645 81.248 0 143.013 16.747 192.816 52.293 23.093 16.48 59.275 53.888 76.512 79.115l12.229 17.899-3.957 36.331c-2.176 19.979-2.923 43.147-1.659 51.477 5.824 38.4 43.285 51.179 68.837 23.477 7.392-8.016 7.973-11.397 10.091-58.699 2.496-55.712 4.725-65.952 21.211-97.509 14.635-28.016 42.949-56.267 83.381-83.184 31.915-21.243 38.752-29.685 38.752-47.824 0-8.779-12.517-26.528-21.648-30.683-19.547-8.907-38.427-1.355-78.56 31.44-24.864 20.32-47.541 45.067-67.589 73.776-11.174 16.424-15.535 22.58-19.917 28.721l6.658-9.819c-0.549 0.731-8.923-7.429-18.619-18.144-57.163-63.168-137.563-102.869-234.933-116.011-34.267-4.624-93.269-7.317-96.192-4.389z" />
<glyph unicode="&#xe915;" glyph-name="narou" d="M814.080 930.365c-14.95-102.794-41.459-202.637-46.080-289.28-46.569-0.020-115.671 3.474-153.6 23.037 5.637 89.318 26.972 183.642 38.4 263.683 52.915 6.295 111.662 2.696 161.28 2.56zM614.4 638.525c49.408-4.116 98.291-14.582 143.36-20.48-2.701-75.448-27.968-133.962-33.28-199.68-39.703 1.513-107.981-5.453-135.68 23.040 2.947 63.060 18.688 137.646 25.6 197.12zM944.64 646.205c51.405-54.039 100.552-174.272 79.36-238.080-14.116-13.358-30.228-17.792-49.239-18.278-10.734 0.543-16.289 1.459-25.001 8.038-8.852 110.766-78.292 212.739-102.4 307.2 20.915 9.121 82.977-44.961 97.28-58.88zM609.28 410.685c28.191-4.82 56.645-5.612 81.92-12.8 0.604-29.263-3.098-57.92-1.759-84.961l0.274-7.334c0.635-13.594 2.24-25.372 6.605-38.264 3.827-11.482 4.8-21.317 2.56-33.28-9.677-18.806-24.486-32.166-40.289-45.791-12.8-11.955-19.384-26.931-26.15-42.821-4.728-10.778-10.138-21.222-15.48-31.708h-5.12c6.477 48.622 9.728 100.652 20.48 145.92 7.68 5.599 7.68 5.599 15.36 10.24 3.387 7.514 3.387 7.514 2.56 15.36-3.515 6.502-3.515 6.502-10.24 10.24-9.175 1.28-9.175 1.28-17.92 0-7.739-10.373-11.11-28.723 2.56-33.28-8.653-49.769-11.489-102.996-23.040-148.483l-7.68 2.56 0.358 5.192c1.247 33.144-6.316 66.102-23.398 94.651l-4.321 7.36-3.359 5.44c-8.072 13.44-7.168 28.378-5.12 43.52 4.987 11.761 11.451 21.688 20.48 30.72 16.389 34.058 19.809 75.354 30.72 107.52zM396.8 715.325c-8.532-8.256-10.898-14.234-11.681-25.761-23.77-82.125-68.559-145.244-103.357-210.56-76.739-96.159-129.446-150.016-173.548-185.62-40.714 20.549-84.762 44.506-108.214 53.302v-15.36c26.726-20.050 67.96-28.442 91.643-47.616-20.262-26.772-67.54-40.297-93.811-46.866l2.168-7.918c42.435 14.164 67.064 26.414 98.988 41.019 11.003 7.091 14.456 0.794 22.134-2.939 149.059-89.969 294.323-119.782 452.319-150.723v5.12c-150.676 47.073-304.96 89.196-428.544 151.002-5.317 3.374-16.148 8.453-21.148 12.298 77.512 41.846 172.352 122.634 228.442 181.363 42.56 52.795 94.638 113.172 121.411 167.34l8.481 2.719c9.439 2.401 9.439 2.401 16.799 8.32 5.581 7.058 8 10.708 8 19.681-28.237 23.846-63.352 41.234-110.080 51.2z" />
<glyph unicode="&#xe916;" glyph-name="no-ichigo" d="M164.037 216.128c0 183.867-2.944 275.040-8.885 275.040-4.891 0-17.451-5.333-27.909-11.856-10.464-6.523-29.904-14.389-43.2-17.477-22.912-5.333-24.043-4.213-21.472 21.163 2.4 23.616 7.792 28.565 45.653 41.845 44.005 15.44 149.371 76.171 220 126.805 21.813 15.643 43.877 28.443 49.024 28.443 5.787 0 10.315-26.672 11.856-69.808l2.496-69.803 34.347 31.792c53.248 49.285 151.883 93.68 217.413 97.851 110.443 7.029 208.96-39.179 242.917-113.941 14.432-31.765 15.893-61.429 16.069-325.029l0.187-290.069-218.971 4.8-4.293 303.024c-4.693 331.355-2.597 319.349-55.819 319.227-70.043-0.155-148.629-70.139-200.336-178.411l-31.52-66-4.288-188.917-4.293-188.917-218.976-4.805zM249.909 805.515c-110.629 98.677-108.251 96.069-97.44 106.88 8.261 8.261 65.403-2.597 163.179-31.003 25.984-7.547 73.845 17.397 91.84 47.861 8.325 14.096 19.051 25.627 23.84 25.627 4.784 0 26.784-12.453 48.891-27.68 52.101-35.893 88.571-35.685 141.595 0.795 21.493 14.779 41.877 26.885 45.296 26.885s19.072-15.024 34.789-33.381c37.269-43.541 59.691-48.24 130.155-27.285 68.853 20.475 114.629 25.408 119.12 12.843 1.803-5.045-39.717-46.693-92.267-92.549l-95.536-83.381-78.544 6.683c-96.224 8.187-128.811 8.293-254.587 0.811l-98.752-5.872z" />
<glyph unicode="&#xe917;" glyph-name="nola-novel" d="M642.949 209.408c-37.563 6.208-68.608 20.32-68.608 31.184 0 9.387 29.131 40.315 37.973 40.315 2.827 0 24.043-2.629 47.141-5.845 54.165-7.531 131.371 1.189 171.077 19.328 32.341 14.773 75.413 52.197 87.925 76.395l8.453 16.352-21.227-16.72c-28.944-22.8-72.363-44.053-110.107-53.877-38.037-9.909-275.973-11.637-319.413-2.32-38.533 8.267-40.677 12.981-23.52 51.765 12.88 29.104 14.581 39.952 14.613 93.312 0.043 54.725-1.312 62.944-14.453 87.819-7.979 15.093-19.707 32.149-26.075 37.904-25.557 23.093-14.4 30.997 65.44 46.32 31.605 6.064 89.579 22.528 128.821 36.581 84.843 30.373 129.141 35.76 185.371 22.528 46.928-11.045 75.376-25.547 106.581-54.309 65.333-60.213 103.413-221.931 68.080-289.12-7.072-13.451-26.133-38.379-42.363-55.387-16.224-17.013-29.499-32.784-29.499-35.040 0-6.789-24.053-24.709-33.429-24.907-4.8-0.101-27.029-4.853-49.397-10.56-47.365-12.085-143.872-18.251-183.387-11.717zM194.752 260.789c-37.147 13.861-71.819 37.723-115.648 79.6-49.781 47.563-68.139 70.933-61.179 77.899 2.64 2.64 30.251 6.773 61.355 9.179l56.549 4.384 13.243 32.619c7.28 17.947 22.581 45.888 34 62.096 11.424 16.213 22.811 32.405 25.312 35.989 2.848 4.091-5.984 22.293-23.76 48.928-34.987 52.443-34.528 62.155 2.933 61.131 48.587-1.333 163.856-48.32 207.024-84.4 94.016-78.56 60.24-260.56-59.072-318.32-33.413-16.171-108.747-21.045-140.757-9.104zM291.301 311.36c19.061 12.491 27.765 36.592 19.051 52.752-6.885 12.773-6.96 12.736-11.904-6.363-6.048-23.355-18.731-38.421-32.336-38.421-5.573 0-10.133-3.707-10.133-8.235 0-10.72 18.773-10.576 35.323 0.267zM367.493 446.469c17.056 9.083 25.333 21.547 25.536 38.448 0.24 19.861-4.997 32.011-13.787 32.011-5.269 0-6.443-5.312-4.203-19.099 2.651-16.325 0.635-21.403-13.877-34.955-9.333-8.725-15.413-17.419-13.504-19.323 4.661-4.667 5.963-4.475 19.84 2.917z" />
<glyph unicode="&#xe918;" glyph-name="novel-days" d="M425.056-52.704c0 4.997 11.125 35.712 24.725 68.256 23.077 55.232 29.893 59.173 102.379 59.173 42.709 0 77.653-4.085 77.653-9.077 0-4.997-11.12-35.712-24.72-68.256-23.077-55.232-29.899-59.173-102.384-59.173-42.709 0-77.653 4.085-77.653 9.077zM343.227 160.043c-9.301 23.467-82.997 201.957-163.771 396.651s-146.869 361.707-146.869 371.131c0 9.429 33.163 17.141 73.691 17.141h73.696l263.493-640.976-41.664-93.301c-40.123-89.851-42.293-91.723-58.576-50.64zM527.483 198.437c0.016 2.347 68.512 169.355 152.187 371.131l152.144 366.869 78.171 5.2c42.987 2.859 78.165-0.651 78.165-7.803 0-7.147-67.184-176.368-149.301-376.037l-149.307-363.040-81.056-0.293c-44.576-0.16-81.029 1.627-81.003 3.973z" />
<glyph unicode="&#xe919;" glyph-name="novel-up-plus" d="M153.253-47.675c-57.531 20.075-96.443 57.333-125.344 120.021l-14.613 31.701v679.808l21.099 42.869c21.787 44.251 55.568 79.093 94.677 97.653 44.235 20.992 89.92 23.36 411.541 21.387 312.88-1.931 319.472-2.24 349.157-16.053 40.736-18.96 85.787-61.653 106.549-100.992l17.056-32.309v-705.184l-16.992-32.053c-22.981-43.355-59.168-78.485-101.611-98.645l-35.253-16.747-336.571-1.509c-310.139-1.387-339.168-0.597-369.696 10.053zM631.931 155.333v169.883l336.571-0.011-3.755 237.216h-41.397c-39.253 0-41.397-0.789-41.397-15.163 0-32.005-43.829-67.723-107.147-87.307-31.947-9.888-36.373-13.483-44.032-35.755-17.936-52.176-51.419-60.123-186.533-44.277-110.976 13.013-131.296 9.872-177.504-27.467l-29.733-24.027 54.528-6.411 3.413-336.565h236.987zM160.747 199.947c45.835 38.176 94.88 81.749 108.981 96.827 14.107 15.077 45.2 44.763 69.104 65.973 59.851 53.109 81.387 57.36 215.92 42.629 90.933-9.957 102.272-10.048 123.899-1.013 20.091 8.395 23.808 12.997 23.808 29.504 0 10.757-2.885 19.563-6.411 19.563s-6.411 2.88-6.411 6.411c0 3.52 4.176 6.411 9.28 6.411 25.611 0 114.933 34.56 135.109 52.277 30.149 26.475 31.035 53.648 2.133 65.797l-20.149 8.475 45.632 23.979c100.885 53.013 129.147 126.768 54.315 141.733-45.515 9.104-180.816-40.891-287.227-106.128-84.613-51.877-147.776-108.507-362.208-324.747-118.117-119.115-208.992-212.192-201.936-206.837 7.051 5.355 50.32 40.971 96.16 79.147zM352.736 452.251c125.109 123.637 166.181 159.136 242.341 209.435l36.859 24.347v216.443l-233.989-3.493-6.411-333.36-333.36-6.411-3.499-233.995h169.515z" />
<glyph unicode="&#xe91a;" glyph-name="novelba" d="M487.904-13.216c-12.197 12.731-41.173 32.48-64.384 43.883-36.272 17.813-51.328 20.651-107.077 20.208-47.6-0.384-75.915-4.907-106.384-16.992-22.837-9.056-42.016-15.691-42.629-14.741-6.309 9.835-157.936 563.493-155.093 566.331 2.107 2.112 38.336 7.376 80.507 11.701 181.067 18.581 328.128-27.2 392.571-122.203 14.096-20.789 27.349-37.792 29.451-37.787 2.096 0.005 12.4 14.080 22.896 31.275 56.123 91.984 184.763 135.019 378.555 126.651 52.56-2.267 97.573-6.133 100.021-8.576 2.448-2.453-32.971-131.568-78.709-286.933-67.019-227.637-85.387-281.627-94.613-278.123-111.467 42.357-227.141 29.259-299.019-33.851-15.035-13.2-28.811-24-30.619-24-1.813 0-13.269 10.421-25.472 23.157zM469.717 546.763c-24.779 26.368-95.739 62.171-153.275 77.328-31.813 8.384-81.835 13.403-139.467 14l-89.867 0.928-7.013 26.709c-17.552 66.853-17.552 66.363-0.096 70.928 9.083 2.373 46.256 1.237 82.603-2.528 138.837-14.379 241.915-69.947 308.043-166.064 25.669-37.312 25.163-49.067-0.923-21.307zM474.517 618.848c-25.040 37.84-82.699 84.565-137.019 111.040-39.371 19.189-147.435 50.315-174.693 50.315-10.336 0-16.907 11.083-26.011 43.877-6.699 24.133-13.611 48.32-15.36 53.744-3.547 11.008 20.416 8.437 98.752-10.608 107.381-26.101 202.997-103.227 252.725-203.845 32-64.752 32.981-91.936 1.605-44.523z" />
<glyph unicode="&#xe91b;" glyph-name="novema" d="M226.336 18.107l-28.277 47.872 79.872 26.528c43.925 14.592 110.8 53.008 148.603 85.365 71.499 61.195 165.227 206.171 165.493 255.979 0.203 36.608 5.349 36.149 80.533-7.12l62.277-35.84-59.024-103.28c-77.915-136.336-170.885-231.589-272.005-278.677-109.040-50.773-143.093-49.013-177.472 9.173zM980.811 343.589c-3.947 6.773-7.376 66.379-7.616 132.464-0.272 66.080-3.403 123.12-7.024 126.741-3.627 3.627-35.424-1.376-70.667-11.109-53.051-14.645-135.632-6.965-479.445 44.571-254.213 38.107-413.157 68.864-409.691 79.269 3.12 9.355 35.531 14.853 72.027 12.213 56.016-4.037 72.4 2.507 105.088 41.973l38.731 46.773 139.851-19.509c401.136-55.947 521.456-76.683 563.504-97.136 41.568-20.219 45.653-19.68 40.827 5.403-9.008 46.773-73.2 64.187-439.861 119.323-194.064 29.184-356.043 55.797-359.957 59.152-3.909 3.349-0.203 12.704 8.208 20.773 9.008 8.64 52.496 8.613 105.579-0.053 49.643-8.112 215.808-33.579 369.253-56.597 374.597-56.192 359.765-43.653 365.637-309.051 2.8-126.4-1.632-207.504-11.339-207.504-8.763 0-19.163 5.536-23.104 12.304z" />
<glyph unicode="&#xe91c;" glyph-name="pri-novel" d="M4.107 455.893v503.68h1007.36v-1007.36h-1007.36zM833.781 115.365c14.624 17.285 12.48 40.987-4.955 54.699-29.424 23.147-63.605 7.045-63.605-29.968 0-37.888 43.995-53.76 68.56-24.731zM590.309 162.293c11.328 4.731 25.12 12.693 30.645 17.696 9.456 8.56 9.493 9.707 0.549 19.584-15.173 16.768-16.309 70.112-1.984 92.949 11.723 18.677 49.12 40 70.149 40 30.805 0 72.133-31.915 82.987-64.080 2.704-8.021 40.299 19.173 50.592 36.603 20.571 34.821 18.347 85.333-5.28 120.16-12.629 18.613-13.237 21.776-5.76 30.043 16.773 18.533 31.12 59.467 31.243 89.136 0.315 75.776-65.781 140.96-142.933 140.96-14.912 0-19.136 2.843-23.696 15.92-7.936 22.768-38.485 55.68-63.552 68.464-60.64 30.933-145.515 10.539-178.544-42.901-10.165-16.448-13.104-17.973-25.547-13.243-44.565 16.944-114.533-3.941-147.84-44.133-22.101-26.667-35.648-72.891-31.237-106.592 3.339-25.509 3.109-25.973-19.115-38.667-28.101-16.037-53.723-50.757-58.549-79.328-7.344-43.488 31.12-97.093 84.096-117.205 26.571-10.085 27.435-11.152 34.587-42.629 9.915-43.648 25.381-66.747 53.963-80.581 27.093-13.115 58.475-14.496 88.192-3.872 18.24 6.517 20.864 6.192 26.789-3.301 3.616-5.787 18.304-17.963 32.645-27.056 21.813-13.835 31.872-16.533 61.536-16.533 19.504 0 44.731 3.872 56.064 8.608zM373.472 383.648c-5.456 3.861-6.224 6.837-2.192 8.512 3.413 1.419 10.587 5.781 15.947 9.707 9.205 6.725 9.093 8.219-1.979 26.379-13.845 22.72-14.96 44.437-3.413 66.763 27.109 52.427 104.517 42.091 120.171-16.048 9.84-36.549-8.571-74.235-45.707-93.557-17.701-9.205-70.699-10.331-82.827-1.755zM248.011 446.469c-19.947 14.581 2.411 47.147 23.323 33.979 13.349-8.405 14.987-21.365 4.080-32.267-10.987-10.992-14.416-11.205-27.403-1.712zM717.712 184.123c68.053 28.437 46.053 131.856-28.043 131.856-73.291 0-95.904-97.92-30.101-130.341 23.371-11.509 33.573-11.776 58.144-1.509z" />
<glyph unicode="&#xe91d;" glyph-name="prologue" d="M965.988 888.108c-30.32 20.212-60.636 30.32-93.84 33.204-66.408 7.22-138.592-8.66-192.008-49.080-53.416-40.424-80.844-103.948-79.4-166.024 1.44-63.52 30.316-118.38 49.080-173.24 20.216-54.86 33.208-109.72 33.208-166.024s-12.992-112.604-40.424-163.136c-36.092-69.296-83.732-118.38-154.472-154.472-10.104-4.332-23.1-10.104-38.98-15.88-33.2-11.548-82.288-11.548-111.16-11.548-63.52 0-115.496 21.656-154.476 63.52-38.976 41.868-60.632 103.944-62.076 184.792h153.028c77.96 0 138.592 1.44 181.904 4.328 24.54 1.444 50.528 5.776 77.96 12.996l1.44 36.092c0 76.512-21.652 137.148-63.52 179.012-41.868 41.868-99.612 63.52-171.8 63.52-47.64 0-96.72-14.432-148.696-41.864-50.528-28.872-85.176-59.188-103.944-92.396-28.872-50.528-43.308-109.72-43.308-179.012 0-90.952 25.984-161.692 76.512-215.108s118.384-79.4 200.672-79.4c37.536 0 98.168 5.772 134.26 14.436 33.204 8.66 60.636 17.32 96.728 37.532 73.624 36.092 124.156 90.952 164.576 163.136 30.32 53.416 44.756 108.276 46.2 168.912 1.44 60.632-18.768 142.92-40.424 199.224s-34.648 122.712-28.872 164.58c5.772 40.42 15.88 98.168 63.52 129.928 33.204 21.656 54.86 27.432 101.056 27.432 40.424-1.444 67.852-12.992 92.396-40.424 59.192-66.408 111.16-46.2 108.276 0-1.444 24.544-23.1 44.756-53.416 64.964zM166.192 473.776c27.432 33.204 63.52 50.528 109.72 50.528 28.876 0 54.86-7.216 77.96-20.212 23.096-12.992 38.98-30.316 47.64-50.528 14.44-31.76 21.656-66.408 21.656-102.5v-34.648c-28.876-2.888-57.748-4.332-89.508-4.332-76.516 0-147.256 1.444-210.776 4.332 2.888 70.74 15.88 122.712 43.308 157.36zM208.060 632.58c1.444 0 2.888 0 2.888 1.44v2.892l-51.972 89.508c-1.444 2.884-4.332 2.884-5.776 0l-51.972-89.508v-2.888s1.444-1.444 2.888-1.444zM418.84 632.58c1.44 0 2.88 0 2.88 1.44v2.892l-51.964 89.508c0 1.44-1.444 1.44-2.888 1.44-1.44 0-2.888 0-2.888-1.44l-51.976-89.508v-2.888s1.444-1.444 2.888-1.444z" />
<glyph unicode="&#xe91e;" glyph-name="tugi-kuru" d="M546.384-41.749c-11.339 4.576-28.672 23.349-38.507 41.723-15.957 29.824 4.693 56.037 192.069 243.829 115.467 115.728 221.456 210.416 235.52 210.416 33.035 0 64.821-32.075 64.821-65.392 0-22.56-408.053-443.691-426.507-440.176-3.717 0.709-16.053 5.029-27.397 9.6zM398.603 97.781c-10.789 10.795-19.616 31.115-19.616 45.163 0 35.307 492.256 523.824 527.835 523.824 15.824 0 37.333-18.784 47.787-41.744 18.229-40.005 8.512-52.277-233.141-294.304-138.688-138.907-263.653-252.555-277.701-252.555s-34.368 8.827-45.163 19.616zM281.259 224.939c-18.187 18.192-33.072 38.667-33.072 45.504s136.133 148.416 302.523 314.624c317.285 316.939 323.712 321.056 374.795 240.080 14.507-23.008-29.088-74.075-268.688-314.699-157.301-157.979-298.715-294.288-314.24-302.907-20.976-11.643-36.757-7.163-61.317 17.397zM162.347 341.077c-15.733 9.163-28.613 29.045-28.613 44.187 0 34.8 325.717 363.253 360.229 363.253 32.667 0 64.875-31.92 64.875-64.304 0-27.835-324.869-361.088-351.237-360.299-9.152 0.267-29.515 7.995-45.253 17.163zM55.883 448.757c-11.344 4.571-28.651 23.307-38.453 41.632-15.717 29.355-2.613 48.635 110.16 162.075 70.4 70.816 139.579 128.757 153.728 128.757 33.323 0 64.965-32.069 64.965-65.84 0-22.405-246.075-280.064-263.808-276.224-3.285 0.709-15.253 5.029-26.592 9.6zM569.547 762.069c-36.203 40-34.507 50.464 16.875 104.091 47.12 49.184 84.843 57.696 116.299 26.24 31.451-31.456 22.944-69.173-26.24-116.299-54.133-51.867-70.725-54.043-106.933-14.032zM356.992 794.768c-36.197 40-34.507 50.469 16.875 104.096 47.12 49.179 84.843 57.691 116.299 26.24 31.456-31.461 22.944-69.179-26.24-116.299-54.133-51.867-70.72-54.048-106.933-14.037z" />
<glyph unicode="&#xe91f;" glyph-name="kakuzoo" d="M1.879 447.362v442.594h151.436v-885.188h-151.436zM489.542 21.246c-8.875 3.303-16.916 10.298-21.070 18.334-3.084 5.964-3.89 10.595-3.821 21.978 0.105 17.881 3.693 32.513 15.96 65.060 19.608 52.031 27.199 78.265 22.647 78.265-1.139 0-12.804-5.239-25.92-11.644-27.211-13.287-57.585-24.115-84.59-30.164-14.77-3.309-23.771-4.145-43.828-4.067-27.901 0.105-38.082 2.694-52.942 13.457-32.837 23.786-9.825 78.868 65.129 155.899 10.154 10.436 18.331 18.966 18.169 18.957-0.159-0.009-14.357-5.191-31.548-11.515-64.691-23.804-87.218-29.384-112.146-27.784-24.433 1.568-42.35 16.308-43.999 36.197-2.209 26.618 20.576 72.622 61.373 123.919 22.023 27.694 41.367 48.315 251.82 268.44 62.021 64.871 117.226 122.708 122.681 128.528l9.915 10.583 151.816-1.058-44.161-50.479c-119.375-136.45-239.616-271.593-289.408-325.272-9.591-10.334-17.21-19.017-16.934-19.29 0.273-0.276 9.261 2.281 19.976 5.683 37.483 11.893 68.513 14.965 83.307 8.245 7.999-3.633 17.692-14.437 24.421-27.226 3.627-6.894 4.268-10.712 4.274-25.374 0.006-16.724-0.234-17.737-7.652-32.451-8.257-16.38-20.884-32.214-58.733-73.641-13.065-14.297-26.468-29.121-29.792-32.942l-6.033-6.947 9.642 3.887c40.591 16.365 66.388 23.228 87.164 23.189 17.012-0.030 25.446-3.258 35.78-13.682 12.19-12.294 14.665-18.942 14.683-39.449 0.015-17.857-0.156-18.562-17.869-74.36-9.84-30.979-17.486-56.731-16.994-57.222 0.495-0.492 28.012 10.928 61.155 25.374-45.603-16.238-7.047 0.651 31.605 17.36l85.441 32.878c98.502 41.577 130.378 53.266 145.223 53.266 12.483 0 10.454-4.43-5.503-12.007-7.436-3.531-13.52-6.693-13.52-7.025 0-0.33 4.586 0.974 10.196 2.904 12.894 4.436 13.532 4.4 12.258-0.68-0.644-2.563-0.048-5.026 1.535-6.339 2.077-1.723 8.269 0.375 31.216 10.577 31.36 13.943 51.51 19.751 68.591 19.769 14.776 0.015 16.823-0.953 16.823-7.97 0-9.753-9.891-19.164-32.016-30.451-22.023-11.236-107.608-49.319-227.588-101.272-45.117-19.533-82.435-35.945-82.932-36.467-1.99-2.101 10.991 2.931 76.62 29.702 88.663 36.173 186.832 74.72 187.804 73.746 0.42-0.42-2.721-3.758-6.983-7.418-11.707-10.053-48.105-27.029-160.086-74.666-56.023-23.831-115.248-49.34-131.606-56.689-62.785-28.198-103.178-40.729-135.212-41.943-11.353-0.432-21.094 0.087-24.337 1.295z" />
<glyph unicode="&#xe920;" glyph-name="pixiv" d="M555.049 868.785c-145.295-2.707-320.741-69.461-514.987-238.186l51.732-112.108 28.16 16.319v57.818c16.708 33.553 40.052 64.41 85.866 85.972v-646.506h-23.788l0.215-23.040h161.28v22.402h-24.214v162.987c900.226-201.718 779.237 684.469 235.735 674.345zM548.325 806.492c435.261-3.052 445.338-769.434-229.011-539.628v480.963c85.675 41.66 162.352 59.133 229.014 58.665z" />
<glyph unicode="&#xe921;" glyph-name="plicy" d="M482.907-14.811c-2.736 2.736-16.357 4.208-30.267 3.269-38.613-2.603-82.331 22.949-133.088 77.771-90.539 97.797-134.859 231.653-130.448 394.037 1.301 47.739 0.747 86.8-1.227 86.8s-32.261-21.728-67.307-48.288c-72.784-55.136-84.277-60.779-103.221-50.64-61.632 32.987 86.827 168.288 287.979 262.453 266.848 124.923 528.731 151.904 656.699 67.659 83.371-54.88 71.861-141.963-32.747-247.701-36.752-37.152-64.992-58.107-103.659-76.912 244.722 107.263 200.345 85.414 155.93 63.629l-291.184-129.021c-60.448-29.12-84.309-44.373-90.453-57.856-8.645-18.976-21.904-98.192-22.149-132.352-0.139-19.536-0.117-19.547 38.827-14.971 35.269 4.144 38.976 3.291 38.976-8.987 0-27.808-19.531-43.835-59.509-48.827-46.443-5.803-64.832-0.624-80 22.517-13.504 20.619-29.637 103.653-30.171 155.333-0.533 51.429 26.661 80.64 124.613 133.835 85.861 46.629 125.408 82.208 137.968 124.133 12.811 42.752 2.256 68.619-39.84 97.664l-35.349 24.389-70.853-3.131c-59.205-2.619-80.448-6.987-129.173-26.571-32.597-13.104-59.941-28.571-62.005-35.077-8.085-25.472-17.424-120.731-17.627-179.819-0.501-142.203 30.331-267.531 92.421-375.68 30.053-52.352 34.133-71.605 16.603-78.331-13.931-5.349-13.717-5.355-19.744 0.672zM472.043 456.827c-25.029 12.875-33.803 29.904-22.448 43.589 14.117 17.008 28.837 13.696 28.837-6.496 0-15.557 3.051-17.712 25.083-17.712 13.797 0 37.584 6.379 52.859 14.171 44.203 22.549 65.424 16.517 35.893-10.203-16.539-14.976-61.136-31.611-85.493-31.893-9.739-0.112-25.371 3.733-34.731 8.544zM457.173 556.293c0 20.181 38.272 73.493 57.029 79.451 7.605 2.411 19.84 2.48 27.189 0.144 12.155-3.856 10.709-8.347-15.941-49.605-24.021-37.189-32.816-45.451-48.789-45.835-15.755-0.379-19.488 2.656-19.488 15.845zM585.531 546.411c-14.187 8.987-5.403 35.6 21.989 66.592 18.171 20.56 26.736 25.344 39.2 21.872 8.763-2.437 15.941-6.811 15.941-9.707 0-10.336-52.763-85.189-59.973-85.083-4.037 0.059-11.76 2.907-17.157 6.325z" />
<glyph unicode="&#xe922;" glyph-name="tap-novel" d="M3.781 446.469v512.032h1024.069v-1024.069h-1024.069zM577.040 122.805c51.627 62.507 52.224 63.008 71.424 60.176 43.701-6.453 140.384-14.629 142.928-12.085 2.539 2.539-5.637 99.221-12.091 142.923-2.827 19.2-2.309 19.813 60.176 71.552 34.667 28.699 63.029 53.909 63.029 56.021s-28.363 27.195-63.035 55.739c-62.549 51.504-63.013 52.053-60.171 71.291 6.587 44.608 14.608 140.437 11.973 143.067-2.773 2.779-120.128-6.933-148.224-12.261-12.64-2.4-19.467 3.84-65.867 60.293-28.469 34.635-53.365 63.589-55.328 64.341-1.963 0.747-27.269-27.573-56.235-62.933-46.971-57.339-54.165-64.005-66.571-61.653-28.629 5.419-145.291 14.949-148.144 12.101-2.848-2.848 6.688-119.509 12.107-148.139 2.347-12.405-4.32-19.605-61.659-66.576-35.36-28.965-63.68-54.272-62.933-56.235 0.757-1.957 29.707-26.859 64.341-55.328 56.453-46.4 62.693-53.221 60.293-65.867-5.333-28.091-15.040-145.445-12.267-148.224 2.64-2.635 98.507 5.392 143.136 11.989 19.355 2.859 19.723 2.544 72.005-61.424 28.907-35.36 54.016-63.733 55.803-63.040 1.787 0.683 26.677 29.605 55.307 64.272zM476.453 188.293c-34.16 41.424-44.149 50.448-53.333 48.187-6.224-1.536-35.467-4.427-64.981-6.432l-53.675-3.648 4.069 44.693c2.24 24.587 5.173 53.813 6.528 64.944 2.416 19.915 1.664 20.896-46.4 60.587-26.88 22.187-49.488 41.941-50.24 43.893-0.763 1.952 21.227 22.005 48.853 44.555 49.525 40.427 50.197 41.291 47.781 61.205-4.789 39.408-10.464 108.549-9.029 109.984 1.429 1.429 70.571-4.245 109.979-9.029 19.915-2.421 20.779-1.744 61.205 47.776 22.555 27.627 42.603 49.616 44.555 48.853 1.952-0.752 21.707-23.36 43.893-50.235 39.691-48.069 40.672-48.821 60.587-46.4 11.136 1.349 40.357 4.288 64.944 6.523l44.693 4.069-3.643-53.675c-2.005-29.515-4.891-58.72-6.411-64.891-2.229-9.056 6.853-19.253 46.955-52.709 27.344-22.821 49.717-43.147 49.717-45.173s-22.4-22.336-49.787-45.125c-40.693-33.867-49.28-43.547-47.003-52.949 1.536-6.325 4.496-35.259 6.576-64.293l3.787-52.795-52.795 3.787c-29.035 2.080-57.968 5.040-64.293 6.576-9.408 2.283-19.040-6.293-52.811-46.997-22.72-27.387-42.741-50.347-44.496-51.019-1.76-0.677-22.112 21.707-45.227 49.739z" />
<glyph unicode="&#xe923;" glyph-name="note" d="M289.898 664.93c85.555 0 202.723 4.341 286.845 2.16 112.868-2.887 155.282-52.052 156.716-173.498 1.433-68.668 0-265.305 0-265.305h-122.111c0 172.044 0.727 200.438 0 254.65-1.433 47.711-15.059 70.455-51.719 74.796-38.821 4.341-147.618 0.727-147.618 0.727v-330.172h-122.111v436.644z" />
<glyph unicode="&#xe924;" glyph-name="notion" d="M628.224 957.676l-566.61-41.851c-45.711-3.953-61.614-33.823-61.614-69.622v-621.158c0-27.884 9.902-51.743 33.792-83.63l133.192-173.189c21.883-27.884 41.779-33.864 83.558-31.877l657.992 39.834c55.634 3.963 71.578 29.87 71.578 73.656v698.808c0 22.63-8.94 29.153-35.256 48.466l-185.385 130.703c-43.756 31.816-61.645 35.84-131.246 29.87zM265.421 760.084c-53.729-3.615-65.915-4.434-96.43 20.378l-77.578 61.706c-7.885 7.987-3.922 17.951 15.944 19.937l544.696 39.803c45.742 3.994 69.56-11.95 87.45-25.876l93.42-67.686c3.994-2.017 13.926-13.926 1.976-13.926l-569.477-34.345zM202.783 55.808v593.234c0 25.907 7.956 37.857 31.775 39.864l646.083 37.827c21.914 1.976 31.816-11.95 31.816-37.816v-589.281c0-25.907-3.994-47.821-39.762-49.797l-618.26-35.84c-35.768-1.976-51.64 9.933-51.64 41.81zM813.087 617.236c3.963-17.92 0-35.84-17.92-37.888l-29.798-5.908v-437.996c-25.876-13.926-49.695-21.883-69.601-21.883-31.816 0-39.762 9.964-63.59 39.803l-194.867 306.586v-296.622l61.645-13.957s0-35.84-49.736-35.84l-137.114-7.956c-3.994 7.987 0 27.884 13.896 31.846l35.809 9.933v392.192l-49.695 4.024c-3.994 17.92 5.939 43.796 33.792 45.804l147.118 9.902 202.752-310.548v274.739l-51.681 5.939c-3.994 21.944 11.909 37.888 31.775 39.834l137.216 7.987z" />
<glyph unicode="&#xe925;" glyph-name="javel" d="M854.119 950.639l-94.906-3.638c8.917-200.394 13.375-383.313 13.375-548.835 0-76.253-4.458-138.721-13.375-187.403-9.737-47.863-25.161-84.785-46.249-110.741s-45.839-43.815-74.229-53.551c-28.39-8.917-65.312-13.375-110.741-13.375-85.195 0-163.062 32.028-233.652 96.136-70.59 64.082-55.396 222.788-55.396 222.788l-95.085 0.871c3.1-147.919 10.531-224.069 95.726-297.888 85.169-73.844 181.305-110.741 288.408-110.741 128.19 0 217.023 32.438 266.5 97.366 49.477 65.696 74.229 184.534 74.229 356.538 0 144.409-4.868 328.558-14.605 552.474zM406.954 841.026l-77.893 45.019c-64.902-95.726-110.741-166.29-137.516-211.745l77.893-41.38c53.095 86.099 98.452 153.956 145.785 220.306l-8.269-12.2zM578.523 794.777l-76.663 45.019c-51.117-74.639-95.316-143.179-132.648-205.647l76.663-40.151c38.152 62.468 82.351 129.394 132.648 200.778z" />
<glyph unicode="&#xe926;" glyph-name="person" d="M788.939 643.867c0-154.625-125.348-279.973-279.973-279.973s-279.973 125.348-279.973 279.973c0 154.625 125.348 279.973 279.973 279.973s279.973-125.348 279.973-279.973zM148.757 281.995h742.139c42.463 0 76.885-34.423 76.885-76.885v-163.808c0-42.463-34.423-76.885-76.885-76.885h-742.139c-42.463 0-76.885 34.423-76.885 76.885v163.808c0 42.463 34.423 76.885 76.885 76.885z" />
<glyph unicode="&#xe927;" glyph-name="link" d="M948.542 884.808c-99.903 99.903-263.573 99.903-363.475 0l-196.265-196.262c67.31 19.13 140.291 14.171 204.059-15.588l102.026 102.028c39.678 39.678 104.154 39.678 143.831 0s39.678-104.154 0-143.831l-212.559-212.559c-39.678-39.678-104.154-39.678-143.834 0l-109.822-109.822c25.507-25.509 55.265-44.637 86.441-56.682 84.317-33.301 182.094-20.547 255.781 37.554 7.085 5.666 14.879 12.043 21.256 19.13l212.559 212.559c100.613 99.9 100.613 262.862 0.002 363.473zM426.356 218.791l-97.777-97.777c-39.678-39.68-104.154-39.68-143.831 0-39.678 39.678-39.678 104.151 0 143.831l212.559 212.556c39.678 39.678 104.154 39.678 143.834 0l109.822 109.822c-25.507 25.507-55.265 44.637-86.441 56.682-88.566 35.426-192.72 19.13-267.115-47.471-3.543-2.834-7.085-6.377-9.919-9.211l-212.559-212.556c-99.903-99.903-99.903-263.573 0-363.478 99.903-99.903 263.573-99.903 363.475 0l192.014 194.139c-97.782-22.671-120.455-19.839-204.061 13.462z" />
<glyph unicode="&#xe928;" glyph-name="0xbtc" d="M512-64c-282.784 0-512 229.216-512 512s229.216 512 512 512 512-229.216 512-512-229.216-512-512-512zM512 87.744c198.976 0 360.256 161.28 360.256 360.256s-161.28 360.256-360.256 360.256c-198.976 0-360.256-161.28-360.256-360.256s161.28-360.256 360.256-360.256zM512 108.928c-187.264 0-339.072 151.808-339.072 339.072s151.808 339.072 339.072 339.072 339.072-151.808 339.072-339.072-151.808-339.072-339.072-339.072zM450.88 187.776c7.936 3.264 38.976 27.2 68.96 52.96 38.555 32.896 73.473 65.432 106.932 99.408l0.204 0.208c32.832 32.832 45.024 46.944 47.040 54.24 7.104 25.632-70.56 307.392-86.368 313.44-9.632 3.712-95.776-67.936-172.064-142.944-44.736-43.968-57.12-58.592-58.080-68.16-0.64-7.392 1.92-25.92 6.688-47.872 18.976-87.104 53.504-207.456 70.976-246.976 7.328-16.768 8.16-17.504 15.68-14.304z" />
<glyph unicode="&#xe929;" glyph-name="1inch" d="M512 960c282.784 0 512-229.216 512-512s-229.216-512-512-512-512 229.216-512 512 229.216 512 512 512zM442.944 784h-3.552c-22.4-0.352-88.704-8.384-115.072-88.608-8.16 20.64-15.68 50.688-15.68 50.688s-0.256-0.192-0.64-0.608l-1.76-1.76c-9.28-9.696-41.632-49.056-22.592-109.024 11.87-1.952-31.489 14.070-75.022 29.725l-58.61 18.435c-0.145 0.048-0.349 0.103-0.556 0.15l-0.052 0.010c-4.064 0.608-5.216-1.152-5.216-1.152s-1.184-1.792 2.304-4.736c6.4-5.28 128.416-96.64 155.136-114.304-5.792-21.216-5.792-31.232 0-41.28 8.16-13.536 8.736-20.608 7.584-30.624-1.184-10.016-11.648-96.64-13.952-107.264-2.336-10.592-26.72-48.32-25.6-59.52 1.184-11.2 16.32-58.912 29.664-64.224 9.888-3.52 34.272-11.2 50.56-11.2 5.792 0 11.040 1.184 13.344 3.52 9.888 8.864 12.8 10.624 19.776 10.624h1.728c2.88 0 6.4-0.576 10.464-0.576 9.28 0 21.504 1.76 30.208 10.016 12.8 12.96 34.88 30.656 41.824 38.88 8.736 11.2 13.376 26.56 11.040 41.856-1.728 14.144 5.824 26.528 14.528 38.88 11.040 14.72 31.36 41.28 31.36 41.28 40.128-30.656 65.088-77.216 65.088-129.088 0-91.904-79.008-166.176-176.64-166.176-0.011 0-0.023 0-0.035 0-15.664 0-30.875 1.937-45.407 5.585l1.282-0.273c44.768-15.904 82.528-21.216 113.312-21.216 65.664 0 100.544 24.16 100.544 24.16s-12.224-15.904-32-34.176h0.64c108.64 15.328 161.504 106.080 161.504 106.080s-4.064-29.472-9.28-49.504c144.64 110.208 120.256 248.096 119.68 252.8 1.152-1.76 15.68-19.456 23.232-28.864 19.84 206.944-119.552 294.432-161.12 315.744l-4.352 2.176c-1.584 0.829-3.921 1.914-6.296 2.926l-0.808 0.306s29.056-1.184 59.264-4.704c-67.968 54.208-132.48 70.112-184.768 70.112-72.032 0-120.832-30.048-123.744-31.808l22.656 36.512s-1.408 0.16-3.968 0.192zM514.88 657.088c119.136-12.96 212.096-115.52 212.096-239.84 0-0.14 0-0.306 0-0.472 0-94.751-54.551-176.76-133.959-216.336l-1.401-0.632c37.76 29.44 66.784 70.72 79.584 117.28 0.576 1.76 5.792 4.704 9.28 7.040 5.824 2.976 11.616 6.496 12.8 11.2 2.304 13.568 3.488 27.712 3.488 41.856 0 5.312-5.248 10.592-10.464 15.904-2.912 3.52-7.552 7.68-7.552 10.624-5.076 44.806-22.218 84.856-48.059 117.749l0.379-0.501c-11.584 70.72-58.080 92.512-59.232 93.12l0.736-1.152 1.568-2.56c6.944-11.84 25.856-50.24 8.16-94.112-21.504-52.48-76.704-44.192-81.344-44.8-4.672 0-22.688-23.552-45.344-67.168-5.455 1.712-11.728 2.698-18.231 2.698-3.825 0-7.571-0.341-11.208-0.995l0.382 0.057c10.464 29.472 26.144 71.296 29.056 74.848 1.184 1.184 9.888 3.52 15.68 5.312 11.040 2.944 16.288 4.704 18.016 7.040 1.184 1.792 6.976 15.36 12.8 29.472 5.216 0 18.56 1.184 19.744 1.792 1.184 1.184 12.224 30.048 12.224 33.6 0 2.912-22.688 60.096-31.392 81.92 4.232 5.027 8.253 10.597 11.849 16.456l0.343 0.6zM632.832 508.608c21.817-29.632 36.434-65.821 40.591-105.132l0.081-0.948c0.576-4.736 5.248-9.44 9.888-14.144 4.064-3.52 8.704-8.256 8.704-11.2 0-13.568-1.152-27.104-3.488-40.64-0.576-1.792-5.792-4.736-9.856-7.104-5.824-2.944-11.040-5.888-12.224-10.592l-2.72-9.024c-13.36-39.677-36.442-73.111-66.469-98.619l-0.315-0.261-7.136-5.76 4.928 5.376c50.624 57.6 73.92 148.32 33.376 220.832 5.824 30.080 6.4 56 4.64 77.216zM473.056 732.48s21.504-47.712-1.152-82.496c-23.264-34.752-45.92-41.248-45.92-41.248s31.968-5.888 61.6 15.904c12.192-28.864 23.808-58.912 24.416-63.040l-15.808-37.984c-5.472-12.992-10.496-24.704-11.52-26.24-1.152-1.184-9.28-3.52-15.104-4.736-9.888-2.944-15.68-4.704-18.016-6.464-4.064-3.52-22.656-55.392-31.36-80.736-12.025-3.166-21.966-10.557-28.366-20.452l-0.114-0.188c4.064 2.944 16.832 4.736 26.144 5.888 8.128 0.608 33.12-12.96 39.52-38.304v-1.152c1.152-9.44-1.76-18.272-6.4-25.344-2.336-2.944-12.192-11.808-19.2-18.272-6.944-6.496-14.496-12.96-20.32-18.88-2.304-2.336-6.976-3.52-13.952-3.52h-17.408c8.704 11.776 34.272 38.912 42.976 44.8 10.464 7.040 15.68 14.144 9.28 26.496-6.368 12.384-23.2 9.44-23.2 9.44s9.856 4.128 18.56 4.128c-11.008 2.944-24.96 0-31.36-6.496-6.976-6.464-5.792-29.44-8.704-44.16-2.912-15.36-12.8-23.008-27.904-37.152-8.128-7.68-13.952-10.016-18.56-10.016-11.456 2.058-21.424 4.72-31.052 8.105l1.388-0.425c-5.792 7.648-14.528 32.96-16.832 43.584 1.728 5.888 8.704 18.272 12.16 25.344 7.008 13.568 11.072 21.216 12.224 28.288 2.336 10.016 9.888 71.904 12.8 97.824 7.552-10.016 18.016-26.528 15.68-37.12 16.864 24.16 4.64 47.712-1.152 57.152-5.248 9.44-12.224 28.288-6.4 48.32 5.792 20.032 26.72 75.424 26.72 75.424s6.976-12.384 16.864-10.016c9.856 2.368 89.472 123.744 89.472 123.744zM333.856 361.792s-19.040-33.792-20.768-38.464c-1.728-5.248 1.152-14.56 8.64-13.984 7.52 0.576 16.736 11.648 16.736 19.84 0 10.464-9.216 9.28-9.216 9.28zM407.968 356.512c4.672 1.184 15.68-0.576 15.68-8.832 0-7.68-8.128-9.44-13.92-14.72-4.064-4.16-12.224-12.96-13.376-14.144l0.032 0.032 1.664 3.040c2.912 6.592 3.072 15.136 3.36 19.744l0.192 1.92c0.576 4.16 1.728 11.808 6.4 12.96zM435.264 595.36s-59.040-93.984-64.256-95.776c-5.216-1.76-10.4 18.816-10.4 18.816-11.008-42.88 18.528-48.768 21.984-35.264 16.224 4.128 44 21.76 55.008 34.080 10.976 12.928 5.184 37.024-15.040 41.12 5.184 12.352 12.704 37.024 12.704 37.024zM467.904 696.544l-38.336-58.72h0.512c2.752 0.192 15.424 2.016 29.824 18.976 13.184 16 8 39.744 8 39.744z" />
<glyph unicode="&#xe92a;" glyph-name="2give" d="M512-64c-282.784 0-512 229.216-512 512s229.216 512 512 512 512-229.216 512-512-229.216-512-512-512zM488.416 164.608v-46.816h23.584v70.048h-46.816v-23.232h23.232zM253.632 421.568h-23.232v-116.864h23.232v46.816h23.584v46.816h-23.584v23.232zM535.584 281.472v-70.048h23.232v70.048h-23.232zM512 211.424v-23.584h23.584v23.584h-23.584zM277.216 234.656v-70.048h70.4v70.048h-70.4zM230.4 468.384v-23.232h23.584v23.232h-23.584zM371.2 515.2v-23.584h23.584v23.584h-23.584zM512 538.784v-46.816h23.584v46.816h-23.584zM206.816 608.832v-70.048h70.4v70.048h-70.4zM418.016 164.608v-46.816h23.584v46.816h-23.584zM441.6 538.784h-23.232v-46.816h23.232v23.232h23.584v46.816h-23.584v-23.232zM465.184 585.248v-23.232h23.232v23.232h-23.232zM465.184 515.2v-23.232h23.232v23.232h-23.232zM347.616 468.384v-23.232h70.4v23.232h-70.4zM441.6 562.016v23.232h23.232v23.584h-23.232v46.464h-70.4v-23.232h46.816v-23.232h-23.584v-23.232h-23.232v-23.232h-23.232v22.88h-23.936v23.232h23.584v-22.88h23.584v23.232h-23.232v46.464h-187.968v-163.68h187.968v23.584h23.232v46.816h23.584v-23.232h23.584v23.232h23.232zM300.8 515.2h-117.216v116.864h117.216v-116.864zM324.032 515.2v46.816h23.584v-46.816h-23.584zM418.016 585.6v22.88h23.584v-22.88h-23.584zM605.984 328.288v23.232h-47.168v46.816h-23.232v-23.232h-23.232v23.232h23.232v70.4h-46.816v-23.584h-23.936v-46.816h-23.232v-23.232h23.584v23.232h23.232v-70.048h-46.816v23.232h-23.584v46.816h-23.232v23.232h-47.168v23.232h-23.584v23.232h-46.816v-23.232h-23.584v-23.232h23.584v-23.232h23.584v23.232h23.584v-23.232h-23.584v-23.232h23.584v-23.232h23.232v23.232h23.584v23.232h23.232v-23.232h-23.232v-23.232h-23.232v-46.816h46.816v-23.584h-47.168v23.232h-23.584v-23.232h-46.816v23.232h-23.232v-23.232h-23.584v-163.68h164.384v140.448h23.232v-70.4h47.168v23.232h23.584v47.168h-23.584v23.232h-23.584v-23.232h-23.232v46.816h70.4v-23.232h23.584v46.464h46.464v-23.584h23.584v23.584h23.584zM371.2 141.376h-117.216v116.864h117.216v-116.864zM394.784 328.288h-23.584v23.232h23.584v-23.232zM441.6 234.656h23.584v-23.232h-23.584v23.232zM605.984 655.296v-46.464h23.232v46.464h-23.232zM558.816 655.296h-23.232v-70.048h-23.584v-23.232h23.584v-23.232h23.232v-46.816h23.584v46.816h23.584v-47.168h23.232v23.584h23.584v46.816h-46.816v46.816h-47.168v46.464zM770.016 398.336h-46.816v-23.232h-23.584v-23.584h-23.232v70.048h23.232v23.584h-23.232v-23.232h-23.584v-23.584h-23.584v46.816h-23.232v-46.816h-23.584v-23.584l23.584 0.352h23.232v-46.816h70.4v-23.584h-70.4v-23.232h-23.232v-23.232h-23.584v-23.584h23.584v-23.232h-23.584v-23.584h23.584v-23.232h23.232v-23.232h-23.232v-23.584h187.616v140.448h-23.584v-116.864h-117.216v116.864h70.4v93.28h23.584v-23.232h46.816v46.464h-23.232v23.584h23.232v70.048h-23.584v-70.048zM582.4 304.704v-23.232h23.584v23.232h-23.584zM699.616 421.568v-23.232h23.584v23.232h-23.584zM746.784 304.704v-23.584h46.816v23.584h-46.816zM746.784 608.48v-70.048h70.4v70.048h-70.4zM652.8 515.2v-23.584h23.584v23.584h-23.584zM558.816 468.384v-23.232h23.584v23.232h-23.584zM723.2 468.384v-23.232h23.584v23.232h-23.584zM676.384 234.656v-70.048h70.4v70.048h-70.4zM652.8 468.384v-23.232h23.584v23.232h-23.584zM488.416 608.832v-23.584h23.584v23.584h-23.584zM652.8 655.296v-23.232h46.816v-23.232h-23.584v-23.232h-23.232v23.232h-23.584v-23.584h23.584v-22.88h23.584v-23.232h23.584v-46.816h164.032v162.976h-211.2zM840.416 515.2h-117.216v116.864h117.216v-116.864zM315.232 696.48c16.192-10.912 34.496-13.024 48.928-13.728 12.32-0.704 33.088-0.704 54.912-0.704 40.48 0 88-0.704 92.928-0.704 13.024-0.352 52.8-0.352 88-0.352 21.824 0 42.24 0.352 54.912 0.704 14.432 0.704 32.736 3.168 48.928 13.728 20.416 13.728 30.624 36.256 30.624 66.88 0 24.64-10.208 39.424-18.656 47.872-22.88 22.176-58.080 20.768-69.696 20.416h-1.408c-7.040 0-32.384-3.872-62.304-20.768-26.4-14.784-49.28-35.904-67.936-62.304l-2.112-5.28-1.76 2.816c-19.712 29.568-45.408 49.632-73.92 65.824-29.568 16.896-54.912 20.416-61.952 20.416h-1.408c-11.616 0.352-46.816 1.76-69.696-20.416-15.488-14.784-18.656-34.144-18.656-47.872-0.352-30.272 9.856-52.8 30.272-66.528zM599.648 775.328c24.992 14.432 44 16.544 45.408 16.544h2.464c20.064 0.704 34.144-2.464 41.536-9.504 4.576-4.576 7.040-10.912 7.040-20.064 0-33.44-15.84-40.832-42.944-42.24-22.88-1.056-76.032-0.704-110.528-0.352 14.406 23.001 33.587 41.731 56.261 55.197l0.763 0.419zM330.016 783.424c6.688 6.336 18.656 9.504 35.904 9.504h8.448c1.408 0 20.416-2.112 45.408-16.544 22.528-13.024 41.888-31.68 57.376-55.616-34.848-0.352-88-0.704-110.88 0.352-27.104 1.408-42.944 8.8-42.944 42.24 0 9.152 2.112 15.488 6.688 20.064zM558.816 164.608h-23.232v-46.816h23.584v46.816h23.232v23.232h-23.584v-23.232z" />
<glyph unicode="&#xe92b;" glyph-name="pac" d="M512-64c-282.784 0-512 229.216-512 512s229.216 512 512 512 512-229.216 512-512-229.216-512-512-512zM509.92 832c-210.976-0.032-381.92-171.104-381.92-382.080 0.032-210.944 171.104-381.952 382.080-381.92 210.944 0.064 381.952 171.104 381.92 382.080-0.036 210.936-171.043 381.92-381.984 381.92-0.034 0-0.068 0-0.101 0h0.005zM354.816 664.64c0.053 2.132 1.795 3.841 3.935 3.841 0.023 0 0.046 0 0.069-0.001h159.133c1.245 0.025 2.714 0.039 4.185 0.039 33.601 0 65.47-7.42 94.056-20.71l-1.378 0.575c5.76-2.816 11.424-5.952 16.896-9.344l-103.584-59.296h-54.048c-2.133-0.053-3.841-1.794-3.841-3.935 0-0.034 0-0.068 0.001-0.102v0.005-29.824l-115.424-66.752v185.504zM311.968 329.344l-69.184 69.888 227.84 131.456v-85.184c0.053-2.132 1.795-3.841 3.935-3.841 0.023 0 0.046 0 0.069 0.001h32.541l-195.2-112.32zM653.152 394.304c-33.408-27.904-79.264-41.856-137.568-41.856h-41.504c-2.174 0-3.936-1.762-3.936-3.936v0-86.016l-57.92-33.344-54.080-31.264-3.424-1.92v142.56l179.296 103.168c15.991 0.504 30.458 6.639 41.574 16.476l-0.070-0.060c3.989 3.959 7.38 8.514 10.030 13.521l0.146 0.303 114.496 66.272c1.92-10.496 2.88-21.12 2.848-31.808 0.128-46.816-16.512-84.16-49.92-112.096zM591.712 490.912c0.768 4.896 1.152 9.888 1.184 14.848 0.061 1.145 0.095 2.485 0.095 3.833 0 18.994-6.846 36.388-18.206 49.85l0.095-0.116c-6.892 7.626-15.699 13.395-25.667 16.559l-0.413 0.113 159.136 91.872 69.824-69.856-186.048-107.104z" />
<glyph unicode="&#xe92c;" glyph-name="aave" d="M512 960c282.784 0 512-229.216 512-512s-229.216-512-512-512-512 229.216-512 512 229.216 512 512 512zM519.776 736h-15.136c-18.944 0-33.248-10.976-42.912-33.344l-74.464-188.672h-56.352c-16.896-0.064-30.592-14.336-30.72-32v-0.448c0.128-17.696 13.824-31.968 30.72-32.032h30.272l-71.072-179.872c-1.289-3.656-2.058-7.874-2.112-12.263v-0.025c0-10.080 2.944-17.984 8.416-24.128 5.44-6.144 13.024-9.216 22.72-9.216 6.687 0.112 12.818 2.404 17.734 6.196l-0.070-0.052c5.44 3.936 9.248 9.664 12.16 16.224l78.272 203.136h54.272c16.864 0.064 30.56 14.368 30.72 32.032v0.864c-0.16 17.696-13.856 32-30.72 32.032h-29.024l59.712 155.744 162.784-423.776c2.944-6.56 6.72-12.288 12.192-16.224 5.152-3.904 11.328-6.080 17.696-6.144 9.664 0 17.248 3.072 22.72 9.216 5.44 6.144 8.384 14.048 8.384 24.128 0.015 0.361 0.024 0.785 0.024 1.211 0 3.988-0.773 7.795-2.176 11.28l0.072-0.203-171.2 433.024c-9.728 22.368-24 33.312-42.912 33.312z" />
<glyph unicode="&#xe92d;" glyph-name="abt" d="M512-64c-282.784 0-512 229.216-512 512s229.216 512 512 512 512-229.216 512-512-229.216-512-512-512zM208 624.416v-352.832l304-175.584 304 175.584v352.832l-304 175.584-304-175.584zM237.184 305.376v285.216l183.776-106.336-61.856-108.32-121.92-70.56zM251.808 280.064l117.248 67.84 129.216-74.016v-136.192l-246.464 142.368zM786.816 589.6v-283.2l-120.32 69.6-61.824 108.224 182.144 105.376zM773.056 615.456l-182.88-105.824-62.72 109.792v137.888l245.6-141.856zM579.552 469.696l36.896-64.736-74.4 43.040 37.504 21.696zM565.056 495.104l-37.6-21.76v87.68l37.6-65.92zM409.408 405.024l36.832 64.64 37.44-21.664-74.24-42.976zM398.336 364.832l99.936 57.824v-115.040l-99.936 57.184zM251.776 615.936l246.496 142.368v-138.688l-62.784-109.952-183.68 106.272zM773.056 280.544l-245.6-141.856v134.272l129.28 74.88 116.32-67.296zM627.52 364.768l-100.064-58.016v115.904l100.064-57.92zM460.736 495.040l37.536 65.824v-87.52l-37.536 21.696z" />
<glyph unicode="&#xe92e;" glyph-name="act" d="M512-64c-282.784 0-512 229.216-512 512s229.216 512 512 512 512-229.216 512-512-229.216-512-512-512zM440.64 752c-0.004 0-0.009 0-0.014 0-10.367 0-19.41-5.666-24.202-14.071l-0.072-0.137-220.992-394.208c-2.232-3.916-3.548-8.604-3.548-13.6s1.316-9.684 3.62-13.738l-0.072 0.138 70.72-126.144c4.853-8.549 13.89-14.226 24.254-14.24h443.33c10.378 0.002 19.429 5.682 24.216 14.102l0.072 0.138 70.688 126.144c2.232 3.916 3.548 8.604 3.548 13.6s-1.316 9.684-3.62 13.738l0.072-0.138-220.992 394.208c-4.864 8.542-13.907 14.208-24.274 14.208-0.005 0-0.010 0-0.015 0h-142.719zM512 595.168l148.896-265.184h-297.792l148.896 265.184z" />
<glyph unicode="&#xe92f;" glyph-name="actn" d="M512-64c-282.784 0-512 229.216-512 512s229.216 512 512 512 512-229.216 512-512-229.216-512-512-512zM140.992 265.248c-4.503-7.004-8.848-15.128-12.549-23.598l-0.443-1.138c0-1.152 4.608-1.152 9.44-1.152 10.88 0.96 21.536 3.296 31.808 6.976l14.112 3.52c16.254 7.12 30.183 15.015 43.187 24.139l-0.787-0.523 25.888 21.184c12.544 10.176 24 21.632 34.176 34.176l28.256 40.096c20.064 27.040 42.4 40 68.352 38.848 15.642 0.628 30.156 4.904 42.889 11.994l-0.489-0.25 73.024 47.104c8.023 4.968 14.951 10.031 21.465 15.566l-0.249-0.206c-3.523 8.993-7.895 16.763-13.178 23.811l0.186-0.259-14.112 23.52c-15.296 24.736-15.296 25.952-1.152 51.84l1.152 3.52c3.93 6.523 7.894 14.27 11.345 22.29l0.495 1.294c-0.186 12.342-1.926 24.198-5.033 35.488l0.233-0.992c-3.605-4.441-6.732-9.496-9.17-14.928l-0.174-0.432c-12.992-27.040-21.216-42.4-22.432-42.4-3.52 0-1.152 33.024 5.92 52.992l31.776 99.84c8.224 29.472 9.44 29.472 17.664 0l47.008-147.232c5.984-20.032 10.752-23.584 30.72-23.584h32.96c25.856 1.248 42.304-10.592 55.36-38.848 7.104-12.48 15.84-24 25.952-34.176l163.744-169.888c5.184-6.432 11.136-12.256 17.664-17.344v1.152c-4.032 7.2-8.32 14.272-12.896 21.184l-121.344 174.336c-9.28 13.312-19.552 25.92-30.72 37.696l-37.632 40c-10.263 10.44-24.348 17.094-39.986 17.693l-0.11 0.003h-9.376c-29.472 0-57.76 21.184-69.504 50.688l-51.84 128.416c-2.551 8.589-6.577 16.042-11.832 22.447l0.088-0.111c-6.112-6.304-11.296-13.44-15.36-21.184l-119.968-183.808c-3.753-7.501-11.377-12.561-20.183-12.561-4.282 0-8.285 1.196-11.692 3.273l0.099-0.056h-1.248c-11.904 7.040-23.648 3.52-30.72-9.472l-170.784-310.912z" />
<glyph unicode="&#xe930;" glyph-name="ada" d="M512-64c-282.784 0-512 229.216-512 512s229.216 512 512 512 512-229.216 512-512-229.216-512-512-512zM503.2 766.080c-12.48-4.864-15.68-22.624-5.952-31.616 9.184-9.376 27.104-6.080 31.84 6.176 8.16 15.072-10.56 33.344-25.92 25.472zM338.24 748.608c-12.96-3.392-14.4-23.488-1.824-28.288 9.504-5.12 22.976 2.848 21.984 13.664 0.96 10.016-10.848 18.4-20.16 14.624zM676.096 720.032c9.92-2.496 17.28 5.44 19.584 14.080-1.6 10.144-11.584 19.904-22.432 14.72-14.016-4.544-11.712-27.072 2.848-28.8zM375.776 679.552c-14.592-7.36-16.608-29.248-3.36-38.784 13.696-12.16 37.952-1.728 38.752 16.224 2.4 17.824-19.84 32.256-35.392 22.56zM613.536 669.248c-8.672-17.152 8.832-36.8 27.296-33.408 13.92 4.544 23.552 21.088 15.712 34.432-7.904 17.152-36.064 16.608-43.008-1.024zM483.328 636.832c-0.832-12.352 8.16-22.464 18.816-27.616 6.976-0.416 14.56-1.728 20.96 1.792 14.016 6.080 20.928 24.384 13.152 37.696-4.16 9.6-14.72 13.696-24.416 15.616-14.656-1.056-28.672-12.32-28.512-27.488zM238.016 614.752c-12.416-5.6-14.144-24.512-3.2-32.384 10.304-8.384 28.288-3.040 31.232 10.112 5.408 15.2-13.792 30.912-28.032 22.304zM764.8 614.816c-12.416-7.488-11.040-27.456 2.144-33.28 11.968-7.040 29.216 3.264 28.384 16.928 1.44 14.976-18.464 25.568-30.528 16.32zM552.32 587.584c-24.832-7.424-39.552-37.056-29.44-60.736 8.896-26.464 44.064-38.752 68.16-24.256 23.2 12.256 31.168 44.8 16.192 66.144-11.328 17.472-35.008 25.92-54.912 18.848zM435.424 585.248c-23.52-10.336-34.336-40.832-22.144-63.296 10.88-23.2 42.56-32.736 65.024-20.16 22.432 11.168 32.128 41.28 19.584 62.912-10.656 22.208-40.384 30.816-62.464 20.544zM318.4 545.92c-3.232-16.448 11.68-33.152 28.736-31.68 15.488-0.096 26.784 13.952 27.744 28.32-1.78 14.514-13.274 25.866-27.702 27.412l-0.138 0.012c-13.536-0.96-26.944-10.080-28.64-24.064zM664.064 566.912c-18.784-8.704-20.16-37.504-2.080-47.744 17.408-12.288 44.288 2.464 43.104 23.424 0.768 19.776-23.52 34.336-41.024 24.32zM387.904 493.088c-27.776-6.592-44.032-40.192-30.656-65.248 11.68-27.328 52.032-35.392 73.92-15.36 17.088 13.664 21.568 39.552 10.592 58.176-10.048 18.496-33.44 27.968-53.888 22.432zM609.568 493.184c-27.968-7.52-42.752-42.4-28.064-67.072 12.16-23.872 46.304-31.872 68.352-16.64 21.024 13.152 27.776 43.584 13.632 63.968-10.688 17.824-34.048 25.344-53.92 19.744zM256.288 469.952c-16.96-4.736-21.984-28.928-8.384-39.776 11.616-11.584 34.112-5.76 38.496 9.92 7.136 17.248-12.448 36.416-30.112 29.856zM735.296 444.928c2.944-6.72 6.496-13.76 13.44-17.216 14.848-8.032 35.808 3.584 34.688 20.704 0.96 12.992-10.816 22.592-22.912 24.48-14.112-0.82-25.246-12.465-25.246-26.71 0-0.443 0.011-0.883 0.032-1.32l-0.002 0.062zM169.408 461.44c-8.8-3.936-12.608-15.68-6.208-23.328 7.232-10.976 26.976-5.92 27.52 7.232 2.464 11.616-10.688 20.672-21.312 16.096zM839.776 461.728c-12.48-6.56-7.584-29.184 7.52-27.84 10.752-1.6 19.968 11.296 14.944 20.704-2.976 8.608-14.976 12.352-22.464 7.136zM445.632 398.592c-20.928-4.48-37.056-24.032-36.992-45.088-0.736-21.984 16.64-42.976 38.784-46.496 28.64-6.592 58.24 18.784 56.416 47.424-0.16 28.352-30.24 51.296-58.24 44.16zM556.416 398.624c-16.832-4.096-31.104-17.76-34.816-34.56-7.36-25.184 12.096-53.696 38.496-57.056 28.032-5.568 56.736 18.976 55.232 47.072 0.448 28.992-30.528 52.352-58.88 44.544zM342.784 381.184c-21.216-2.112-32.416-30.176-17.44-45.504 12.8-16 41.728-10.688 47.552 8.896 7.968 18.336-10.464 39.904-30.080 36.608zM667.712 380.32c-21.152-6.624-24.704-38.4-5.28-49.152 17.12-12.032 43.68 2.176 42.976 22.752 1.344 18.72-20.16 33.6-37.696 26.4zM758.528 290.72c4.64-12.736 24-15.776 32.544-5.12 6.304 5.728 4.736 14.624 3.808 22.080-4.512 4.608-9.472 10.080-16.544 9.952-14.208 2.336-26.656-14.336-19.808-26.912zM237.952 314.144c-12.64-6.336-13.088-26.144-0.864-33.088 11.392-7.68 28.672 0.032 30.24 13.536 3.008 15.264-16.096 28.224-29.376 19.52zM500.128 285.888c-20.928-6.624-24.064-38.176-5.216-48.896 16.992-12.48 44.384 1.92 43.072 22.72 1.664 18.816-20.48 33.696-37.856 26.176zM378.72 258.016c-10.432-3.84-14.688-15.168-14.88-25.312 3.584-9.312 10.816-19.136 21.92-19.36 13.44-1.984 26.688 9.408 26.24 22.784 1.344 16.32-18.496 29.536-33.28 21.888zM624.672 257.76c-14.848-7.456-16.512-29.984-2.816-39.36 14.176-11.968 38.624-0.32 38.24 17.92 1.44 17.408-20.192 30.72-35.424 21.44zM667.456 153.76c6.944-11.712 27.2-7.552 28.512 6.080 1.856 10.112-7.488 16.64-16.32 18.4-11.008-2.304-18.976-14.432-12.192-24.512zM327.904 162.496c0.96-11.488 13.696-21.44 24.64-14.176 12.192 6.4 8.064 27.040-5.856 28-9.568 2.080-16.096-5.856-18.784-13.824zM491.744 153.312c-4.896-11.936 6.816-26.368 19.776-24.864 6.976-0.16 12.384 4.736 16.576 9.6 0.8 3.296 1.632 6.624 2.56 9.92-1.728 6.336-3.712 13.76-10.496 16.64-10.24 6.272-25.76 0.512-28.448-11.296z" />
<glyph unicode="&#xe931;" glyph-name="add" d="M512-64c-282.784 0-512 229.216-512 512s229.216 512 512 512 512-229.216 512-512-229.216-512-512-512zM799.488 395.808h-157.696l-28.16 84.48h185.6c13.219 0 23.936 10.717 23.936 23.936s-10.717 23.936-23.936 23.936h-200.832l-80.544 245.536c-2.208 17.043-16.631 30.074-34.099 30.074-16.67 0-30.567-11.868-33.705-27.615l-0.036-0.219-192.64-585.696c-0.512-3.2-0.512-6.4 0-9.6 0.311-17.645 14.689-31.83 32.379-31.83 14.888 0 27.43 10.047 31.215 23.731l0.054 0.228 161.632 492.8 46.176-137.408h-40c-13.219 0-23.936-10.717-23.936-23.936s10.717-23.936 23.936-23.936h56.32l28.16-84.48h-84.48c-13.219 0-23.936-10.717-23.936-23.936s10.717-23.936 23.936-23.936h101.12l45.6-135.168h-241.888c-18.663 0-33.792-15.129-33.792-33.792s15.129-33.792 33.792-33.792h286.112c17.728 0 32.096 14.368 32.096 32.096 0 0.034 0 0.075 0 0.116 0 5.070-1.145 9.872-3.19 14.163l0.085-0.199-51.52 156.576h140.8c13.219 0 23.936 10.717 23.936 23.936s-10.717 23.936-23.936 23.936h1.408z" />
<glyph unicode="&#xe932;" glyph-name="adx" d="M512-64c-282.784 0-512 229.216-512 512s229.216 512 512 512 512-229.216 512-512-229.216-512-512-512zM370.784 684.736l-82.784-88.256 139.52-147.648-139.52-150.592 82.784-86.944 141.216 147.36 137.76-147.328 86.24 89.376-140.672 147.328 140.672 148.448-86.24 88.224-137.76-147.36-141.216 147.392zM382.144 696.768l68.032-72.48 61.248 67.648 61.248-67.648 68.032 72.48-129.28 135.232-129.28-135.232zM382.144 199.232l129.28-135.232 129.28 135.232-68.032 72.48-61.248-67.648-61.248 67.648-68.032-72.48z" />
<glyph unicode="&#xe933;" glyph-name="ae" d="M512-64c-282.784 0-512 229.216-512 512s229.216 512 512 512 512-229.216 512-512-229.216-512-512-512zM312.064 608c-79.136-5.568-146.912-71.296-152.064-147.872v-25.12c5.44-76.736 74.144-141.696 153.184-147.008h25.696c62.72 5.504 115.456 45.28 153.472 91.584-9.28 13.6-18.656 27.168-28.288 40.512-24.448-36.096-56.32-70.144-99.264-85.12-38.656-14.016-83.52-5.024-115.68 19.072-42.944 30.4-58.56 89.376-39.36 136.928 21.824 57.728 95.040 91.712 154.976 69.984 48.48-17.632 78.4-61.28 107.712-100.096 34.048-43.904 62.208-93.216 106.080-129.152 30.208-25.664 68.992-40.512 108.896-43.712h23.872c64.832 5.76 124.128 49.088 144.48 109.344-4.122 0.032-8.998 0.050-13.877 0.050-10.748 0-21.476-0.088-32.182-0.263l1.612 0.021c-29.056-59.328-111.776-88.032-170.912-52.928-81.824 48.544-117.152 140.608-181.44 205.824-30.976 31.68-72.768 53.664-117.984 57.952h-28.928zM685.824 608c-63.168-5.856-115.52-46.496-153.056-93.472 8.8-13.024 17.888-25.888 27.040-38.624 23.776 34.4 54.624 66.592 95.584 81.28 51.392 19.52 115.68 1.12 146.080-43.84 12.48-17.216 17.28-38.048 20.928-58.4-51.968-0.32-103.904 0-155.936-0.128 0.064-11.52 0.064-22.944 0-34.464 65.824 0.064 131.712-0.32 197.536 0.288v39.36c-6.56 76.704-74.4 142.976-154.176 148h-24z" />
<glyph unicode="&#xe934;" glyph-name="aeon" d="M512-64c-282.784 0-512 229.216-512 512s229.216 512 512 512 512-229.216 512-512-229.216-512-512-512zM862.88 489.28c-10.496 94.848-176.32 153.536-370.24 131.040-193.92-22.464-342.592-117.6-332.096-212.48 10.528-94.848 176.224-153.504 370.24-131.040 194.080 22.496 342.624 117.632 332.096 212.48zM660 441.792c-19.648-14.016-48.288-20.928-85.888-21.088l-36.512-0.128-1.12-5.216c-0.315-1.047-0.512-2.254-0.544-3.502v-0.018c-0.16-0.736-0.16-1.44-0.16-2.016 0-8.064 3.744-13.984 11.072-17.92 7.36-4.128 18.24-6.080 32.512-6.080 13.536 0 26.56 1.536 38.848 4.352 12.16 2.848 23.936 7.072 35.136 12.736l-9.28-49.76c-13.952-3.392-27.36-6.080-40.64-7.776-11.544-1.745-24.916-2.778-38.516-2.848h-0.076c-17.696 0-32.352 2.144-44.128 6.656-12.16 4.672-25.728 14.848-32.48 29.408-12.145-11.596-26.329-21.19-41.938-28.168l-0.942-0.376c-13.655-5.988-29.57-9.472-46.299-9.472-0.069 0-0.139 0-0.208 0h0.011c-20.16-0.16-36.096 4.8-47.424 14.56-11.488 9.728-17.152 23.328-17.28 40.416-0.16 26.304 9.664 46.24 29.184 60.096 19.616 13.984 48.256 20.896 85.888 21.056l36.48 0.128 1.12 5.248c0.325 1.044 0.532 2.249 0.575 3.497l0.001 0.023c0.128 0.704 0.128 1.408 0.128 1.984 0 8.064-3.744 13.984-11.072 17.952-7.328 4.096-18.24 6.080-32.512 6.080-13.536 0-26.56-1.568-38.848-4.384-12.16-2.816-23.936-7.040-35.136-12.736l9.28 49.76c13.952 3.392 27.36 6.080 40.64 7.776 11.544 1.745 24.916 2.778 38.516 2.848h0.076c17.728 0 32.384-2.144 44.16-6.656 12.16-4.672 25.696-14.848 32.48-29.408 12.144 11.609 26.328 21.212 41.939 28.199l0.941 0.377c13.655 5.988 29.57 9.472 46.299 9.472 0.058 0 0.116 0 0.174 0h-0.009c20.192 0.128 36.096-4.8 47.424-14.56 11.52-9.76 17.152-23.36 17.28-40.448 0.16-26.144-9.504-46.208-29.152-60.064zM447.968 437.696c-15.904 0-27.936-2.688-36.256-7.776-8-4.96-12.032-12.48-12.032-22.336 0-7.36 2.496-13.312 7.2-17.536 4.832-4.256 11.616-6.368 20.064-6.368 13.12 0 24.064 4.096 32.768 12.16 8.736 8.192 14.656 19.648 17.6 34.336l1.344 7.52h-30.72zM616.416 507.104c-4.832 4.224-11.616 6.336-20.032 6.336-13.152 0-24.096-4.096-32.8-12.16-8.704-8.192-14.656-19.648-17.568-34.336l-1.376-7.488 30.72 0.128c15.904 0 27.936 2.688 36.224 7.776 8 4.96 12.032 12.448 12.032 22.336 0 7.36-2.336 13.152-7.2 17.408zM528.736 265.504c-28.064-3.264-55.872-4.8-82.848-4.8-64.192 0-124.192 9.024-174.144 26.72-22.514 7.841-41.963 17.387-60.011 28.933l1.131-0.677c-6.816-35.776-2.24-67.296 15.328-90.752 50.464-67.424 191.68-45.952 331.392 44.8-10.24-1.536-20.48-2.944-30.848-4.224zM495.968 630.208c94.72 11.040 186.016 3.264 256.96-21.888 22.538-7.846 42.008-17.403 60.074-28.964l-1.13 0.676c6.752 35.776 2.208 67.296-15.36 90.752-50.496 67.424-191.68 45.952-331.392-44.8 10.24 1.696 20.608 3.104 30.848 4.224zM392.928 183.488c-16.616-4.154-35.931-6.932-55.756-7.726l-0.564-0.018c14.272-37.76 36.544-64.192 65.984-74.080 71.104-23.904 163.072 54.4 228.224 184.064-15.36-4.256-31.264-8.064-47.296-11.328-63.648-44.96-130.016-76.768-190.592-90.88zM636.064 713.216c16.654 4.090 35.986 6.781 55.825 7.474l0.495 0.014c-14.144 37.76-36.256 64.32-65.728 74.336-70.944 24.192-163.328-53.696-228.896-182.912 15.36 4.224 31.264 7.904 47.424 11.008 63.648 44.8 130.176 76.224 190.88 90.080z" />
<glyph unicode="&#xe935;" glyph-name="aeur" d="M512-64c-282.784 0-512 229.216-512 512s229.216 512 512 512 512-229.216 512-512-229.216-512-512-512zM510.464 352.448c0.442-0.003 0.965-0.005 1.488-0.005s1.046 0.002 1.569 0.005h-0.081c0.058-0.13 0.103-0.281 0.127-0.438l0.001-0.010c-0.113-0.764-0.765-1.344-1.552-1.344-0.866 0-1.568 0.702-1.568 1.568 0 0.079 0.006 0.157 0.017 0.233l-0.001-0.009zM318.016 464.224c-18.888-32.123-30.045-70.759-30.045-112 0-123.588 100.188-223.776 223.776-223.776 0.010 0 0.020 0 0.030 0h-0.001c123.522 0.164 223.612 100.254 223.776 223.76v0.016c0 0.095 0 0.207 0 0.319 0 41.171-11.171 79.733-30.648 112.82l0.568-1.043c18.853 32.099 29.988 70.7 29.988 111.902 0 123.588-100.188 223.776-223.776 223.776s-223.776-100.188-223.776-223.776c0-41.241 11.156-79.875 30.615-113.051l-0.571 1.054zM513.536 576c-0.461 0.003-1.006 0.005-1.552 0.005s-1.091-0.002-1.636-0.006h0.084c0 0.010 0 0.021 0 0.032 0 0.866 0.702 1.568 1.568 1.568 0 0 0 0 0 0v0c0.837-0.091 1.494-0.759 1.568-1.593v-0.007z" />
<glyph unicode="&#xe936;" glyph-name="agi" d="M512-64c-282.784 0-512 229.216-512 512s229.216 512 512 512 512-229.216 512-512-229.216-512-512-512zM548.608 754.432c16.064-15.456 30.592-32.32 43.392-50.432 13.73-23.248 21.842-51.229 21.842-81.105 0-32.567-9.639-62.883-26.221-88.249l0.379 0.618c-1.759-2.923-2.8-6.452-2.8-10.223 0-4.991 1.822-9.557 4.838-13.067l-0.022 0.027c6.848-9.28 19.968-11.84 29.984-5.824 38.016 31.040 40 96.96 42.016 110.56-0.049 14.531-2.244 28.53-6.285 41.723l0.269-1.019c-4.631 14.201-10.049 26.391-16.536 37.899l0.536-1.035c-6.505 11.992-14.504 22.236-23.924 30.97l-0.076 0.070c-16.64 17.075-36.587 30.836-58.819 40.259l-1.181 0.445c-1.415 0.924-3.147 1.473-5.008 1.473s-3.593-0.55-5.044-1.495l0.036 0.022c-0.703-1.249-1.117-2.743-1.117-4.333 0-2.99 1.464-5.638 3.715-7.265l0.026-0.018zM489.6 159.808c-16.32 15.392-31.040 32.32-44 50.432-13.724 23.245-21.832 51.219-21.832 81.088 0 32.561 9.636 62.871 26.211 88.235l-0.379-0.619c2.807 3.058 4.527 7.152 4.527 11.648s-1.72 8.59-4.539 11.661l0.011-0.013c-4.214 5.546-10.814 9.091-18.242 9.091-4.349 0-8.414-1.215-11.874-3.324l0.101 0.057c-37.984-31.040-40-96.96-41.984-110.56 0-13.76 2.048-27.52 6.016-40.736 4.096-12.736 9.44-25.088 16-36.832 6.176-11.552 14.272-22.048 24-31.040 16.638-17.087 36.586-30.858 58.82-40.291l1.18-0.445c1.984-1.92 5.984 0 8 1.92s1.984 5.856-2.016 9.728zM662.208 319.808c-3.112 38.885-18.484 73.682-42.201 101.051l0.185-0.219c-24.114 24.232-51.775 44.903-82.147 61.173l-1.853 0.907c-28.82 16.072-53.698 33.473-76.638 53.076l0.638-0.532c-18.811 17.71-32.274 40.907-37.833 67.027l-0.151 0.845c-1.336 7.153-2.1 15.382-2.1 23.79 0 20.129 4.38 39.235 12.24 56.417l-0.347-0.848c13.91 28.396 32.838 52.297 55.847 71.464l0.345 0.28c1.71 1.53 2.782 3.745 2.782 6.209 0 1.265-0.282 2.464-0.787 3.538l0.021-0.051c-1.351 2.382-3.87 3.963-6.758 3.963-2.024 0-3.867-0.777-5.247-2.048l0.005 0.005c-32.392-14.363-58.911-36.994-77.603-65.255l-0.413-0.665c-17.978-25.548-28.733-57.309-28.733-91.582 0-4.63 0.196-9.214 0.581-13.745l-0.040 0.591c1.745-20.006 6.732-38.433 14.445-55.356l-0.429 1.052c8.817-17.831 19.497-33.162 32.104-46.673l-0.104 0.113c24.669-23.602 52.999-43.663 83.993-59.192l1.991-0.904c27.136-14.080 52.64-31.008 76-50.432 19.983-17.597 33.773-41.809 37.936-69.185l0.080-0.639c5.632-28.128 2.112-57.28-10.016-83.392-14.085-28.050-33.678-51.421-57.524-69.467l-0.492-0.357c-2.001-1.165-3.324-3.3-3.324-5.744 0-1.489 0.491-2.863 1.321-3.97l-0.012 0.017c1.12-2.048 3.2-3.52 5.536-3.872s4.768 0.32 6.496 1.92c30.218 17.65 55.513 40.363 75.528 67.241l0.472 0.663c19.84 30.656 28.992 66.688 26.208 102.784z" />
<glyph unicode="&#xe937;" glyph-name="agrs" d="M512-64c-282.784 0-512 229.216-512 512s229.216 512 512 512 512-229.216 512-512-229.216-512-512-512zM632.16 405.312c71.872 112.608 127.84 298.688 127.84 298.688l-119.84-27.168-43.872-155.2c-4.128 116.352-83.904 158.944-83.904 158.944-63.904 31.136-120.864 17.44-161.92-3.968-50.816-26.432-87.776-72.512-105.472-125.568-25.152-75.488-22.080-160.192-18.752-198.528 1.344-17.984 5.312-35.68 11.84-52.576 44.096-114.336 166.24-107.84 166.24-107.84 111.904 3.968 179.904 135.744 179.904 135.744l32.064-96.896c28.736-48.608 92.384-30.4 105.472-27.68 2.304 0.512 4.352 0.768 6.688 1.28l71.552 10.912v31.136c-155.776-4.224-167.84 158.688-167.84 158.688zM480.512 288.224c-9.38-9.607-21.268-16.725-34.606-20.295l-0.53-0.121c-29.024-7.232-51.328 4.96-66.72 19.904-16.686 16.845-28.654 38.39-33.743 62.474l-0.145 0.822c-28.224 159.68 10.784 229.664 36.704 261.824 13.348 16.934 33.86 27.706 56.888 27.706 1.016 0 2.027-0.021 3.032-0.062l-0.144 0.005c100.608-5.248 123.2-215.744 123.2-215.744-28.48-74.72-65.184-118.080-83.936-136.512z" />
<glyph unicode="&#xe938;" glyph-name="aion" d="M512-64c-282.784 0-512 229.216-512 512s229.216 512 512 512 512-229.216 512-512-229.216-512-512-512zM511.072 219.2c126.624 0 229.632 102.368 229.632 228.16 0 125.824-103.008 228.16-229.632 228.16s-229.632-102.336-229.632-228.16c0-125.792 103.040-228.16 229.632-228.16zM511.072 630.848c101.824 0 184.64-82.304 184.64-183.488 0-101.152-82.816-183.456-184.64-183.456-101.792 0-184.64 82.304-184.64 183.456 0 101.184 82.848 183.488 184.64 183.488zM671.872 708.128l23.552 38.080c-52.42 32.43-115.982 51.648-184.032 51.648-0.101 0-0.202 0-0.303 0h0.016c-59.968 0-119.168-15.232-171.2-44l21.856-39.072c43.039 24.127 94.452 38.336 149.184 38.336 0.045 0 0.090 0 0.136 0h-0.007c56.96 0 112.544-15.552 160.8-44.992zM738.912 179.808c76.55 64.473 124.853 160.371 124.864 267.55v0.002h-44.992c-0.019-93.507-42.169-177.167-108.5-233.030l-0.46-0.378 29.088-34.144zM511.072 96.928c56.384 0 112.512 13.536 162.24 39.168l-20.736 39.68c-40.8-21.536-89.171-34.178-140.495-34.178-0.355 0-0.71 0.001-1.064 0.002h0.055c-74.565 0.010-142.964 26.401-196.374 70.347l0.534-0.427-28.672-34.432c60.614-49.901 139.026-80.167 224.507-80.192h0.005zM811.232 530.4l36.096 9.92c-14.096 49.694-37.499 92.795-68.415 129.335l0.415-0.503-28.8-23.84c27.22-32.143 48.11-70.585 60.176-112.754l0.528-2.158zM219.52 256.768l31.296 20.48c-32.098 47.726-51.232 106.495-51.232 169.734 0 0.133 0 0.266 0 0.399v-0.021c-0.001 0.269-0.001 0.588-0.001 0.907 0 87.104 36.389 165.709 94.793 221.443l0.12 0.114-26.048 26.784c-65.569-62.579-106.337-150.653-106.337-248.25 0-0.351 0.001-0.702 0.002-1.053v0.054c0-68.064 19.84-133.984 57.376-190.592z" />
<glyph unicode="&#xe939;" glyph-name="algo" d="M512 960c282.784 0 512-229.216 512-512s-229.216-512-512-512-512 229.216-512 512 229.216 512 512 512zM610.976 736h-76.8l-1.792-2.688-145.536-251.968-73.184-127.104-73.664-127.552h88l73.696 127.552 73.632 127.104 73.216 127.552 12.16 20.224 5.344-20.224 22.464-83.968-25.152-43.584-73.632-127.104-73.216-127.552h88l111.84 193.568 17.984-66.016 34.112-127.552h79.040l-34.112 127.552-34.144 127.104-8.96 32.8 54.784 94.752h-79.936l-2.72 9.44-27.84 104.192-3.584 13.472z" />
<glyph unicode="&#xe93a;" glyph-name="amb" d="M512-64c-282.784 0-512 229.216-512 512s229.216 512 512 512 512-229.216 512-512-229.216-512-512-512zM864 447.52l-0.032 0.448v0.736c0 0.224 0 0.48-0.064 0.704v0.032c-0.185 2.222-0.78 4.265-1.708 6.112l0.044-0.096-0.096 0.16-0.192 0.384c-4.448 8.16-111.68 200-349.952 200s-345.504-191.808-349.984-200c-0.010-0.008-0.074-0.134-0.137-0.261l-0.055-0.123-0.064-0.128c-0.909-1.757-1.525-3.81-1.723-5.983l-0.005-0.065-0.032-0.736v-1.44c0.122-2.694 0.866-5.19 2.091-7.38l-0.043 0.084c4.448-8.16 111.744-199.968 349.984-199.968s345.504 191.808 349.952 199.968c1.169 2.109 1.902 4.605 2.015 7.262l0.001 0.034v0.256zM828.48 448c-17.856-27.776-84.64-119.904-205.536-158.080l2.816 2.080c2.201 1.638 3.611 4.233 3.611 7.156 0 3.614-2.155 6.725-5.251 8.117l-0.056 0.023c-1.003 0.441-2.173 0.698-3.402 0.698-2.007 0-3.854-0.684-5.321-1.832l0.019 0.014c-21.248-16-45.824-26.88-71.84-31.744-9.431-0.821-20.405-1.29-31.488-1.29s-22.057 0.468-32.903 1.386l1.415-0.096c-69.888 12.896-124.864 67.84-138.624 138.56 4.896 3.532 8.046 9.22 8.046 15.644 0 2.463-0.463 4.818-1.307 6.983l0.045-0.131c-3.136 8.192-11.36 13.184-19.968 12.064s-15.296-8.064-16.288-16.8 4.064-16.992 12.192-20.032c9.508-49.833 37.051-91.98 75.436-120.266l0.532-0.374c-120.608 38.24-187.264 130.176-205.088 157.92 18.016 27.968 85.6 121.184 208.16 158.848-1.271-0.879-2.032-1.426-2.788-1.979l0.452 0.315c-2.21-1.638-3.626-4.237-3.626-7.167 0-0.972 0.156-1.908 0.444-2.784l-0.018 0.063c1.152-3.55 4.43-6.071 8.296-6.071 1.88 0 3.62 0.596 5.043 1.609l-0.027-0.018c21.826 15.946 48.213 26.987 76.858 30.969l0.902 0.103c0.6 0.074 1.141 0.198 1.661 0.369l-0.061-0.017c6.336 0.386 13.742 0.606 21.2 0.606s14.865-0.22 22.214-0.654l-1.014 0.048c0.459-0.155 1-0.278 1.558-0.348l0.042-0.004c72.064-9.6 130.56-64.512 146.368-135.648-3.761-3.519-6.104-8.513-6.104-14.055 0-3.338 0.85-6.478 2.347-9.214l-0.050 0.1c3.177-6.046 9.414-10.098 16.597-10.098 10.321 0 18.688 8.367 18.688 18.688 0 0.31-0.008 0.619-0.023 0.925l0.002-0.043c-0.111 8.842-6.252 16.218-14.494 18.213l-0.13 0.027c-11.201 48.302-39.201 88.742-77.377 115.752l-0.607 0.408c122.752-37.568 190.464-130.976 208.48-158.944zM666.24 447.456c0 86.336-69.184 156.512-154.24 156.512s-154.24-70.208-154.24-156.512 69.216-156.576 154.24-156.576 154.24 70.24 154.24 156.544zM648.832 447.456c0-76.576-61.376-138.88-136.832-138.88s-136.864 62.304-136.864 138.88 61.44 138.848 136.864 138.848 136.832-62.304 136.832-138.88zM562.432 490.432c0 23.84-16.608 44.352-39.68 48.96-23.040 4.64-46.080-7.904-55.040-29.952s-1.28-47.456 18.336-60.608l-13.696-84.064c-0.134-0.617-0.211-1.326-0.211-2.053 0-5.567 4.513-10.080 10.080-10.080 0.108 0 0.216 0.002 0.323 0.005h61.424c6.688 0 11.2 5.44 10.112 12.128l-13.728 84.032c13.792 9.248 22.080 24.864 22.080 41.6zM701.536 425.056c0.041 0.317 0.064 0.684 0.064 1.057 0 4.826-3.885 8.745-8.698 8.799h-0.005c-4.473-0.040-8.143-3.422-8.636-7.768l-0.004-0.040c-4.364-38.013-20.271-71.674-44.075-98.077l0.139 0.157c-0.565 0.129-1.214 0.203-1.88 0.203-4.878 0-8.832-3.954-8.832-8.832s3.954-8.832 8.832-8.832c2.546 0 4.84 1.077 6.452 2.8l0.005 0.005c0.547-0.123 1.176-0.194 1.822-0.194 2.586 0 4.907 1.136 6.49 2.937l0.008 0.010c26.036 28.89 43.532 65.94 48.237 106.882l0.083 0.894zM385.696 580.832c-1.55 1.492-3.661 2.411-5.987 2.411-2.499 0-4.751-1.061-6.328-2.757l-0.005-0.005c-26.139-27.899-44.134-63.721-50.016-103.49l-0.128-1.054c-0.062-0.394-0.098-0.849-0.098-1.312 0-4.845 3.901-8.778 8.733-8.831h0.005c4.32 0 7.968 3.2 8.608 7.552 5.46 37.084 21.801 69.626 45.627 95.074l-0.091-0.098c1.487 1.586 2.4 3.725 2.4 6.078 0 2.513-1.042 4.782-2.717 6.4l-0.003 0.002z" />
<glyph unicode="&#xe93b;" glyph-name="amp" d="M512-64c-282.784 0-512 229.216-512 512s229.216 512 512 512 512-229.216 512-512-229.216-512-512-512zM265.696 577.376c-29.664 0-48.32-14.272-55.872-42.784-1.152-8.736-0.736-17.6 1.312-26.624s5.536-17.184 10.464-24.448c4.96-7.264 11.36-12.96 19.2-17.024 7.872-4.064 17.344-5.824 28.384-5.248 31.688-0.785 60.059-14.354 80.27-35.722l0.050-0.054c20.487-19.911 33.199-47.728 33.199-78.514 0-0.635-0.005-1.269-0.016-1.901l0.001 0.095c0-16.32 5.664-30.144 17.024-41.504 11.36-11.328 25.184-17.024 41.472-17.024 15.68 0 29.248 5.696 40.576 17.024 11.36 11.36 17.024 25.184 17.024 41.472 0.001 0.125 0.002 0.273 0.002 0.42 0 15.328-6.158 29.218-16.136 39.33l0.006-0.006c-9.682 10.639-23.426 17.434-38.763 17.918l-0.085 0.002c-30.848-0.608-58.784 10.176-83.84 32.288-22.688 22.080-34.624 49.76-35.776 82.944-1.152 32 10.176 59.936 34.048 83.84 23.872 23.84 52.384 35.2 85.568 34.016 15.422 0.486 29.166 7.281 38.808 17.876l0.040 0.044c9.98 10.249 16.134 24.266 16.134 39.72 0 0.301-0.002 0.601-0.007 0.901l0.001-0.045c0 15.712-5.664 29.248-17.024 40.608-10.101 10.503-24.273 17.027-39.969 17.027-0.213 0-0.427-0.001-0.64-0.004h0.032c-16.32 0-30.112-5.664-41.472-17.024-10.503-10.101-17.028-24.273-17.028-39.969 0-0.225 0.001-0.449 0.004-0.673v0.034c0-30.848-11.072-58.208-33.184-82.080-22.72-22.688-49.472-34.336-80.32-34.912h-3.488zM266.496 402.752c-16.32 0-30.112-5.696-41.472-17.024-10.503-10.101-17.028-24.273-17.028-39.969 0-0.225 0.001-0.449 0.004-0.673v0.034c0-16.896 5.952-31.008 17.92-42.336 10.31-10.051 24.416-16.251 39.97-16.251 1.136 0 2.265 0.033 3.384 0.098l-0.155-0.007c31.692-0.793 60.064-14.374 80.269-35.754l0.051-0.054c22.080-22.112 33.152-49.184 33.152-81.184 0-15.712 5.536-29.248 16.608-40.608 11.040-11.36 24.448-17.024 40.16-17.024h1.728c15.712 0 29.248 5.664 40.608 17.024s17.024 24.896 17.024 40.608c0 32 11.040 59.072 33.184 81.184 21.504 22.72 48.576 34.656 81.184 35.808h2.624c29.088 0 47.68 14.56 55.872 43.648 4.064 17.472 0.576 34.048-10.496 49.76-11.040 16.32-27.072 23.872-48 22.72-31.424 0.576-58.496 12.224-81.184 34.912-21.472 23.168-32.544 49.632-33.152 79.36l0.032 2.72c0 31.456 11.072 58.24 33.184 80.32 20.252 21.446 48.624 35.038 80.175 35.837l0.145 0.003c33.184 0.544 61.408-10.784 84.672-34.080 23.872-24.448 35.52-52.672 34.944-84.672 0.576-15.744 6.528-28.96 17.888-39.744 10.253-9.999 24.283-16.166 39.753-16.166 0.289 0 0.578 0.002 0.867 0.006l-0.044-0.001c15.744 0 29.248 5.696 40.64 17.024 11.328 11.36 16.992 25.184 16.992 41.472 0 16.32-6.080 30.144-18.336 41.472-12.224 11.36-26.176 16.736-41.92 16.16-31.392 0.576-58.464 12.224-81.184 34.912-22.080 23.872-33.152 51.232-33.152 82.080v6.976c0 0.608-0.32 1.184-0.896 1.76v2.624c0 0.576-0.288 1.152-0.864 1.728v2.624l-0.864 0.896v1.728l-0.448 0.448c-0.288 0.288-0.416 0.704-0.416 1.28v0.896c-0.608 0-0.896 0.576-0.896 1.76l-1.312 1.312c-0.288 0.288-0.416 0.704-0.416 1.28v0.896c-0.576 0-0.896 0.288-0.896 0.864l-0.416 0.448c-0.32 0.288-0.448 0.704-0.448 1.28h-0.864v0.896l-0.864 0.864v1.792l-0.896 0.864-1.312 1.312c-0.288 0.288-0.416 0.736-0.416 1.28l-0.864 0.896c-0.608 0-0.896 0.32-0.896 0.864l-0.416 0.448c-0.32 0.32-0.448 0.736-0.448 1.312h-0.864v0.864c-0.608 0-0.896 0.32-0.896 0.864l-0.864 0.896c-0.576 0-1.152 0.288-1.728 0.864l-0.896 0.864h-0.864v0.896c-0.576 0-0.864 0.288-0.864 0.864-1.184 0-1.76 0.32-1.76 0.864h-0.864v0.896l-0.896 0.864c-1.152 0-1.728 0.288-1.728 0.864h-0.864l-0.896 0.864c-0.576 0-0.992 0.16-1.28 0.448-0.151 0.151-0.297 0.297-0.443 0.443l-0.869 0.869h-0.896v0.864h-1.728l-0.896 0.896c-0.576 0-1.152 0.288-1.728 0.864h-1.76l-0.864 0.864h-1.76l-0.864 0.864h-1.728c-0.608 0-1.024 0.16-1.312 0.448l-0.448 0.448h-1.728c-0.608 0-1.024 0.128-1.312 0.416l-0.448 0.448h-18.336c0-0.576-0.288-0.864-0.864-0.864h-2.624l-0.864-0.896h-2.624l-0.864-0.864h-1.76l-0.864-0.864h-1.76v-0.864h-1.728l-0.896-0.896h-0.864v-0.864h-1.76l-0.864-0.864h-0.864c0-0.608-0.32-0.896-0.864-0.896-0.608 0-0.896-0.288-0.896-0.864h-0.864l-0.864-0.864-0.896-0.864c-0.576 0-0.864-0.32-0.864-0.896h-1.728v-0.864l-0.896-0.864c-0.576 0-0.864-0.32-0.864-0.896h-1.76l-0.864-0.864c0-0.576-0.288-0.864-0.864-0.864v-0.896h-0.864v-0.864l-0.896-0.864c-0.576 0-0.864-0.32-0.864-0.864l-0.864-0.896-0.896-0.864c-8.114-9.29-13.068-21.52-13.088-34.908v-0.004c0.576-32.608-11.040-60.832-34.912-84.704-22.4-22.368-48.576-33.728-78.624-34.112-0.682 0.025-1.483 0.040-2.288 0.040s-1.606-0.014-2.403-0.043l0.115 0.003-1.472 0.064c-1.28-0.096-2.56-0.224-3.84-0.416-13.524-1.46-25.404-7.55-34.227-16.627l-0.013-0.013c-10.503-10.101-17.027-24.273-17.027-39.969 0-0.213 0.001-0.427 0.004-0.64v0.032c0-15.712 5.408-29.248 16.16-40.608 10.046-11.016 24.459-17.901 40.48-17.901 0.416 0 0.832 0.005 1.246 0.014l-0.062-0.001h0.768c30.528-0.256 57.28-11.328 80.224-33.184 21.976-20.23 35.722-49.109 35.808-81.2v-0.016c0.576-32.576-10.784-60.512-34.048-83.808-22.72-23.264-49.76-34.912-81.184-34.912h-2.624c-32 0-59.392 11.648-82.080 34.912-22.72 23.872-33.76 51.808-33.152 83.84-0.548 15.539-7.321 29.395-17.886 39.233l-0.034 0.031c-10.021 10.252-23.989 16.609-39.441 16.609-0.095 0-0.19 0-0.285-0.001h0.015z" />
<glyph unicode="&#xe93c;" glyph-name="ampl" d="M512 960c282.784 0 512-229.216 512-512s-229.216-512-512-512-512 229.216-512 512 229.216 512 512 512zM530.656 760c-9.024-2.336-17.728-4.8-26.56-7.264-0.544-1.28-1.088-2.528-1.568-3.776-55.634-152.107-80.338-213.518-105.484-274.7l32.3 88.78-78.688-194.944-23.040-56.64c-3.808-9.28-8.128-18.432-12.992-27.296-3.735-6.936-7.745-12.907-12.261-18.449l0.165 0.209c-6.636-8.017-15.158-14.245-24.898-18.034l-0.414-0.142c-1.274-0.529-3.303-1.247-5.358-1.904l-0.754-0.208c-7.552-2.24-15.2-4.032-22.944-5.344-2.959-0.344-5.627-0.906-8.201-1.686l0.329 0.086c-0.416-7.552-0.384-15.136 0.064-22.688v0.032h182.112c0.748 0.084 1.401 0.197 2.041 0.343l-0.121-0.023c0.112 0.33 0.202 0.72 0.253 1.121l0.003 0.031v19.776c-0.065 0.571-0.189 1.090-0.367 1.584l0.015-0.048-1.504 0.256c-6.976 1.088-13.984 2.048-20.928 3.296-7.082 1.161-13.329 2.785-19.338 4.912l0.778-0.24c-4.028 1.375-7.523 3.185-10.688 5.43l0.128-0.086c-4.813 3.437-8.112 8.728-8.854 14.809l-0.010 0.103c-0.199 1.625-0.312 3.506-0.312 5.414 0 2.916 0.265 5.77 0.772 8.539l-0.044-0.289c1.126 7.561 2.788 14.284 5.010 20.746l-0.242-0.81c5.536 16.96 11.2 33.984 17.12 50.88 14.72 42.112 30.528 83.872 46.304 125.632 21.408 56.416 42.88 112.8 63.040 169.6 0.191 0.717 0.454 1.345 0.788 1.926l-0.020-0.038c0.32 0.352 0.864 0.544 1.28 0.8 1.28-1.12 1.44-2.528 1.888-3.776 41.28-115.584 82.976-231.008 125.12-346.24 2.144-5.888 4.384-11.776 5.984-17.824 1.088-3.872 1.792-7.84 2.176-11.84 0.672-8.832-2.56-15.744-10.592-20.16-1.472-0.864-3.008-1.6-4.608-2.24-3.2-1.152-6.4-2.304-9.696-3.2-6.762-1.832-15.179-3.501-23.76-4.651l-1.072-0.117c-1.916-0.196-3.655-0.534-5.335-1.012l0.215 0.052c-0.116-0.246-0.215-0.535-0.283-0.835l-0.005-0.029v-20.448c0.092-0.516 0.248-0.978 0.461-1.406l-0.013 0.030h203.616c0.64 0.064 1.28 0.192 2.112 0.32 0.16 2.496 0.224 4.96 0.128 7.456 0 2.56 0.096 5.28 0 7.68-0.064 2.432 0.448 4.864-0.384 7.392l-5.76 0.832c-9.374 1.24-17.559 2.887-25.547 5.019l1.387-0.315c-15.004 3.831-27.461 12.882-35.606 25.061l-0.138 0.219c-2.289 3.363-4.77 7.42-7.071 11.591l-0.417 0.825c-4.564 8.365-9.185 18.469-13.143 28.9l-0.585 1.756c20.319-62.083 10.375-36.559 0.511-10.995l-29.919 88.179c29.9-101.427-5.564-7.636-40.546 86.389l-64.19 196.939-30.4 83.232c-0.416 1.152-0.928 2.24-1.44 3.52z" />
<glyph unicode="&#xe93d;" glyph-name="ankr" d="M512 960c282.784 0 512-229.216 512-512s-229.216-512-512-512-512 229.216-512 512 229.216 512 512 512zM513.6 595.2c-80.832 0-145.504-65.6-145.504-144 0-65.6 43.648-120 105.088-137.6v-89.6l-179.488 89.6c-4.832 3.2-8.064 8-8.064 12.8v49.6h-77.632v-49.6c0-35.2 19.392-65.6 50.112-81.6l210.24-107.2c12.928-6.4 27.488-9.6 42.016-9.6 14.56 0 29.12 3.2 42.048 9.6l211.84 107.2c30.72 16 50.112 48 50.112 81.6v49.6h-77.6v-49.6c0-6.4-3.232-11.2-8.096-12.8l-174.624-89.6v89.6c60.934 17.236 104.872 72.257 105.088 137.575v0.025c0 80-66.272 144-145.504 144zM512 516.8c35.584 0 66.304-28.8 66.304-65.6s-30.72-65.6-66.304-65.6-66.304 28.8-66.304 65.6 29.12 65.6 66.304 65.6zM554.048 758.4c-27.52 12.8-58.24 12.8-84.096 0l-211.84-107.2c-30.72-16-50.112-48-50.112-81.6v-49.6h77.632v49.6c0 6.4 3.2 11.2 8.064 12.8l211.84 107.2c4.832 1.6 9.696 1.6 12.928 0l211.84-107.2c4.832-3.2 8.064-8 8.064-12.8v-49.6h77.632v49.6c0 35.2-19.392 65.6-50.112 81.6z" />
</font>
</defs>
</svg>
