<svg xmlns="http://www.w3.org/2000/svg" version="1.0" width="256" height="256" viewBox="0 0 192 192"><g  transform="matrix(4.80423 0 0 4.80423 -99.137 -101.041)"><path d="m53.97 21.397-3.704.142c.348 7.821.522 14.96.522 21.42 0 2.976-.174 5.414-.522 7.314-.38 1.868-.982 3.309-1.805 4.322s-1.789 1.71-2.897 2.09c-1.108.348-2.549.522-4.322.522-3.325 0-6.364-1.25-9.119-3.752-2.755-2.501-2.162-8.695-2.162-8.695l-3.711-.034c.121 5.773.411 8.745 3.736 11.626 3.324 2.882 7.076 4.322 11.256 4.322 5.003 0 8.47-1.266 10.401-3.8 1.931-2.564 2.897-7.202 2.897-13.915 0-5.636-.19-12.823-.57-21.562zm-17.452 4.278-3.04-1.757c-2.533 3.736-4.322 6.49-5.367 8.264l3.04 1.615a156.116 156.116 0 0 1 5.367-8.122zm6.696 1.805-2.992-1.757c-1.995 2.913-3.72 5.588-5.177 8.026l2.992 1.567c1.489-2.438 3.214-5.05 5.177-7.836z"/></g></svg>
