<?xml version="1.0" encoding="UTF-8" standalone="no"?>
<svg
   xmlns:dc="http://purl.org/dc/elements/1.1/"
   xmlns:cc="http://creativecommons.org/ns#"
   xmlns:rdf="http://www.w3.org/1999/02/22-rdf-syntax-ns#"
   xmlns:svg="http://www.w3.org/2000/svg"
   xmlns="http://www.w3.org/2000/svg"
   xmlns:sodipodi="http://sodipodi.sourceforge.net/DTD/sodipodi-0.dtd"
   xmlns:inkscape="http://www.inkscape.org/namespaces/inkscape"
   version="1.0"
   width="256"
   height="256"
   viewBox="0 0 192.00008 192.00008"
   id="svg10"
   sodipodi:docname="berrys-cafe.svg"
   inkscape:version="0.92.4 (5da689c313, 2019-01-14)">
  <metadata
     id="metadata17">
    <rdf:RDF>
      <cc:Work
         rdf:about="">
        <dc:format>image/svg+xml</dc:format>
        <dc:type
           rdf:resource="http://purl.org/dc/dcmitype/StillImage" />
        <dc:title></dc:title>
      </cc:Work>
    </rdf:RDF>
  </metadata>
  <defs
     id="defs15" />
  <sodipodi:namedview
     pagecolor="#ffffff"
     bordercolor="#666666"
     borderopacity="1"
     objecttolerance="10"
     gridtolerance="10"
     guidetolerance="10"
     inkscape:pageopacity="0"
     inkscape:pageshadow="2"
     inkscape:window-width="1920"
     inkscape:window-height="1027"
     id="namedview13"
     showgrid="false"
     inkscape:pagecheckerboard="true"
     inkscape:zoom="2.3930996"
     inkscape:cx="8.8201581"
     inkscape:cy="124.35151"
     inkscape:window-x="0"
     inkscape:window-y="36"
     inkscape:window-maximized="1"
     inkscape:current-layer="svg10">
    <sodipodi:guide
       position="0.4020333,95.712871"
       orientation="0,127.99999"
       id="guide844"
       inkscape:locked="false" />
    <sodipodi:guide
       position="96.402069,95.712871"
       orientation="-128,0"
       id="guide846"
       inkscape:locked="false" />
  </sodipodi:namedview>
  <style
     type="text/css"
     id="style2">@media (prefers-color-scheme:light){g{fill:#000}#face,#ear{fill:#fff}}@media (prefers-color-scheme:dark){g{fill:#fff}#face,#ear{fill:#000}}</style>
  <path
     style="fill:#000000;stroke-width:1.63580501"
     d="M 70.996485,191.09419 C 46.82991,185.99621 30.606138,168.68319 24.229405,141.18727 21.275578,128.45062 15.270124,114.32111 11.479991,111.19072 4.6286763,105.532 10.594742,96.858896 24.076907,92.878084 L 31.241614,90.7626 25.060053,72.362684 C 19.331575,55.311405 19.077759,53.782426 21.597157,51.502401 27.379167,46.269756 50.163727,36.938337 63.475065,34.351298 76.34442,31.85016 77.550778,31.274371 79.425615,26.738108 82.246689,19.912356 93.327607,8.2459004 100.43232,4.6213409 c 3.2658,-1.6660885 8.74218,-3.2602966 12.1697,-3.5426855 6.00494,-0.49473542 6.31649,-0.26352811 8.55542,6.3490627 l 2.32354,6.8624949 7.86864,-0.931923 7.86865,-0.931925 12.47249,37.419007 c 6.85987,20.580451 12.4725,38.706868 12.4725,40.280921 0,1.839114 -1.31536,2.908071 -3.68056,2.991061 -2.44313,0.08574 -2.85561,0.439146 -1.22685,1.051141 10.6705,4.009534 14.38445,12.015645 8.17902,17.631475 -4.62337,4.1841 -4.13768,5.16869 3.1224,6.32962 9.3446,1.49426 14.87146,8.64172 14.87146,19.23211 0,9.73832 -2.7424,15.54728 -10.59465,22.44165 -7.41816,6.51322 -15.52997,10.65063 -27.89601,14.22825 -5.37107,1.55392 -12.88599,4.96384 -16.6998,7.57763 -3.8138,2.61377 -10.07075,5.88398 -13.90435,7.26712 -8.4117,3.03493 -35.242259,4.34745 -45.337435,2.21784 z M 124.6646,172.34742 c 6.45666,-7.35372 9.27029,-14.04449 12.51797,-29.76746 2.65832,-12.86972 4.39474,-17.33357 8.63267,-22.19202 2.92961,-3.35857 1.81918,-3.49313 -9.2452,-1.12024 -7.34325,1.57485 -8.37352,2.36457 -10.71324,8.21212 -1.42376,3.55834 -2.58866,10.77103 -2.58866,16.02818 0,15.39538 -2.77009,26.42033 -8.39783,33.4233 l -5.06792,6.30635 4.85423,-2.51023 c 2.66985,-1.38061 7.17343,-5.15162 10.00798,-8.38 z m 30.96506,-11.32076 c 10.67563,-5.44731 16.88329,-12.36332 17.07257,-19.0207 0.17598,-6.18809 -4.90071,-11.39423 -11.11085,-11.39423 -3.15236,0 -4.16795,1.25273 -5.63611,6.95217 -2.91003,11.29679 -5.17134,18.11719 -7.59289,22.90127 -2.77455,5.48147 -2.42747,5.50829 7.26728,0.56149 z M 60.051408,117.39664 c 5.918995,-2.76983 17.341365,-6.60781 25.383055,-8.52885 L 100.0557,105.375 88.792122,72.767559 C 82.597146,54.833464 77.14075,39.772327 76.66679,39.298366 73.546179,36.177763 26.824833,52.28028 26.724695,56.51092 c -0.0334,1.410554 21.747972,65.92178 22.257613,65.92178 0.169033,0 5.150105,-2.26622 11.0691,-5.03606 z m 66.891922,-0.60906 c 22.2149,-3.96077 30.81903,-10.60043 21.58078,-16.65355 -6.73029,-4.409865 -14.24437,-3.233933 -30.66592,4.79913 -9.33927,4.56857 -19.376715,8.09741 -26.488245,9.31241 -6.297854,1.07598 -12.922862,2.5704 -14.722246,3.32094 -5.550639,2.31521 36.602961,1.66238 50.295631,-0.77893 z m -89.386918,-6.77539 c -0.549903,-1.43312 -1.453848,-4.41439 -2.008686,-6.62505 -1.150836,-4.585277 -5.020481,-4.621333 -7.798847,-0.0727 -1.474439,2.41391 -1.093208,3.5543 2.050644,6.13427 4.759912,3.90617 9.162325,4.22596 7.756889,0.56347 z M 122.92146,95.587835 c 5.15326,-2.168982 14.14845,-4.879782 19.98932,-6.024 5.84086,-1.144225 11.25454,-2.617587 12.03038,-3.274144 1.89782,-1.606026 -19.97805,-66.919487 -22.40313,-66.887662 -6.7554,0.08865 -6.53944,2.43816 2.79965,30.458208 5.05776,15.174773 9.19592,28.077275 9.19592,28.672231 0,0.594955 -2.77467,1.550511 -6.16592,2.123458 -8.33586,1.408339 -17.96886,7.111578 -22.90191,13.559135 -2.23716,2.924007 -3.58299,5.316371 -2.99072,5.316371 0.59223,0 5.29315,-1.774616 10.44641,-3.943597 z m 4.90734,-18.318467 c 4.23933,-1.570516 7.96848,-3.046815 8.28697,-3.28066 C 136.43427,73.754856 131.77238,58.795164 125.756,40.744935 113.36188,3.5602873 113.75684,3.9904616 100.01257,12.706828 c -7.66209,4.859155 -16.003752,16.510185 -16.003752,22.35289 0,1.719714 4.475991,16.555744 9.946632,32.96895 l 9.94662,29.842184 8.10944,-8.872998 c 5.42732,-5.938373 10.65869,-9.817417 15.81729,-11.728486 z"
     id="path836"
     inkscape:connector-curvature="0" />
</svg>
