<?xml version="1.0" encoding="UTF-8" standalone="no"?>
<svg
   xmlns:dc="http://purl.org/dc/elements/1.1/"
   xmlns:cc="http://creativecommons.org/ns#"
   xmlns:rdf="http://www.w3.org/1999/02/22-rdf-syntax-ns#"
   xmlns:svg="http://www.w3.org/2000/svg"
   xmlns="http://www.w3.org/2000/svg"
   xmlns:sodipodi="http://sodipodi.sourceforge.net/DTD/sodipodi-0.dtd"
   xmlns:inkscape="http://www.inkscape.org/namespaces/inkscape"
   version="1.0"
   width="455.53885"
   height="455.53885"
   viewBox="0 0 341.65428 341.65428"
   id="svg10"
   sodipodi:docname="kakuzoo.svg"
   inkscape:version="0.92.4 (5da689c313, 2019-01-14)">
  <metadata
     id="metadata17">
    <rdf:RDF>
      <cc:Work
         rdf:about="">
        <dc:format>image/svg+xml</dc:format>
        <dc:type
           rdf:resource="http://purl.org/dc/dcmitype/StillImage" />
        <dc:title></dc:title>
      </cc:Work>
    </rdf:RDF>
  </metadata>
  <defs
     id="defs15" />
  <sodipodi:namedview
     pagecolor="#ffffff"
     bordercolor="#666666"
     borderopacity="1"
     objecttolerance="10"
     gridtolerance="10"
     guidetolerance="10"
     inkscape:pageopacity="0"
     inkscape:pageshadow="2"
     inkscape:window-width="1920"
     inkscape:window-height="1027"
     id="namedview13"
     showgrid="false"
     inkscape:pagecheckerboard="true"
     inkscape:zoom="1.1965498"
     inkscape:cx="160.14027"
     inkscape:cy="203.16524"
     inkscape:window-x="0"
     inkscape:window-y="36"
     inkscape:window-maximized="1"
     inkscape:current-layer="svg10"
     fit-margin-top="0"
     fit-margin-left="0"
     fit-margin-right="0"
     fit-margin-bottom="0">
    <sodipodi:guide
       position="-29.35594,77.407641"
       orientation="0,127.99999"
       id="guide844"
       inkscape:locked="false" />
    <sodipodi:guide
       position="66.644101,77.407641"
       orientation="-128,0"
       id="guide846"
       inkscape:locked="false" />
  </sodipodi:namedview>
  <style
     type="text/css"
     id="style2">@media (prefers-color-scheme:light){g{fill:#000}#face,#ear{fill:#fff}}@media (prefers-color-scheme:dark){g{fill:#fff}#face,#ear{fill:#000}}</style>
  <path
     style="fill:#000000;stroke-width:0.60150403"
     d="M 0.62680242,171.03974 V 23.370499 H 25.889962 51.153132 V 171.03974 318.70898 H 25.889962 0.62680242 Z M 163.33363,313.21218 c -2.96071,-1.10216 -5.64318,-3.43648 -7.02931,-6.117 -1.02917,-1.99022 -1.29798,-3.5355 -1.2757,-7.33358 0.035,-5.9652 1.23278,-10.84766 5.32526,-21.70685 6.54237,-17.35987 9.07509,-26.11272 7.55598,-26.11272 -0.37968,0 -4.27142,1.74841 -8.64831,3.88534 -9.07848,4.43239 -19.21226,8.04607 -28.22234,10.06402 -4.92811,1.10373 -7.93134,1.38243 -14.62289,1.35704 -9.30883,-0.0353 -12.70657,-0.89911 -17.664768,-4.49081 -10.95533,-7.93601 -3.27735,-26.31399 21.730958,-52.01511 3.38766,-3.48151 6.11555,-6.32761 6.06197,-6.32465 -0.0536,0.003 -4.79042,1.73203 -10.52632,3.84241 -21.583898,7.94124 -29.100858,9.80353 -37.416958,9.26983 -8.15186,-0.52315 -14.13024,-5.44139 -14.68054,-12.07724 -0.73647,-8.88082 6.8658,-24.23056 20.477,-41.34512 7.34868,-9.24011 13.80245,-16.11975 84.019248,-89.563371 20.69293,-21.643876 39.11223,-40.94145 40.93178,-42.8835 l 3.30827,-3.531 25.32652,0.17671 25.32653,0.17671 -14.73438,16.842108 c -39.82828,45.525679 -79.94699,90.615573 -96.56053,108.525523 -3.19879,3.44841 -5.74102,6.34481 -5.64938,6.43645 0.0916,0.0916 3.0912,-0.76151 6.6657,-1.89588 12.50561,-3.96864 22.8585,-4.99364 27.79454,-2.75182 2.66905,1.21222 5.9027,4.81754 8.14778,9.08428 1.20989,2.29938 1.4245,3.57363 1.42591,8.4664 0.002,5.58026 -0.0779,5.91745 -2.5527,10.82708 -2.75451,5.4645 -6.96841,10.74778 -19.59574,24.56873 -4.3588,4.77082 -8.83153,9.71726 -9.93938,10.99208 l -2.01429,2.31786 3.2173,-1.29717 c 13.54365,-5.46065 22.14937,-7.7502 29.08196,-7.73723 5.67581,0.0106 8.49097,1.08704 11.93864,4.56497 4.06675,4.10245 4.89226,6.32064 4.89822,13.16197 0.005,5.9579 -0.0514,6.19358 -5.96216,24.80954 -3.28207,10.33698 -5.83312,18.9288 -5.66898,19.09293 0.16414,0.16414 9.34571,-3.64572 20.40351,-8.46635 11.05779,-4.82064 28.6314,-12.36353 39.05246,-16.76199 32.86493,-13.87145 43.49879,-17.77187 48.45212,-17.77187 4.16573,0 3.48866,1.47774 -1.83556,4.0062 -2.48121,1.17832 -4.51128,2.23311 -4.51128,2.34397 0,0.11087 1.5311,-0.3252 3.40244,-0.96903 4.30176,-1.48003 4.51472,-1.46819 4.08915,0.2274 -0.21445,0.85445 -0.015,1.67679 0.51303,2.115 0.69251,0.57474 2.75861,-0.12541 10.41461,-3.52927 10.46284,-4.65178 17.18608,-6.5896 22.88497,-6.59607 4.93014,-0.005 5.61311,0.31789 5.61311,2.65863 0,3.25455 -3.30087,6.3942 -10.68172,10.15999 -7.34828,3.74919 -35.9036,16.45552 -75.93486,33.78893 -15.05264,6.51775 -27.50377,11.99324 -27.66918,12.16776 -0.6642,0.70077 3.66661,-0.97831 25.56392,-9.91128 29.58155,-12.06773 62.33539,-24.92887 62.66011,-24.60414 0.14002,0.14001 -0.90874,1.25368 -2.33057,2.47479 -3.90609,3.35469 -16.04982,9.01866 -53.41225,24.91207 -18.69173,7.95118 -38.45114,16.46255 -43.90979,18.91414 -20.94824,9.40829 -34.42516,13.58894 -45.1128,13.99436 -3.78779,0.14369 -7.03808,-0.0293 -8.12031,-0.43217 z"
     id="path825"
     inkscape:connector-curvature="0" />
</svg>
