<?xml version="1.0" encoding="UTF-8" standalone="no"?>
<svg
   xmlns:dc="http://purl.org/dc/elements/1.1/"
   xmlns:cc="http://creativecommons.org/ns#"
   xmlns:rdf="http://www.w3.org/1999/02/22-rdf-syntax-ns#"
   xmlns:svg="http://www.w3.org/2000/svg"
   xmlns="http://www.w3.org/2000/svg"
   xmlns:sodipodi="http://sodipodi.sourceforge.net/DTD/sodipodi-0.dtd"
   xmlns:inkscape="http://www.inkscape.org/namespaces/inkscape"
   version="1.0"
   width="256"
   height="256"
   viewBox="0 0 192.00008 192.00008"
   id="svg10"
   sodipodi:docname="lanove-street.svg"
   inkscape:version="0.92.4 (5da689c313, 2019-01-14)">
  <metadata
     id="metadata17">
    <rdf:RDF>
      <cc:Work
         rdf:about="">
        <dc:format>image/svg+xml</dc:format>
        <dc:type
           rdf:resource="http://purl.org/dc/dcmitype/StillImage" />
        <dc:title></dc:title>
      </cc:Work>
    </rdf:RDF>
  </metadata>
  <defs
     id="defs15" />
  <sodipodi:namedview
     pagecolor="#ffffff"
     bordercolor="#666666"
     borderopacity="1"
     objecttolerance="10"
     gridtolerance="10"
     guidetolerance="10"
     inkscape:pageopacity="0"
     inkscape:pageshadow="2"
     inkscape:window-width="1920"
     inkscape:window-height="1027"
     id="namedview13"
     showgrid="false"
     inkscape:pagecheckerboard="true"
     inkscape:zoom="1.1965498"
     inkscape:cx="4.2758926"
     inkscape:cy="156.69874"
     inkscape:window-x="0"
     inkscape:window-y="36"
     inkscape:window-maximized="1"
     inkscape:current-layer="svg10">
    <sodipodi:guide
       position="0.4020333,95.712871"
       orientation="0,127.99999"
       id="guide844"
       inkscape:locked="false" />
    <sodipodi:guide
       position="96.402069,95.712871"
       orientation="-128,0"
       id="guide846"
       inkscape:locked="false" />
  </sodipodi:namedview>
  <style
     type="text/css"
     id="style2">@media (prefers-color-scheme:light){g{fill:#000}#face,#ear{fill:#fff}}@media (prefers-color-scheme:dark){g{fill:#fff}#face,#ear{fill:#000}}</style>
  <path
     style="fill:#000000;stroke-width:0.36781406"
     d="M 2.0823954,96.287209 V 2.1268057 H 96.2428 190.40322 V 96.287209 190.44763 H 96.2428 2.0823954 Z M 109.85193,154.59935 c 24.33974,-3.72204 41.98904,-15.58657 47.07503,-31.64562 1.12747,-3.55998 1.4099,-10.07961 0.5879,-13.57122 -1.22838,-5.21782 -4.35272,-9.436548 -9.54193,-12.884279 -4.81995,-3.202384 -9.12461,-4.882548 -22.6594,-8.844262 -8.97533,-2.627139 -12.8869,-4.907227 -12.8869,-7.511889 0,-3.493845 3.92766,-6.448588 10.92601,-8.219519 2.85368,-0.722127 4.18827,-0.819283 11.32674,-0.824594 6.45212,-0.0049 8.86919,0.138135 11.9276,0.705368 l 3.83569,0.711387 1.7573,-1.993168 c 1.18016,-1.338573 1.61161,-2.073973 1.3137,-2.23921 -0.24397,-0.135322 -2.26427,-0.54563 -4.48954,-0.911789 -5.01816,-0.82572 -19.17274,-0.950983 -24.27573,-0.214833 -15.03986,2.169632 -25.563084,8.492761 -25.563084,15.36017 0,5.474415 5.374934,9.035027 20.493354,13.575776 14.96613,4.495012 20.34374,8.917992 20.32965,16.720742 -0.0203,11.27095 -10.31558,20.64659 -26.27823,23.93103 -5.681,1.16892 -12.62926,1.60169 -18.406399,1.14648 -4.728179,-0.37258 -9.923767,-1.09045 -9.675596,-1.33688 0.06161,-0.0612 9.049886,-1.55624 19.973965,-3.32236 10.92409,-1.76612 20.00864,-3.3421 20.18792,-3.50219 0.24597,-0.21965 -6.4318,-22.93419 -6.87166,-23.37405 -0.0457,-0.0457 -12.3198,3.37667 -27.27577,7.60527 -14.955972,4.2286 -27.228378,7.6511 -27.272006,7.60556 -0.04365,-0.0455 1.251974,-18.9981 2.87912,-42.116804 1.627145,-23.118704 2.851112,-42.141336 2.719935,-42.272514 -0.207628,-0.207629 -35.525864,5.313669 -35.844436,5.603561 -0.06653,0.06054 3.547618,22.427931 8.031436,49.705313 9.175606,55.819884 7.975275,50.563704 12.237321,53.586364 3.28473,2.32952 6.392012,3.79514 11.862915,5.59544 4.792273,1.57697 10.398836,2.81456 15.621215,3.44821 4.681316,0.56799 23.08827,0.22855 27.95388,-0.51549 z m -22.252759,-3.89139 c -5.343561,-0.36365 -12.6351,-1.62039 -17.243587,-2.97202 -6.184125,-1.81374 -14.426267,-6.17746 -12.691376,-6.71931 0.942696,-0.29443 19.35405,-3.16642 20.298803,-3.16642 0.513944,0 2.369918,0.34091 4.124385,0.7576 15.222668,3.61538 30.595564,2.6991 42.682634,-2.54401 6.97538,-3.02578 11.13977,-6.31303 14.59821,-11.52339 2.80858,-4.23129 3.98507,-9.0918 3.24377,-13.40109 -0.63977,-3.719 -1.87774,-6.10955 -4.52158,-8.73123 -2.74706,-2.724041 -5.98187,-4.418717 -12.06795,-6.322247 -14.06528,-4.399173 -16.89809,-5.409753 -19.60338,-6.993374 -7.545126,-4.416739 -6.972322,-9.705133 1.67611,-15.4748 5.47789,-3.65448 13.77401,-5.815757 24.00946,-6.254861 6.58476,-0.282487 18.97437,0.799717 18.9302,1.653509 -0.007,0.130107 -0.32513,0.611711 -0.70756,1.070233 l -0.69534,0.833675 -3.43034,-0.577033 c -4.73459,-0.796428 -14.40119,-1.104417 -18.69659,-0.595694 -4.7544,0.563087 -7.40596,1.285909 -10.66465,2.90722 -4.76024,2.368382 -7.18835,5.504506 -6.47191,8.359047 0.65929,2.626819 5.14249,5.430194 12.35694,7.726863 9.91196,3.155417 15.47939,5.137424 18.74642,6.673739 11.22046,5.276413 14.92984,12.379403 12.53245,23.998103 -1.23294,5.97529 -4.26384,11.2805 -9.07706,15.88826 -3.11675,2.98372 -6.09095,5.01299 -10.72422,7.31706 -9.64974,4.79869 -19.87503,7.28884 -33.27753,8.10403 -6.504478,0.39562 -7.322113,0.39477 -13.326309,-0.0138 z"
     id="path875"
     inkscape:connector-curvature="0" />
</svg>
