<?xml version="1.0" encoding="UTF-8" standalone="no"?>
<svg
   xmlns:dc="http://purl.org/dc/elements/1.1/"
   xmlns:cc="http://creativecommons.org/ns#"
   xmlns:rdf="http://www.w3.org/1999/02/22-rdf-syntax-ns#"
   xmlns:svg="http://www.w3.org/2000/svg"
   xmlns="http://www.w3.org/2000/svg"
   xmlns:sodipodi="http://sodipodi.sourceforge.net/DTD/sodipodi-0.dtd"
   xmlns:inkscape="http://www.inkscape.org/namespaces/inkscape"
   version="1.0"
   width="256"
   height="256"
   viewBox="0 0 192.00008 192.00008"
   id="svg10"
   sodipodi:docname="monogatary.svg"
   inkscape:version="0.92.4 (5da689c313, 2019-01-14)">
  <metadata
     id="metadata17">
    <rdf:RDF>
      <cc:Work
         rdf:about="">
        <dc:format>image/svg+xml</dc:format>
        <dc:type
           rdf:resource="http://purl.org/dc/dcmitype/StillImage" />
        <dc:title></dc:title>
      </cc:Work>
    </rdf:RDF>
  </metadata>
  <defs
     id="defs15" />
  <sodipodi:namedview
     pagecolor="#ffffff"
     bordercolor="#666666"
     borderopacity="1"
     objecttolerance="10"
     gridtolerance="10"
     guidetolerance="10"
     inkscape:pageopacity="0"
     inkscape:pageshadow="2"
     inkscape:window-width="1920"
     inkscape:window-height="1027"
     id="namedview13"
     showgrid="false"
     inkscape:pagecheckerboard="true"
     inkscape:zoom="2.3930996"
     inkscape:cx="8.8201581"
     inkscape:cy="124.35151"
     inkscape:window-x="0"
     inkscape:window-y="36"
     inkscape:window-maximized="1"
     inkscape:current-layer="svg10">
    <sodipodi:guide
       position="0.4020333,95.712871"
       orientation="0,127.99999"
       id="guide844"
       inkscape:locked="false" />
    <sodipodi:guide
       position="96.402069,95.712871"
       orientation="-128,0"
       id="guide846"
       inkscape:locked="false" />
  </sodipodi:namedview>
  <style
     type="text/css"
     id="style2">@media (prefers-color-scheme:light){g{fill:#000}#face,#ear{fill:#fff}}@media (prefers-color-scheme:dark){g{fill:#fff}#face,#ear{fill:#000}}</style>
  <path
     style="fill:#000000;stroke-width:0.59881407"
     d="M 90.180948,127.22447 C 89.949905,126.99343 87.3904,126.56578 84.493065,126.27403 67.3489,124.5477 51.5474,116.83373 40.324806,104.71199 c -1.869073,-2.01882 -3.602589,-3.43312 -3.852245,-3.14287 -0.249655,0.29022 -1.709763,2.3227 -3.244672,4.5166 -6.082028,8.69321 -18.5655,19.06543 -22.946197,19.06543 -4.6140752,0 -7.8159404,-3.50321 -7.2254675,-7.90551 0.4068316,-3.03317 0.6922987,-3.3319 7.5413215,-7.89147 9.616371,-6.40187 15.440385,-13.595893 18.002984,-22.237924 0.388979,-1.311752 0.834821,-6.157553 0.990787,-10.76842 0.332991,-9.845223 0.960847,-11.652168 4.673093,-13.449234 2.1079,-1.020429 2.791296,-1.09523 4.687815,-0.513183 4.178922,1.282559 4.916286,2.717741 5.142812,10.009647 0.109783,3.538316 -0.08783,7.989424 -0.439429,9.891357 l -0.639259,3.458075 3.224513,4.283864 c 12.677463,16.842468 27.227366,23.745338 50.050557,23.745338 15.234001,0 26.814311,-3.14048 36.152891,-9.80433 4.33007,-3.0899 11.11371,-10.104557 14.34533,-14.833939 l 2.29368,-3.356726 -0.7423,-6.811283 c -0.40824,-3.746204 -0.54832,-8.089975 -0.31126,-9.652829 1.09221,-7.200487 8.11592,-9.595568 12.90713,-4.401307 1.38578,1.50235 1.49494,2.137217 1.89225,11.005525 0.46798,10.445859 0.8856,12.365905 3.9766,18.283209 2.74394,5.252945 8.05367,10.54978 15.63446,15.59651 5.98347,3.98336 7.2662,5.56647 7.2662,8.96768 0,1.64579 -2.34787,4.97353 -4.05918,5.75323 -3.66559,1.67014 -7.20515,0.25357 -14.72975,-5.895 -4.66251,-3.80987 -8.91476,-8.45108 -12.67364,-13.83295 -1.26517,-1.81141 -2.38391,-3.40622 -2.48613,-3.54405 -0.1023,-0.13773 -1.67316,1.39302 -3.49103,3.40181 -10.71807,11.84387 -25.79246,19.28752 -44.04942,21.75139 -6.42488,0.86708 -17.487764,1.37241 -18.036302,0.82384 z"
     id="path825"
     inkscape:connector-curvature="0" />
</svg>
