<?xml version="1.0" encoding="UTF-8" standalone="no"?>
<svg
   xmlns:dc="http://purl.org/dc/elements/1.1/"
   xmlns:cc="http://creativecommons.org/ns#"
   xmlns:rdf="http://www.w3.org/1999/02/22-rdf-syntax-ns#"
   xmlns:svg="http://www.w3.org/2000/svg"
   xmlns="http://www.w3.org/2000/svg"
   xmlns:sodipodi="http://sodipodi.sourceforge.net/DTD/sodipodi-0.dtd"
   xmlns:inkscape="http://www.inkscape.org/namespaces/inkscape"
   version="1.0"
   width="256"
   height="256"
   viewBox="0 0 192.00008 192.00008"
   id="svg10"
   sodipodi:docname="nola-novel.svg"
   inkscape:version="0.92.4 (5da689c313, 2019-01-14)">
  <metadata
     id="metadata17">
    <rdf:RDF>
      <cc:Work
         rdf:about="">
        <dc:format>image/svg+xml</dc:format>
        <dc:type
           rdf:resource="http://purl.org/dc/dcmitype/StillImage" />
        <dc:title></dc:title>
      </cc:Work>
    </rdf:RDF>
  </metadata>
  <defs
     id="defs15" />
  <sodipodi:namedview
     pagecolor="#ffffff"
     bordercolor="#666666"
     borderopacity="1"
     objecttolerance="10"
     gridtolerance="10"
     guidetolerance="10"
     inkscape:pageopacity="0"
     inkscape:pageshadow="2"
     inkscape:window-width="1920"
     inkscape:window-height="1027"
     id="namedview13"
     showgrid="false"
     inkscape:pagecheckerboard="true"
     inkscape:zoom="2.3930996"
     inkscape:cx="9.2856313"
     inkscape:cy="124.50833"
     inkscape:window-x="0"
     inkscape:window-y="36"
     inkscape:window-maximized="1"
     inkscape:current-layer="svg10">
    <sodipodi:guide
       position="0.4020333,95.712871"
       orientation="0,127.99999"
       id="guide844"
       inkscape:locked="false" />
    <sodipodi:guide
       position="96.402069,95.712871"
       orientation="-128,0"
       id="guide846"
       inkscape:locked="false" />
  </sodipodi:namedview>
  <style
     type="text/css"
     id="style2">@media (prefers-color-scheme:light){g{fill:#000}#face,#ear{fill:#fff}}@media (prefers-color-scheme:dark){g{fill:#fff}#face,#ear{fill:#000}}</style>
  <path
     style="fill:#000000;stroke-width:0.63920701"
     d="m 1.3276512,189.91933 c 0,-0.36056 0.4276133,-1.86751 0.9502258,-3.3488 2.1514949,-6.09797 3.7494974,-16.83826 3.7126946,-24.95341 -0.037783,-8.3348 -1.9903856,-19.30812 -4.7134681,-26.48901 -0.65863173,-1.73686 -1.13244263,-3.21131 -1.05289383,-3.27655 0.079549,-0.0653 15.10208733,-0.45641 33.38341233,-0.86926 90.215908,-2.03733 123.570308,-1.98321 130.523378,0.21177 8.20934,2.59156 12.39342,12.02254 12.50473,28.18583 0.0948,13.75365 -3.79198,23.90265 -10.02622,26.18064 -6.11754,2.23534 -2.85909,2.12915 -140.192971,4.56869 -17.0069296,0.30212 -25.0888878,0.2345 -25.0888878,-0.2099 z M 98.437968,186.1988 c 52.821262,-0.91279 64.058372,-1.4034 67.440632,-2.94446 5.53403,-2.52147 9.19512,-15.6928 7.97283,-28.68326 -0.83964,-8.92357 -2.57042,-14.07891 -5.88326,-17.52394 -4.45768,-4.63556 -3.11202,-4.51602 -50.62439,-4.49758 -33.642321,0.0131 -112.6573193,1.29727 -113.2760541,1.84106 -0.074954,0.0659 0.3009785,1.54464 0.8354977,3.28606 4.2028138,13.69237 4.8512338,27.41955 1.9527557,41.34058 -0.9311912,4.47239 -1.6930833,8.32305 -1.6930833,8.55701 0,0.23396 8.701214,0.2325 19.336026,-0.003 10.634812,-0.23574 43.907387,-0.85324 73.939046,-1.37221 z M 9.6373504,177.58916 c 0,-0.39341 4.9948396,-0.64962 13.2635486,-0.68036 7.294956,-0.0271 40.302017,-0.54654 73.349047,-1.1543 33.047014,-0.60774 60.205334,-1.01703 60.351824,-0.90951 0.14648,0.10752 0.14648,0.29594 0,0.41872 -0.14649,0.12278 -31.18799,0.70062 -68.981127,1.28411 -37.793134,0.58348 -70.800196,1.19847 -73.349037,1.36663 -2.829927,0.18671 -4.6342556,0.0601 -4.6342556,-0.32529 z m 4.5613446,-8.60152 c 0.164979,-0.16498 28.761512,-0.73529 63.547854,-1.26735 74.393931,-1.13789 85.273051,-1.23008 85.776221,-0.72691 0.20713,0.20713 -4.48935,0.38366 -10.43664,0.39229 -5.9473,0.008 -36.84498,0.43304 -68.661522,0.94313 -64.329975,1.03136 -70.657785,1.09073 -70.225913,0.65884 z m 1.830726,-7.8033 c 0,-0.31572 4.530383,-0.63885 10.067514,-0.71805 26.481268,-0.37879 125.576985,-2.04596 133.913935,-2.25294 5.18557,-0.12874 9.4283,-0.0469 9.4283,0.18201 0,0.22885 -31.13739,0.90783 -69.19419,1.50885 -38.056796,0.60101 -72.573989,1.26407 -76.704872,1.47347 -4.29527,0.21772 -7.510687,0.13496 -7.510687,-0.19334 z m -1.918015,-8.03672 c 2.14e-4,-0.26366 2.661097,-0.47881 5.913062,-0.4781 3.251965,6.4e-4 36.091627,-0.58901 72.977006,-1.3105 36.885396,-0.72151 67.807046,-1.21405 68.714796,-1.09455 2.903,0.38218 -41.20794,1.43692 -101.261935,2.42131 -22.148542,0.36304 -41.636548,0.72334 -43.306696,0.80067 -1.670148,0.0773 -3.036448,-0.0751 -3.036233,-0.33883 z m -4.9765206,-7.85039 c 0.250993,-0.25654 29.4467856,-0.99233 64.8795356,-1.63508 67.187639,-1.21877 82.393609,-1.39691 81.948139,-0.96006 -0.14649,0.14366 -26.87334,0.71177 -59.393019,1.26246 -32.519669,0.55069 -65.598652,1.18079 -73.50884,1.4002 -7.910187,0.21941 -14.1768076,0.18902 -13.9258156,-0.0675 z M 31.3704,124.82518 C 24.177622,123.54861 23.076948,123.13235 21.179325,120.97107 16.234553,115.3393 13.83518,106.967 13.952093,95.7527 c 0.09824,-9.420768 1.312812,-15.525453 4.038498,-20.297934 3.663771,-6.415017 7.32701,-7.568679 27.761975,-8.743031 8.437538,-0.48489 24.019441,-1.080261 34.626467,-1.323043 19.196896,-0.439397 19.287126,-0.447934 19.640307,-1.855091 0.55541,-2.212949 2.99628,-2.993498 6.93292,-2.217034 8.29312,1.635755 21.24773,0.474761 26.98257,-2.418182 3.82037,-1.927186 8.50372,-5.896009 10.4822,-8.882971 2.78937,-4.211177 2.5161,-4.648338 -0.98129,-1.569819 -3.57123,3.143517 -9.10499,5.852661 -15.22544,7.45386 -3.79371,0.992502 -7.1001,1.173381 -21.73305,1.188933 -12.319173,0.01307 -18.356235,-0.230824 -21.093839,-0.852245 -6.353001,-1.44209 -6.31241,-1.38369 -4.145465,-5.965703 5.199646,-10.994651 4.020035,-23.468431 -2.948811,-31.182105 -2.31287,-2.560064 -2.382279,-2.755903 -1.266103,-3.57207 1.251837,-0.915363 4.70634,-1.699292 12.494815,-2.835441 2.924385,-0.426603 8.124439,-2.027537 13.423353,-4.1326504 12.40427,-4.9278587 17.75484,-5.7037091 26.54752,-3.8494696 9.2346,1.9474456 16.78389,7.314614 20.30295,14.434399 0.93962,1.901043 2.65213,6.620506 3.80559,10.487713 1.66782,5.591671 2.0936,8.143698 2.0796,12.464538 -0.0235,7.235922 -1.7995,11.129628 -7.93854,17.403969 -2.47866,2.533289 -4.50664,4.727203 -4.50664,4.875385 0,0.148171 10.35515,0.058 23.01146,-0.200251 14.77874,-0.301642 23.01146,-0.247623 23.01146,0.150979 0,0.341356 -0.4276,1.832606 -0.95022,3.313889 -0.52263,1.481273 -1.58589,5.904005 -2.36281,9.828275 -2.59836,13.124538 -1.42693,27.87532 3.30626,41.63256 0.66899,1.94443 1.15992,3.54182 1.09096,3.54978 -4.34483,0.50099 -156.66081,2.59479 -158.96839,2.18524 z m 51.020249,-2.83922 c 18.169531,-0.35173 48.972321,-0.9236 68.450651,-1.27081 19.47832,-0.34722 35.50389,-0.72006 35.61236,-0.82852 0.10849,-0.10848 -0.23843,-1.62203 -0.77091,-3.36345 -4.50992,-14.74916 -4.98965,-28.677267 -1.50333,-43.646542 0.68196,-2.928163 1.23994,-5.549701 1.23994,-5.825641 0,-0.275939 -10.71471,-0.375421 -23.81047,-0.221072 -18.81275,0.221736 -24.32906,0.476905 -26.2811,1.215658 -9.33105,3.531386 -28.99414,3.80222 -34.17347,0.470696 -1.272081,-0.81825 -4.09756,-0.896543 -19.495817,-0.540258 -23.038059,0.533069 -49.871508,2.009808 -53.164534,2.925845 -8.353986,2.323878 -11.102996,7.795644 -11.745504,23.378843 -0.219683,5.328445 -0.197984,9.563031 0.0483,9.410191 0.246234,-0.15284 28.003817,-0.82757 61.683501,-1.49942 33.679704,-0.67184 66.629134,-1.38358 73.220964,-1.58165 6.59182,-0.19807 11.98513,-0.14208 11.98513,0.12441 0,0.26649 -4.81802,0.5692 -10.70672,0.67269 -5.8887,0.10348 -38.17666,0.74748 -71.751018,1.43109 -33.57436,0.68362 -61.728258,1.24464 -62.564215,1.24669 -1.414183,0.003 -1.491546,0.18114 -1.112112,2.55397 0.704574,4.40618 2.91496,9.39052 5.374888,12.12017 2.085711,2.31442 2.83199,2.69571 6.206045,3.17075 5.473379,0.77062 15.796348,0.78155 53.257471,0.0564 z m -47.647654,-9.33823 c 0.415881,-0.41587 124.879405,-2.81954 138.851025,-2.68153 11.63184,0.1149 -13.5643,0.8585 -48.26015,1.42425 -14.94147,0.24364 -40.829366,0.70792 -57.52865,1.03171 -16.699293,0.3238 -31.057492,0.59468 -31.907102,0.60196 -0.84961,0.007 -1.369414,-0.16209 -1.155123,-0.37639 z M 21.143084,96.287209 c 0,-0.279646 4.175263,-0.508439 9.278357,-0.508439 11.238127,0 112.294579,-1.712608 130.867849,-2.21783 7.29494,-0.198433 13.2633,-0.140155 13.263,0.129515 -2.9e-4,0.269659 -4.53068,0.56642 -10.06751,0.659459 -5.53683,0.09303 -36.53016,0.594094 -68.874043,1.113449 -32.343896,0.519365 -62.330705,1.031592 -66.637361,1.138294 -4.306666,0.106691 -7.830292,-0.03482 -7.830292,-0.314448 z m 7.990094,-8.192214 c 1.406248,-0.278778 25.999748,-0.828921 54.65222,-1.22256 28.652472,-0.393629 61.299982,-0.891621 72.550022,-1.106658 11.25005,-0.215037 20.2978,-0.218346 20.10608,-0.0071 -0.1917,0.210983 -28.0931,0.814369 -62.0031,1.340852 -33.910001,0.526472 -67.551247,1.079934 -74.758311,1.229903 -7.344605,0.152838 -11.980015,0.04993 -10.546911,-0.234184 z m 4.866817,-7.943038 c 0.157208,-0.157209 25.445847,-0.722659 56.196969,-1.256555 30.751136,-0.533907 63.821336,-1.15547 73.489346,-1.381271 9.66801,-0.22581 17.39454,-0.219785 17.17008,0.01338 -0.22446,0.233163 -30.71464,0.977154 -67.75597,1.653319 -72.445363,1.32242 -79.538812,1.409515 -79.100425,0.971129 z M 46.189604,63.277972 C 41.449984,61.591139 34.658576,56.78597 28.771563,50.95409 c -5.506884,-5.455315 -7.503672,-8.460178 -6.18792,-9.311861 0.438162,-0.283629 4.199475,-0.65951 8.35847,-0.835283 l 7.561797,-0.319605 1.165467,-3.315542 c 1.655106,-4.708455 4.360696,-9.466813 7.247634,-12.746544 2.38666,-2.7114 2.444723,-2.882445 1.441979,-4.248061 C 44.42363,14.817736 40.93984,9.0931395 41.09955,8.2484001 41.992775,3.523877 67.65419,12.530794 75.41685,20.293454 c 11.107796,11.107806 5.898807,34.217153 -9.411731,41.754503 -3.667906,1.805708 -4.910798,2.07694 -10.294437,2.246545 -4.752855,0.149734 -6.883242,-0.07771 -9.521078,-1.01653 z M 60.570248,55.92625 c 2.505441,-2.296061 3.115363,-5.16126 1.510366,-7.095164 -1.13426,-1.366688 -2.112895,-1.247631 -1.653074,0.201128 0.828635,2.610826 -1.853314,6.476491 -4.493315,6.476491 -1.628372,0 -2.178648,1.558382 -0.753355,2.133502 1.829307,0.73814 3.181178,0.307708 5.389378,-1.715957 z M 71.805465,37.271577 c 2.133737,-2.133747 2.799721,-5.654606 1.457153,-7.703617 -0.556832,-0.849845 -1.437261,-1.545167 -1.956493,-1.545167 -1.130972,0 -1.146126,0.135621 -0.23784,2.129091 0.918407,2.01569 -0.725436,5.692899 -3.010316,6.733968 -0.881787,0.401767 -1.426232,1.016907 -1.209877,1.366973 0.722536,1.169103 3.321445,0.65467 4.957373,-0.981248 z"
     id="path825"
     inkscape:connector-curvature="0" />
</svg>
