<?xml version="1.0" encoding="UTF-8" standalone="no"?>
<svg
   xmlns:dc="http://purl.org/dc/elements/1.1/"
   xmlns:cc="http://creativecommons.org/ns#"
   xmlns:rdf="http://www.w3.org/1999/02/22-rdf-syntax-ns#"
   xmlns:svg="http://www.w3.org/2000/svg"
   xmlns="http://www.w3.org/2000/svg"
   xmlns:sodipodi="http://sodipodi.sourceforge.net/DTD/sodipodi-0.dtd"
   xmlns:inkscape="http://www.inkscape.org/namespaces/inkscape"
   version="1.0"
   width="256"
   height="256"
   viewBox="0 0 192.00008 192.00008"
   id="svg10"
   sodipodi:docname="novel-up.svg"
   inkscape:version="0.92.4 (5da689c313, 2019-01-14)">
  <metadata
     id="metadata17">
    <rdf:RDF>
      <cc:Work
         rdf:about="">
        <dc:format>image/svg+xml</dc:format>
        <dc:type
           rdf:resource="http://purl.org/dc/dcmitype/StillImage" />
        <dc:title></dc:title>
      </cc:Work>
    </rdf:RDF>
  </metadata>
  <defs
     id="defs15" />
  <sodipodi:namedview
     pagecolor="#ffffff"
     bordercolor="#666666"
     borderopacity="1"
     objecttolerance="10"
     gridtolerance="10"
     guidetolerance="10"
     inkscape:pageopacity="0"
     inkscape:pageshadow="2"
     inkscape:window-width="1920"
     inkscape:window-height="1027"
     id="namedview13"
     showgrid="false"
     inkscape:pagecheckerboard="true"
     inkscape:zoom="2.3930996"
     inkscape:cx="8.8201581"
     inkscape:cy="124.35151"
     inkscape:window-x="0"
     inkscape:window-y="36"
     inkscape:window-maximized="1"
     inkscape:current-layer="svg10">
    <sodipodi:guide
       position="0.4020333,95.712871"
       orientation="0,127.99999"
       id="guide844"
       inkscape:locked="false" />
    <sodipodi:guide
       position="96.402069,95.712871"
       orientation="-128,0"
       id="guide846"
       inkscape:locked="false" />
  </sodipodi:namedview>
  <style
     type="text/css"
     id="style2">@media (prefers-color-scheme:light){g{fill:#000}#face,#ear{fill:#fff}}@media (prefers-color-scheme:dark){g{fill:#fff}#face,#ear{fill:#000}}</style>
  <path
     style="fill:#000000;stroke-width:1.20202124"
     d="M 28.735438,188.93894 C 17.948233,185.17463 10.652164,178.18865 5.232969,166.43531 L 2.4923568,160.49139 V 96.75898 33.026583 L 6.4494092,24.988668 C 10.534028,16.691633 16.867843,10.158752 24.2014,6.6787512 32.49451,2.7434137 41.06144,2.2983326 101.36479,2.6698597 c 58.66478,0.3614315 59.90155,0.4182711 65.46757,3.0087862 7.63798,3.5548594 16.08422,11.5608541 19.97734,18.9360821 l 3.19798,6.058362 v 66.111165 66.111175 l -3.18583,6.0101 c -4.30863,8.12831 -11.0935,14.71524 -19.05156,18.49576 l -6.61112,3.14063 -63.106127,0.28229 c -58.151008,0.26013 -63.593838,0.11218 -69.317605,-1.88527 z m 89.751972,-38.06372 v -31.85357 l 31.55306,0.001 31.55305,0.001 -0.35182,-22.238417 -0.35184,-22.238763 h -7.7618 c -7.35991,0 -7.76182,0.147288 -7.76182,2.842939 0,6.00076 -8.21787,12.697122 -20.08995,16.370418 -5.9907,1.853564 -6.82049,2.527289 -8.25619,6.703393 -3.36325,9.78307 -9.64126,11.27322 -34.97529,8.30175 -20.807701,-2.44056 -24.617978,-1.85095 -33.281791,5.15023 l -5.574893,4.50504 5.111746,0.60101 5.111746,0.60101 0.320459,31.55307 0.320458,31.55305 h 22.217431 22.217444 z m -88.348556,-8.36637 c 8.594449,-7.15808 17.789908,-15.3276 20.434353,-18.15449 2.644446,-2.82687 8.47508,-8.3936 12.956967,-12.37047 11.222034,-9.95756 15.26023,-10.75479 40.485196,-7.99273 17.04911,1.86681 19.17558,1.8842 23.23064,0.1899 3.76731,-1.57408 4.46363,-2.43714 4.46363,-5.532439 0,-2.017071 -0.54091,-3.667397 -1.20202,-3.667397 -0.66111,0 -1.20202,-0.540909 -1.20202,-1.202021 0,-0.661111 0.78345,-1.202021 1.74099,-1.202021 4.80106,0 21.54939,-6.480398 25.33219,-9.801726 5.65372,-4.964025 5.81922,-10.059182 0.40077,-12.337477 l -3.77863,-1.588782 8.55597,-4.496039 C 180.47308,54.412991 185.77242,40.584126 171.74083,37.777809 163.207,36.071043 137.83788,45.44481 117.8864,57.676766 102.02055,67.40387 90.177932,78.021673 49.972197,118.567 c -22.147249,22.33429 -39.185894,39.78629 -37.863669,38.7822 1.322223,-1.00409 9.435866,-7.68225 18.030326,-14.84035 z M 66.137196,95.202043 C 89.595064,72.019695 97.295995,65.364377 111.5758,55.933018 l 6.91161,-4.564922 V 31.076802 10.78551 l -21.936892,0.327619 -21.93688,0.327623 -0.601011,31.252552 -0.601009,31.252557 -31.252557,0.601009 -31.252554,0.601011 -0.327623,21.93688 -0.327619,21.936889 H 26.142888 42.0345 Z"
     id="path825"
     inkscape:connector-curvature="0" />
</svg>
