<?xml version="1.0" encoding="UTF-8" standalone="no"?>
<svg
   xmlns:dc="http://purl.org/dc/elements/1.1/"
   xmlns:cc="http://creativecommons.org/ns#"
   xmlns:rdf="http://www.w3.org/1999/02/22-rdf-syntax-ns#"
   xmlns:svg="http://www.w3.org/2000/svg"
   xmlns="http://www.w3.org/2000/svg"
   xmlns:sodipodi="http://sodipodi.sourceforge.net/DTD/sodipodi-0.dtd"
   xmlns:inkscape="http://www.inkscape.org/namespaces/inkscape"
   version="1.0"
   width="256"
   height="256"
   viewBox="0 0 192.00008 192.00008"
   id="svg10"
   sodipodi:docname="novema.svg"
   inkscape:version="0.92.4 (5da689c313, 2019-01-14)">
  <metadata
     id="metadata17">
    <rdf:RDF>
      <cc:Work
         rdf:about="">
        <dc:format>image/svg+xml</dc:format>
        <dc:type
           rdf:resource="http://purl.org/dc/dcmitype/StillImage" />
        <dc:title></dc:title>
      </cc:Work>
    </rdf:RDF>
  </metadata>
  <defs
     id="defs15" />
  <sodipodi:namedview
     pagecolor="#ffffff"
     bordercolor="#666666"
     borderopacity="1"
     objecttolerance="10"
     gridtolerance="10"
     guidetolerance="10"
     inkscape:pageopacity="0"
     inkscape:pageshadow="2"
     inkscape:window-width="1920"
     inkscape:window-height="1027"
     id="namedview13"
     showgrid="false"
     inkscape:pagecheckerboard="true"
     inkscape:zoom="2.3930996"
     inkscape:cx="8.8201581"
     inkscape:cy="124.35151"
     inkscape:window-x="0"
     inkscape:window-y="36"
     inkscape:window-maximized="1"
     inkscape:current-layer="svg10">
    <sodipodi:guide
       position="0.4020333,95.712871"
       orientation="0,127.99999"
       id="guide844"
       inkscape:locked="false" />
    <sodipodi:guide
       position="96.402069,95.712871"
       orientation="-128,0"
       id="guide846"
       inkscape:locked="false" />
  </sodipodi:namedview>
  <style
     type="text/css"
     id="style2">@media (prefers-color-scheme:light){g{fill:#000}#face,#ear{fill:#fff}}@media (prefers-color-scheme:dark){g{fill:#fff}#face,#ear{fill:#000}}</style>
  <path
     style="fill:#000000;stroke-width:3.07710648"
     d="m 42.438252,176.60506 -5.302365,-8.97618 14.975758,-4.97426 c 8.236769,-2.73581 20.775332,-9.93828 27.863443,-16.00544 13.405537,-11.47452 30.979012,-38.65742 31.029012,-47.996041 0.0385,-6.864124 1.00391,-6.778606 15.1018,1.335207 l 11.67646,6.720014 -11.06694,19.36486 c -14.60894,25.56305 -32.041385,43.42283 -51.00161,52.25207 -20.444927,9.52056 -26.830562,9.19041 -33.275558,-1.72023 z M 183.90163,115.57721 c -0.73979,-1.2693 -1.38226,-12.44599 -1.42752,-24.837103 -0.0513,-12.39099 -0.6385,-23.084956 -1.31726,-23.764099 -0.67953,-0.679527 -6.64206,0.257708 -13.25065,2.082688 -9.94585,2.746188 -25.43048,1.306744 -89.895202,-8.356777 C 30.345741,53.556625 0.54384964,47.790258 1.194401,45.838604 1.7790509,44.08491 7.8562054,43.054208 14.699431,43.54834 25.202104,44.306077 28.273824,43.079082 34.403417,35.678259 l 7.26184,-8.768468 26.221808,3.657012 c 75.211895,10.489467 97.772585,14.378543 105.656775,18.213385 7.79392,3.790994 8.5605,3.689577 7.65506,-1.01288 C 179.50996,38.997173 167.47361,35.73198 98.724531,25.394061 62.337763,19.922455 31.966735,14.931518 31.233358,14.303019 c -0.733377,-0.628243 -0.03846,-2.381552 1.538552,-3.895488 1.689075,-1.6188138 9.843019,-1.6141981 19.796044,0.01141 9.308243,1.520219 40.463932,6.29499 69.234876,10.610758 70.23749,10.53588 67.45617,8.1851 68.55764,57.947147 0.52439,23.699733 -0.30643,38.907553 -2.12628,38.907553 -1.64304,0 -3.59277,-1.03852 -4.33256,-2.30783 z"
     id="path825"
     inkscape:connector-curvature="0" />
</svg>
