<?xml version="1.0" encoding="UTF-8" standalone="no"?>
<svg
   xmlns:dc="http://purl.org/dc/elements/1.1/"
   xmlns:cc="http://creativecommons.org/ns#"
   xmlns:rdf="http://www.w3.org/1999/02/22-rdf-syntax-ns#"
   xmlns:svg="http://www.w3.org/2000/svg"
   xmlns="http://www.w3.org/2000/svg"
   xmlns:sodipodi="http://sodipodi.sourceforge.net/DTD/sodipodi-0.dtd"
   xmlns:inkscape="http://www.inkscape.org/namespaces/inkscape"
   version="1.0"
   width="256"
   height="256"
   viewBox="0 0 192.00008 192.00008"
   id="svg10"
   sodipodi:docname="tugi-kuru.svg"
   inkscape:version="0.92.4 (5da689c313, 2019-01-14)">
  <metadata
     id="metadata17">
    <rdf:RDF>
      <cc:Work
         rdf:about="">
        <dc:format>image/svg+xml</dc:format>
        <dc:type
           rdf:resource="http://purl.org/dc/dcmitype/StillImage" />
        <dc:title></dc:title>
      </cc:Work>
    </rdf:RDF>
  </metadata>
  <defs
     id="defs15" />
  <sodipodi:namedview
     pagecolor="#ffffff"
     bordercolor="#666666"
     borderopacity="1"
     objecttolerance="10"
     gridtolerance="10"
     guidetolerance="10"
     inkscape:pageopacity="0"
     inkscape:pageshadow="2"
     inkscape:window-width="1920"
     inkscape:window-height="1027"
     id="namedview13"
     showgrid="false"
     inkscape:pagecheckerboard="true"
     inkscape:zoom="2.3930996"
     inkscape:cx="79.132799"
     inkscape:cy="124.35151"
     inkscape:window-x="0"
     inkscape:window-y="36"
     inkscape:window-maximized="1"
     inkscape:current-layer="svg10">
    <sodipodi:guide
       position="0.4020333,95.712871"
       orientation="0,127.99999"
       id="guide844"
       inkscape:locked="false" />
    <sodipodi:guide
       position="96.402069,95.712871"
       orientation="-128,0"
       id="guide846"
       inkscape:locked="false" />
  </sodipodi:namedview>
  <style
     type="text/css"
     id="style2">@media (prefers-color-scheme:light){g{fill:#000}#face,#ear{fill:#fff}}@media (prefers-color-scheme:dark){g{fill:#fff}#face,#ear{fill:#000}}</style>
  <path
     style="fill:#000000;stroke-width:3.0656507"
     d="m 102.44747,187.82761 c -2.12692,-0.85711 -5.375993,-4.37723 -7.220109,-7.8229 -2.992329,-5.59123 0.880097,-10.50675 36.012309,-45.71751 21.65089,-21.69905 41.52332,-39.452728 44.16119,-39.452728 6.19286,0 12.1535,6.013138 12.1535,12.260678 0,4.2297 -76.51106,83.19201 -79.97039,82.53238 -0.69743,-0.13285 -3.00957,-0.94269 -5.1365,-1.79992 z M 74.738478,161.66562 c -2.023328,-2.02333 -3.678778,-5.8338 -3.678778,-8.46771 0,-6.61938 92.29877,-98.216877 98.96886,-98.216877 2.96704,0 6.99952,3.522175 8.96102,7.82724 3.41769,7.501005 1.59541,9.801264 -43.71411,55.181677 -26.00437,26.04499 -49.43551,47.35445 -52.069413,47.35445 -2.633903,0 -6.44425,-1.65545 -8.467579,-3.67878 z M 52.736059,137.82381 c -3.410917,-3.41092 -6.201553,-7.25026 -6.201553,-8.53183 0,-1.28169 25.525745,-27.82817 56.723964,-58.992154 59.49083,-59.425694 60.69601,-60.197727 70.27323,-45.014587 2.72115,4.313879 -5.45328,13.888284 -50.37832,59.005827 -29.494609,29.620944 -56.009153,55.178864 -58.921136,56.795364 -3.931823,2.18248 -6.890941,1.34262 -11.496185,-3.26262 z M 30.439848,116.04838 c -2.950687,-1.71856 -5.364885,-5.44676 -5.364885,-8.28492 0,-6.52536 61.071818,-68.110801 67.542765,-68.110801 6.125168,0 12.164112,5.985808 12.164112,12.057071 0,5.218884 -60.913043,67.70435 -65.856786,67.55669 -1.716124,-0.0511 -5.534518,-1.49936 -8.485206,-3.21804 z M 10.477873,95.858015 C 8.3509515,95.00091 5.1060895,91.48857 3.2670832,88.052362 0.32112222,82.547733 2.7778567,78.933077 23.923427,57.663093 37.123475,44.385127 50.094109,33.521361 52.747172,33.521361 c 6.248304,0 12.181229,6.012249 12.181229,12.344219 0,4.201473 -46.139297,52.512143 -49.46476,51.792482 -0.615685,-0.132844 -2.858718,-0.942687 -4.985768,-1.800047 z M 106.78984,37.11213 c -6.78761,-7.500238 -6.46954,-9.462382 3.16401,-19.517583 8.83494,-9.2217294 15.90778,-10.8173999 21.8057,-4.919601 5.89792,5.897926 4.30225,12.970762 -4.91947,21.805708 -10.15087,9.725133 -13.26123,10.133247 -20.05024,2.631476 z M 66.936274,30.980831 C 60.148798,23.480594 60.46686,21.51845 70.100407,11.463247 78.935352,2.2415193 86.008188,0.64584896 91.906114,6.5436469 97.803912,12.441573 96.208241,19.514409 86.986641,28.349355 76.835766,38.074488 73.725409,38.482603 66.936274,30.980831 Z"
     id="path825"
     inkscape:connector-curvature="0" />
</svg>
