<svg xmlns="http://www.w3.org/2000/svg" width="400" height="400"><path d="M265.892 11.463h3.517l3.767.016 3.88.004c3.391.004 6.782.014 10.174.025 3.466.01 6.931.014 10.397.02 6.791.01 13.582.027 20.373.048.054 2.459.094 4.916.125 7.375l.05 2.117c.018 1.837-.072 3.674-.175 5.508l-2 2c-.392 2.853-.392 2.853-.5 6.125-.209 4.44-.873 8.35-2.019 12.64-1.144 5.316-1.219 10.86-1.516 16.278-.432 5.927-1.46 9.036-4.965 13.957-.37 3.126-.37 3.126-.062 6.313.158 5.008-.25 8.589-2.075 13.215-1.544 4.423-2.303 9.041-3.215 13.629-.648 2.843-.648 2.843-1.648 3.843a91.488 91.488 0 0 0-.063 5.063l.028 2.785.035 2.152c-3.281.982-6.27 1.134-9.688 1.125l-2.949.008c-2.363-.133-2.363-.133-3.363-1.133-1.83-.208-3.664-.367-5.5-.5-5.389-.388-5.389-.388-6.5-1.5-1.5.006-3.001.056-4.5.125-4.629.06-8.163-.78-12.469-2.394-2.639-.95-5.258-1.352-8.031-1.73-4.757-.757-4.757-.757-7-3a74.71 74.71 0 0 1 .25-7.313l.266-3.988c.437-3.339 1.238-5.624 2.484-8.7.357-3.316.502-6.61.656-9.94.344-3.06.344-3.06 1.438-5.15 1.247-2.627.545-4.103-.094-6.91.042-8.792 1.064-16.128 5-24 0-2.123-.002-4.247-.02-6.37.054-7.233.808-13.69 3.32-20.481 1.092-3.351 1.382-6.646 1.7-10.149 3.696-.854 7.102-1.122 10.892-1.113zM240 125.576c8.89.537 17.44 1.61 26.148 3.455 6.462 1.341 12.935 2.314 19.477 3.17l3.043.407c2.444.325 4.888.648 7.332.968.233 4.774-.675 8.434-2 13-.6 3.424-1.05 6.866-1.5 10.313-2.622 19.81-2.622 19.81-4.5 21.687-.283 2.254-.448 4.509-.621 6.774-.379 2.226-.379 2.226-2.379 5.226-.456 2.317-.456 2.317-.633 4.887l-.254 2.842-.238 2.959-.262 2.994c-.212 2.439-.416 4.878-.613 7.318-12.98.506-25.59.673-38.313-2.25l-2.742-.62c-4.747-1.198-8.57-2.372-11.945-6.13-.375-2.093-.375-2.093 0-4.5l.406-2.906.594-3.594c.242-1.593.481-3.187.719-4.781.392-2.629.787-5.257 1.193-7.884.667-4.339 1.266-8.641 1.588-13.022.4-5.246 1.378-10.362 2.337-15.526 1.488-8.213 2.338-16.485 3.163-24.787zM339 99.576c1.907 1.399 3.613 2.922 5.352 4.524 2.048 1.834 4.277 3.089 6.648 4.476 2.046 1.507 4.063 3.048 6.082 4.59 1.992 1.518 1.992 1.518 4.605 2.973 2.883 1.791 4.942 4.01 7.313 6.437a312.362 312.362 0 0 0 5.645 4.668l1.355 1.332v2l1.715.703c2.861 1.624 4.655 3.598 6.848 6.047l2.316 2.547c2.177 2.774 3.597 5.536 5.121 8.703a180.972 180.972 0 0 0 4 4c3.242 4.803 4.1 8.583 4.272 14.316l.098 3.217c.11 4.836.193 9.673.255 14.51.042 2.552.103 5.103.184 7.653.116 3.683.166 7.362.203 11.046l.147 3.448c-.007 3.232-.114 5.749-1.159 8.81-5.514 5.218-11.808 6.95-19.234 7.14-4.193-.212-6.363-.57-9.766-3.14-6.943-11.261-7.769-26.015-9.531-38.851-.645-7.083-.645-7.083-3.469-13.149a112.54 112.54 0 0 1-.875-4.5c-.965-5.016-2.379-9.706-4.125-14.5l-.719-1.988a408.095 408.095 0 0 0-2.281-6.012l-1.008-2.652-1.054-2.723-.973-2.523c-.89-2.258-.89-2.258-2.965-4.102l-.812-3.125c-1.44-5.4-4.64-9.7-7.848-14.207l-1.652-2.355-1.551-2.137c-1.343-2.57-1.352-4.317-1.137-7.176 3.06-1.53 4.725-.927 8 0zM238 214.576c1.625.141 3.25.288 4.875.438l2.742.246c2.383.316 2.383.316 4.383 1.316 1.872.182 3.748.321 5.625.438 5.023.375 9.543 1.168 14.375 2.562.028 1.792.047 3.584.063 5.375l.035 3.024c-.077 2.832-.296 5.51-.621 8.316-.586 5.531-.444 10.926-.164 16.473l.107 2.865c.248 5.31.875 9.911 2.58 14.947 1.495 4.485 1.875 8.327 1 13-3.78 7.346-9.565 12.565-15.738 17.887-5 4.67-7.572 10.52-10.215 16.727-1.847 4.21-3.96 8.29-6.047 12.386h-2c.375-9.589 1.886-18.893 3.54-28.332.8-4.588 1.548-9.143 2.023-13.777.437-3.89.437-3.89 1.437-5.89.076-1.458.137-2.917.188-4.376.23-2.449.23-2.449.812-4.625 3-2.187 3-2.187 6-4 1.323-2.935 1.323-2.935 1-6-1.373-2.54-1.373-2.54-4-4-3.584-.5-3.584-.5-7 0-2.243 1.812-2.243 1.812-2.195 4.383l.07 2.742.055 2.758.07 2.117 3 1-.367 2.211c-1.221 7.607-2.168 15.206-2.935 22.87-.593 5.71-.593 5.71-1.698 7.92a389.384 389.384 0 0 0-1.162 10.35c-.545 5.036-1.513 9.759-2.838 14.65l-3-1 .14-2.028c.487-12.947-2.467-25.821-9.14-36.973l-1.688-2.875-1.312-2.125c-3.153-5.25-2.8-11.085-2-17 1.948-4.594 4.473-8.472 8-12 .71-1.985 1.367-3.989 2-6a366.07 366.07 0 0 1 1.438-3.812l1.562-4.188.824-2.16c1.748-4.833 2.483-9.218 2.86-14.332.508-4.032 1.865-7.729 3.316-11.508z" style="fill:#19b6cc"/><path style="fill:#19b6cc" d="M155 95.576c-3.333 3.225-4.257 5.56-4.563 10.063-.078 2.978-.09 4.465-1.875 6.89-1.562 2.047-1.562 2.047-2.37 4.746-1.35 6.416-2.89 12.582-6.192 18.301-1.791 1.727-2.923 2.822-3.922 5.13-1.274 3.744-2.583 7.127-4.785 10.433-2.916 3.929-5.511 7.355-6.98 12.062-1.486 5.084-3.28 9.916-6.692 14.043-3.077 3.383-5.417 6.579-7.558 10.645-3.89 7.405-8.672 13.968-13.876 20.5-1.892 2.307-3.192 4.2-4.386 6.949L91 217.576h-2c-3.517 2.414-6.482 4.801-8.188 8.75-.573 2.387-.573 2.387-2.624 3.188-2.188 1.062-2.188 1.062-4.25 3.625-2.468 3.136-5.334 5.5-8.438 8-2.848 2.244-5.539 4.475-8.133 7.011-5.118 5.245-8.583 9.27-16.367 9.426l-1-1c-3.341-.882-6.282-1.493-9.125-3.5-1.875-1.5-1.875-1.5-4.125-2.437L24 249.576c-6.523-3.446-6.523-3.446-24-10v6l6 3v2l3.438.75c5.499 1.373 11.495 3.183 15.562 7.25l2.375.938c2.6 1.052 4.461 2.299 6.625 4.062-1.043 3.024-1.874 3.927-4.688 5.563a328.628 328.628 0 0 1-7 2.937c-3.528 1.363-3.528 1.363-6.312 4.5l-16 4v5l10-1c1.044-1.169 1.044-1.169 3.04-1.867l2.585-1.008 2.766-1.094c5.395-2.132 10.572-4.512 15.734-7.156A120.907 120.907 0 0 1 40 270.576c3.188-.878 4.314-1.333 7.313.125 1.531 1.069 3.08 2.115 4.675 3.086 2.036 1.228 4.051 2.444 6.012 3.79 1.626 1.69 2.786 2.896 4.91 3.921 4.546 1.749 8.334 3.832 12.278 6.703 2.838 2.071 4.919 3.414 8.25 4.625l2.562.75c2.255 2.255 3.299 3.133 6.375 4.5 3.518 1.36 3.518 1.36 6.188 3 4.543 2.796 9.248 4.876 14.246 6.694 4.236 1.525 8.494 2.99 12.554 4.943 3.863 2.093 7.61 3.569 11.825 4.863 2.271.665 4.542 1.331 6.812 2 6.332 2.096 12.248 4.11 18.938 4.563 2.537.016 2.537.016 5.062.437 3.489 1.836 5.876 2.985 9.832 3.477 3.728.139 7.446.275 11.168.523 1 1 1 1 2.746 1.19l2.262.091 2.492.114c5.557.223 11.106.348 16.617 1.136l2.883.47v-2h8v-2a4547.268 4547.268 0 0 1-14.875-.938c-2.12-.13-4.238-.26-6.357-.397l-2.01-.13c-2.255-.143-4.51-.312-6.758-.536-2.196-1.098-2.196-1.098-7.307-2.002-8.315-1.456-16.534-3.052-24.459-6.04-3.648-1.412-7.037-2.81-10.937-3.294-4.196-.264-6.701-.299-10.36-2.539-2.937-2.125-2.937-2.125-4.949-2.879-4.266-1.303-8.145-2.746-12.113-4.808-2.294-1.194-4.46-2.304-6.922-3.098-2.653-.675-4.749-1.198-7.016-2.777-2.427-1.958-2.427-1.958-7.937-4.563-5.897-2.558-11.651-5.275-17.287-8.369l-2.15-1.193c-2.57-1.408-5.121-2.815-7.563-4.438-3.745-3.864-7.273-5.778-12.125-8a168.35 168.35 0 0 1-6.275-2.984c-2.077-1.318-2.918-2.666-3.6-5.016 3.127-1.012 5.108-2.092 7.625-4.25 1.907-1.68 3.689-2.924 5.922-4.164 4.527-2.338 8.7-4.555 12.516-7.96 4.98-4.612 10.166-9.18 15.87-12.88 2.454-1.5 3.875-2.251 4.942-4.996l.125-1.75c2 0 2 0 4.094-1.61l2.406-2.14c2.375-2.082 4.224-3.762 5.781-6.515l.719-1.735c2 0 2 0 3.656-1.172l1.844-1.578c2.074-1.74 3.402-3.073 4.719-5.453l.781-1.797h4c2.317-4.633 5.99-8.915 9.574-12.633a218.718 218.718 0 0 0 3.426-3.367v-2c3-1 3-1 4.613-3.004 5.368-8.082 11.045-15.662 17.387-22.996 4.645-5.348 8.932-10.527 12.25-16.812 1.27-2.485 2.445-4.795 4.156-7a164.792 164.792 0 0 0 3.594-4.188c.791-3.209.791-3.209 2-6l3.313-1.062c3.687-.938 3.687-.938 6.562-3.25 2.18-2.757 3.125-4.183 3.125-7.688-4.547-5.324-4.547-5.324-19.387-11.87l-2.613-1.13a1399.59 1399.59 0 0 0-3.875-1.687L169 99.576c-4.532-2.027-9.157-3.008-14-4z"/></svg>