<svg xmlns="http://www.w3.org/2000/svg" version="1.0" width="455.539" height="455.539" viewBox="0 0 341.654 341.654"><path d="M.627 171.04V23.37h50.526V318.71H.627Zm162.707 142.172c-2.961-1.102-5.644-3.436-7.03-6.117-1.029-1.99-1.298-3.535-1.275-7.333.035-5.966 1.232-10.848 5.325-21.707 6.542-17.36 9.075-26.113 7.556-26.113-.38 0-4.272 1.748-8.648 3.885-9.079 4.433-19.213 8.046-28.223 10.064-4.928 1.104-7.931 1.383-14.623 1.357-9.309-.035-12.706-.899-17.664-4.49-10.956-7.936-3.278-26.314 21.73-52.015 3.388-3.482 6.116-6.328 6.062-6.325-.053.003-4.79 1.732-10.526 3.842-21.584 7.942-29.1 9.804-37.417 9.27-8.152-.523-14.13-5.441-14.68-12.077-.737-8.881 6.865-24.23 20.477-41.345 7.348-9.24 13.802-16.12 84.019-89.564 20.693-21.644 39.112-40.941 40.932-42.883l3.308-3.531 25.326.177 25.327.176-14.734 16.842c-39.829 45.526-79.947 90.616-96.56 108.526-3.2 3.448-5.742 6.345-5.65 6.436.091.092 3.09-.761 6.665-1.896 12.506-3.968 22.859-4.993 27.795-2.751 2.669 1.212 5.903 4.817 8.148 9.084 1.21 2.3 1.424 3.574 1.426 8.466.002 5.58-.078 5.918-2.553 10.827-2.755 5.465-6.968 10.748-19.596 24.57-4.359 4.77-8.831 9.716-9.94 10.991l-2.013 2.318 3.217-1.297c13.543-5.46 22.15-7.75 29.082-7.737 5.676.01 8.49 1.087 11.938 4.565 4.067 4.102 4.893 6.32 4.899 13.162.005 5.958-.052 6.193-5.962 24.81-3.283 10.336-5.834 18.928-5.67 19.092.165.164 9.346-3.646 20.404-8.466a4399.516 4399.516 0 0 1 39.052-16.762c32.865-13.872 43.5-17.772 48.453-17.772 4.165 0 3.488 1.478-1.836 4.006-2.481 1.178-4.511 2.233-4.511 2.344 0 .11 1.53-.325 3.402-.969 4.302-1.48 4.515-1.468 4.09.227-.215.855-.016 1.677.512 2.115.693.575 2.759-.125 10.415-3.529 10.463-4.652 17.186-6.59 22.885-6.596 4.93-.005 5.613.318 5.613 2.659 0 3.254-3.3 6.394-10.682 10.16-7.348 3.749-35.903 16.455-75.934 33.789-15.053 6.517-27.504 11.993-27.67 12.167-.664.701 3.667-.978 25.564-9.91 29.582-12.069 62.336-24.93 62.66-24.605.14.14-.908 1.254-2.33 2.475-3.906 3.354-16.05 9.018-53.412 24.912-18.692 7.951-38.452 16.462-43.91 18.914-20.948 9.408-34.425 13.589-45.113 13.994-3.788.144-7.038-.029-8.12-.432z"/></svg>
