<svg xmlns="http://www.w3.org/2000/svg" version="1.0" width="256" height="256" viewBox="0 0 192 192"><path d="M90.545 182.777c-.513-.513-3.067-.789-5.675-.613-7.24.488-15.437-4.303-24.954-14.582C42.94 149.245 34.63 124.147 35.457 93.7c.244-8.951.14-16.275-.23-16.275s-6.049 4.074-12.62 9.054C8.96 96.817 6.805 97.875 3.253 95.974c-11.556-6.185 16.28-31.554 53.996-49.21 50.034-23.423 99.137-28.482 123.131-12.686 15.632 10.29 13.474 26.618-6.14 46.444-6.891 6.966-12.186 10.895-19.436 14.421a9267.723 9267.723 0 0 1-25.36 12.261c-11.334 5.46-15.808 8.32-16.96 10.848-1.621 3.558-4.107 18.411-4.153 24.816-.026 3.663-.022 3.665 7.28 2.807 6.613-.777 7.308-.617 7.308 1.685 0 5.214-3.662 8.219-11.158 9.155-8.708 1.088-12.156.117-15-4.222-2.532-3.866-5.557-19.435-5.657-29.125-.1-9.643 4.999-15.12 23.365-25.094 16.099-8.743 23.514-15.414 25.869-23.275 2.402-8.016.423-12.866-7.47-18.312l-6.628-4.573-13.285.587c-11.101.491-15.084 1.31-24.22 4.982-6.112 2.457-11.239 5.357-11.626 6.577-1.516 4.776-3.267 22.637-3.305 33.716-.094 26.663 5.687 50.162 17.329 70.44 5.635 9.816 6.4 13.426 3.113 14.687-2.612 1.003-2.572 1.004-3.702-.126zm-2.037-88.432c-4.693-2.414-6.338-5.607-4.209-8.173 2.647-3.189 5.407-2.568 5.407 1.218 0 2.917.572 3.321 4.703 3.321 2.587 0 7.047-1.196 9.911-2.657 8.288-4.228 12.267-3.097 6.73 1.913-3.101 2.808-11.463 5.927-16.03 5.98-1.826.021-4.757-.7-6.512-1.602zm-2.788-18.65c0-3.784 7.176-13.78 10.693-14.897 1.426-.452 3.72-.465 5.098-.027 2.279.723 2.008 1.565-2.989 9.301-4.504 6.973-6.153 8.522-9.148 8.594-2.954.071-3.654-.498-3.654-2.971zm24.067 1.853c-2.66-1.685-1.013-6.675 4.123-12.486 3.407-3.855 5.013-4.752 7.35-4.101 1.643.457 2.989 1.277 2.989 1.82 0 1.938-9.893 15.973-11.245 15.953-.757-.011-2.205-.545-3.217-1.186z"/></svg>
