<svg xmlns="http://www.w3.org/2000/svg" version="1.0" width="256" height="256" viewBox="0 0 192 192"><path d="M.709 96.287V.281h192.013v192.013H.709Zm107.486 60.687c9.68-11.72 9.792-11.814 13.392-11.283 8.194 1.21 26.322 2.743 26.799 2.266.476-.476-1.057-18.604-2.267-26.798-.53-3.6-.433-3.715 11.283-13.416 6.5-5.381 11.818-10.108 11.818-10.504 0-.396-5.318-5.099-11.819-10.451-11.728-9.657-11.815-9.76-11.282-13.367 1.235-8.364 2.739-26.332 2.245-26.825-.52-.521-22.524 1.3-27.792 2.299-2.37.45-3.65-.72-12.35-11.305-5.338-6.494-10.006-11.923-10.374-12.064-.368-.14-5.113 5.17-10.544 11.8-8.807 10.751-10.156 12.001-12.482 11.56-5.368-1.016-27.242-2.803-27.777-2.269-.534.534 1.254 22.408 2.27 27.776.44 2.326-.81 3.676-11.561 12.483-6.63 5.431-11.94 10.176-11.8 10.544.142.367 5.57 5.036 12.064 10.374 10.585 8.7 11.755 9.979 11.305 12.35-1 5.267-2.82 27.271-2.3 27.792.495.494 18.47-1.011 26.838-2.248 3.629-.536 3.698-.477 13.501 11.517 5.42 6.63 10.128 11.95 10.463 11.82.335-.128 5.002-5.551 10.37-12.051zm-18.86-12.279c-6.405-7.767-8.278-9.459-10-9.035-1.167.288-6.65.83-12.184 1.206l-10.064.684.763-8.38c.42-4.61.97-10.09 1.224-12.177.453-3.734.312-3.918-8.7-11.36-5.04-4.16-9.279-7.864-9.42-8.23-.143-.366 3.98-4.126 9.16-8.354 9.286-7.58 9.412-7.742 8.959-11.476-.898-7.389-1.962-20.353-1.693-20.622.268-.268 13.232.796 20.621 1.693 3.734.454 3.896.327 11.476-8.958 4.229-5.18 7.988-9.303 8.354-9.16.366.141 4.07 4.38 8.23 9.419 7.442 9.013 7.626 9.154 11.36 8.7 2.088-.253 7.567-.804 12.177-1.223l8.38-.763-.683 10.064c-.376 5.534-.917 11.01-1.202 12.167-.418 1.698 1.285 3.61 8.804 9.883 5.127 4.279 9.322 8.09 9.322 8.47 0 .38-4.2 4.188-9.335 8.461-7.63 6.35-9.24 8.165-8.813 9.928.288 1.186.843 6.611 1.233 12.055l.71 9.899-9.899-.71c-5.444-.39-10.869-.945-12.055-1.233-1.764-.428-3.57 1.18-9.902 8.812-4.26 5.135-8.014 9.44-8.343 9.566-.33.127-4.146-4.07-8.48-9.326z"/></svg>
