<?xml version="1.0" encoding="UTF-8" standalone="no"?>
<svg
   xmlns:dc="http://purl.org/dc/elements/1.1/"
   xmlns:cc="http://creativecommons.org/ns#"
   xmlns:rdf="http://www.w3.org/1999/02/22-rdf-syntax-ns#"
   xmlns:svg="http://www.w3.org/2000/svg"
   xmlns="http://www.w3.org/2000/svg"
   xmlns:sodipodi="http://sodipodi.sourceforge.net/DTD/sodipodi-0.dtd"
   xmlns:inkscape="http://www.inkscape.org/namespaces/inkscape"
   width="400"
   height="400"
   version="1.1"
   id="svg6"
   sodipodi:docname="narou.svg"
   inkscape:version="0.92.4 (5da689c313, 2019-01-14)">
  <metadata
     id="metadata12">
    <rdf:RDF>
      <cc:Work
         rdf:about="">
        <dc:format>image/svg+xml</dc:format>
        <dc:type
           rdf:resource="http://purl.org/dc/dcmitype/StillImage" />
      </cc:Work>
    </rdf:RDF>
  </metadata>
  <defs
     id="defs10" />
  <sodipodi:namedview
     pagecolor="#ffffff"
     bordercolor="#666666"
     borderopacity="1"
     objecttolerance="10"
     gridtolerance="10"
     guidetolerance="10"
     inkscape:pageopacity="0"
     inkscape:pageshadow="2"
     inkscape:window-width="1920"
     inkscape:window-height="1027"
     id="namedview8"
     showgrid="false"
     inkscape:zoom="2.36"
     inkscape:cx="175.73757"
     inkscape:cy="214.51217"
     inkscape:window-x="0"
     inkscape:window-y="36"
     inkscape:window-maximized="1"
     inkscape:current-layer="svg6" />
  <path
     d="m 318,11.576 c -5.84042,40.153869 -16.19515,79.154597 -18,113 -18.19108,0.008 -45.18431,-1.35669 -60,-8.999 2.20228,-34.889306 10.53616,-71.735001 15,-103.001 20.67026,-2.458728 43.61796,-1.053096 63,-1 z m -78,114 c 19.29958,1.6077 38.39456,5.69606 56,8 -1.05508,29.47212 -10.92453,52.32899 -13,78 -15.50875,-0.59127 -42.18088,2.12951 -53,-9 1.15148,-24.63326 7.30024,-53.76845 10,-77 z m 129,-3 c 20.08012,21.10864 39.27808,68.07525 31,93 -5.514,5.218 -11.808,6.95 -19.234,7.14 -4.193,-0.212 -6.363,-0.57 -9.766,-3.14 -3.45792,-43.26776 -30.58258,-83.10125 -40,-120 8.17072,-3.562955 32.41319,17.56258 38,23 z m -131,92 c 11.01243,1.88305 22.12725,2.19185 32,5 0.23581,11.4313 -1.20926,22.62483 -0.687,33.188 l 0.107,2.865 c 0.248,5.31 0.875,9.911 2.58,14.947 1.495,4.485 1.875,8.327 1,13 -3.78,7.346 -9.565,12.565 -15.738,17.887 -5,4.67 -7.572,10.52 -10.215,16.727 -1.847,4.21 -3.96,8.29 -6.047,12.386 h -2 c 2.52919,-18.99295 3.79963,-39.31653 8,-57 3,-2.187 3,-2.187 6,-4 1.323,-2.935 1.323,-2.935 1,-6 -1.373,-2.54 -1.373,-2.54 -4,-4 -3.584,-0.5 -3.584,-0.5 -7,0 -3.02337,4.05236 -4.33973,11.22009 1,13 -3.37979,19.44146 -4.48792,40.23323 -9,58.001 l -3,-1 0.14,-2.028 c 0.487,-12.947 -2.467,-25.821 -9.14,-36.973 l -1.688,-2.875 -1.312,-2.125 c -3.153,-5.25 -2.8,-11.085 -2,-17 1.948,-4.594 4.473,-8.472 8,-12 6.40175,-13.30356 7.73807,-29.43547 12,-42 z"
     id="path2"
     inkscape:connector-curvature="0"
     sodipodi:nodetypes="ccccccccccccccccccccccccccccccccccccccccc" />
  <path
     d="m 155,95.576 c -3.333,3.225 -4.257,5.56 -4.563,10.063 -9.28497,32.07907 -26.78107,56.73645 -40.374,82.25 C 80.087368,225.45098 59.497627,246.48873 42.271186,260.3967 26.367409,252.36978 9.1615256,243.01233 0,239.576 v 6 c 10.439774,7.83233 26.546828,11.10959 35.797729,18.59924 -7.914519,10.45897 -26.3831915,15.74204 -36.64518663,18.30754 L 0,285.576 C 16.576403,280.04251 26.197318,275.25793 38.66676,269.55303 42.965489,266.7833 44.314,269.243 47.313,270.701 105.5389,305.84507 162.28339,317.49101 224,329.577 v -2 C 165.14162,309.18894 104.87536,292.7351 56.6,268.592 54.523,267.274 50.292169,265.2904 48.338983,263.78786 78.617366,247.44182 115.66398,215.88395 137.574,192.943 154.19883,172.31987 174.54224,148.7354 185,127.576 l 3.313,-1.062 c 3.687,-0.938 3.687,-0.938 6.562,-3.25 2.18,-2.757 3.125,-4.183 3.125,-7.688 -11.03039,-9.31536 -24.74739,-16.106929 -43,-20 z"
     id="path4"
     inkscape:connector-curvature="0"
     sodipodi:nodetypes="ccccccccccccccccccccc" />
</svg>
