<svg xmlns="http://www.w3.org/2000/svg" viewBox="0 0 32 32"><path d="M18.886 7.093a10.436 10.436 0 00-3.525-.609C9.64 6.484 5 11.077 5 16.742 5 22.407 9.639 27 15.361 27c5.723 0 10.362-4.593 10.362-10.258a10.14 10.14 0 00-.73-3.789 4.308 4.308 0 001.999-3.632C26.992 6.935 25.037 5 22.627 5a4.372 4.372 0 00-3.74 2.093zm-.59 1.686a4.32 4.32 0 00.02 1.218 9.344 9.344 0 00-1.167-.574l.238-1.055c.315.13.618.267.909.41zm4.93 4.824c.084.174.163.35.238.53l-.931.648a14.47 14.47 0 00-.661-1.204 4.43 4.43 0 001.354.026zM16 32C7.163 32 0 24.837 0 16S7.163 0 16 0s16 7.163 16 16-7.163 16-16 16z"/></svg>
