<svg xmlns="http://www.w3.org/2000/svg" width="32" height="32"><path d="M16 32C7.163 32 0 24.837 0 16S7.163 0 16 0s16 7.163 16 16-7.163 16-16 16zm2.414-18.834v-2.49a.662.662 0 0 0-.02-.164.69.69 0 0 0-.837-.492l-3.448.844a.678.678 0 0 0-.523.656v7.555c0 .056.007.11.02.164a.69.69 0 0 0 .837.492l2.247-.55v-4.538c0-.62.43-1.16 1.044-1.31l.68-.167zm-7.586-.042v-2.449a.662.662 0 0 0-.021-.163.69.69 0 0 0-.836-.492l-3.449.844A.678.678 0 0 0 6 11.52v7.555c0 .056.007.11.02.164a.69.69 0 0 0 .837.492l2.074-.508v-4.58c0-.62.43-1.16 1.045-1.31l.852-.209zm10.867-2.239a.678.678 0 0 0-.523.655v7.556a.69.69 0 0 0 .857.655l3.449-.844a.678.678 0 0 0 .522-.655v-7.556a.662.662 0 0 0-.02-.164.69.69 0 0 0-.837-.491l-3.448.844zm-8.798 2.429-2.754.674a.678.678 0 0 0-.522.655v7.556c0 .055.007.11.02.164a.69.69 0 0 0 .837.491l3.448-.844a.678.678 0 0 0 .522-.655v-.94a1.379 1.379 0 0 1-1.51-1.012 1.324 1.324 0 0 1-.041-.328v-5.761zm7.586.042-2.581.632a.678.678 0 0 0-.523.655v7.556c0 .055.007.11.02.164a.69.69 0 0 0 .837.491l3.449-.844a.678.678 0 0 0 .522-.655v-.951l-.01.002c-.74.181-1.488-.259-1.673-.982a1.324 1.324 0 0 1-.041-.328v-5.74z"/></svg>