<svg xmlns="http://www.w3.org/2000/svg" version="1.0" width="256" height="256" viewBox="0 0 192 192"><path d="M24.076 148.858v-42.677H6.21V80.376H24.076V.977l37.963.033c52.4.046 62.83 1.185 77.662 8.477 17.521 8.615 29.452 22.072 37.176 41.93 5.392 13.862 8.3 37.264 6.929 55.756-2.774 37.395-17.54 62.79-44.105 75.851-14.832 7.293-25.261 8.432-77.662 8.478l-37.963.033zm89.98 12.725c28.402-8.595 39.37-29.187 37.76-70.896-.656-16.967-2.409-26.112-6.67-34.79-6.074-12.369-16.122-20.438-31.09-24.968-7.422-2.246-10.153-2.49-32.664-2.914l-24.564-.463v52.824H107.445v25.805H56.828v58.78l24.564-.464c22.511-.424 25.242-.667 32.665-2.914z"/></svg>
