<svg xmlns="http://www.w3.org/2000/svg" version="1.0" width="256" height="256" viewBox="0 0 192 192"><path style="fill:#000000;stroke-width:0.74943316" d="M32.006 188.553c.57-1.713 4.435-14.831 19.076-64.768l1.027-3.503-3.75 1.114c-2.063.613-6.98 2.108-10.927 3.323-3.947 1.215-7.316 2.068-7.487 1.897-.172-.171.716-3.632 1.973-7.69l2.284-7.377 11.402-3.373 11.401-3.373 10.311-34.848 14.635-49.462c2.965-10.022 4.851-15.144 6-16.3 1.637-1.646 2.067-1.687 18.032-1.687 17.511 0 19.686.425 19.686 3.846 0 .832-5.413 19.9-12.03 42.374-6.615 22.473-11.927 41.126-11.803 41.45.124.323 5.116-.886 11.092-2.687 5.977-1.801 10.91-3.28 10.964-3.285.053-.006-.932 3.497-2.19 7.782l-2.287 7.792-11.101 3.211c-6.106 1.766-11.385 3.403-11.731 3.637-.527.356-15.13 49.145-15.13 50.55 0 .254 18.371.463 40.826.463h40.827l1.246 1.902c1.188 1.813 1.133 2.3-1.158 10.305-5.226 18.26-5.315 18.49-7.59 19.666-1.825.943-10.925 1.102-63.209 1.102H31.318Z"/></svg>
