<svg xmlns="http://www.w3.org/2000/svg" version="1.0" width="256" height="256" viewBox="0 0 192 192"><path d="M1.932 169.39c-3.256-1.314-.735-4.75 14.69-20.024l15.794-15.64h78.706c76.35 0 78.72.05 79.142 1.665.327 1.251-3.449 5.537-15.149 17.199-8.57 8.542-16.704 15.949-18.073 16.459-2.524.94-152.806 1.27-155.11.341zm15.18-71.647C3.28 84.52.784 81.746 1.006 79.839l.263-2.257 78.19-.226 78.188-.226 16.59 16.507c14.101 14.03 16.459 16.75 15.72 18.13-.833 1.556-4.081 1.623-78.672 1.623H33.48ZM.597 56.023c-.327-1.25 3.449-5.537 15.149-17.198 8.571-8.543 16.704-15.95 18.073-16.46 2.684-.999 152.247-1.376 154.817-.39 3.57 1.37 1.317 4.513-14.396 20.073l-15.794 15.64H79.739c-76.35 0-78.719-.049-79.142-1.665z"/></svg>
