<svg xmlns="http://www.w3.org/2000/svg" viewBox="0 0 32 32"><path d="M14.514 25.556A8.482 8.482 0 0017.064 27l-.142-1.374a9.674 9.674 0 008.65-8.249A8.481 8.481 0 0027 14.847l-1.383.143a9.674 9.674 0 00-8.24-8.562A8.481 8.481 0 0014.847 5l.143 1.383a9.674 9.674 0 00-8.562 8.24A8.481 8.481 0 005 17.153l1.383-.143a9.674 9.674 0 008.131 8.546zm.57-4.132a5.503 5.503 0 01-4.554-4.845l1.3-.135a6.977 6.977 0 01-1.266-1.287 5.503 5.503 0 014.857-4.627l.135 1.3a6.977 6.977 0 011.287-1.266 5.503 5.503 0 014.627 4.857l-1.3.135a6.99 6.99 0 011.266 1.287 5.503 5.503 0 01-4.945 4.635l-.136-1.309c-.389.491-.812.91-1.271 1.255zM16 32C7.163 32 0 24.837 0 16S7.163 0 16 0s16 7.163 16 16-7.163 16-16 16z"/></svg>
