<svg xmlns="http://www.w3.org/2000/svg" version="1.0" width="256" height="256" viewBox="0 0 192 192"><path d="M70.996 191.094c-24.166-5.098-40.39-22.41-46.767-49.907-2.953-12.736-8.959-26.866-12.749-29.996-6.851-5.659-.885-14.332 12.597-18.313l7.165-2.115-6.182-18.4c-5.728-17.052-5.982-18.58-3.463-20.86C27.38 46.27 50.164 36.937 63.475 34.35c12.87-2.5 14.076-3.077 15.95-7.613 2.822-6.826 13.903-18.492 21.007-22.117 3.266-1.666 8.743-3.26 12.17-3.542 6.005-.495 6.317-.264 8.555 6.349l2.324 6.862 7.869-.932 7.868-.932 12.473 37.42c6.86 20.58 12.472 38.706 12.472 40.28 0 1.84-1.315 2.908-3.68 2.991-2.443.086-2.856.44-1.227 1.051 10.67 4.01 14.384 12.016 8.179 17.632-4.623 4.184-4.138 5.169 3.122 6.33 9.345 1.494 14.872 8.641 14.872 19.232 0 9.738-2.743 15.547-10.595 22.441-7.418 6.514-15.53 10.651-27.896 14.229-5.371 1.554-12.886 4.963-16.7 7.577s-10.07 5.884-13.904 7.267c-8.412 3.035-35.242 4.348-45.338 2.218zm53.669-18.747c6.456-7.353 9.27-14.044 12.518-29.767 2.658-12.87 4.394-17.334 8.632-22.192 2.93-3.359 1.82-3.493-9.245-1.12-7.343 1.575-8.373 2.364-10.713 8.212-1.424 3.558-2.589 10.77-2.589 16.028 0 15.395-2.77 26.42-8.398 33.423l-5.068 6.307 4.855-2.51c2.67-1.381 7.173-5.152 10.008-8.38zm30.965-11.32c10.675-5.448 16.883-12.364 17.072-19.021.176-6.188-4.9-11.394-11.11-11.394-3.153 0-4.169 1.252-5.637 6.952-2.91 11.297-5.171 18.117-7.593 22.901-2.774 5.482-2.427 5.508 7.268.562zm-95.579-43.63c5.92-2.77 17.342-6.608 25.383-8.53l14.622-3.492-11.264-32.607c-6.195-17.935-11.651-32.996-12.125-33.47-3.12-3.12-49.842 12.982-49.942 17.213-.034 1.41 21.748 65.922 22.257 65.922.17 0 5.15-2.267 11.07-5.036zm66.892-.61c22.215-3.96 30.82-10.6 21.581-16.653-6.73-4.41-14.244-3.234-30.666 4.8-9.34 4.568-19.377 8.097-26.488 9.312-6.298 1.076-12.923 2.57-14.722 3.32-5.55 2.316 36.603 1.663 50.295-.778zm-89.387-6.775c-.55-1.433-1.453-4.414-2.008-6.625-1.151-4.585-5.02-4.621-7.8-.073-1.474 2.414-1.092 3.555 2.052 6.135 4.76 3.906 9.162 4.226 7.756.563zm85.365-14.424c5.154-2.17 14.149-4.88 19.99-6.024 5.84-1.144 11.254-2.618 12.03-3.274 1.898-1.606-19.978-66.92-22.403-66.888-6.755.089-6.54 2.438 2.8 30.458 5.057 15.175 9.196 28.078 9.196 28.672 0 .595-2.775 1.551-6.166 2.124-8.336 1.408-17.97 7.112-22.902 13.56-2.237 2.923-3.583 5.315-2.99 5.315.591 0 5.292-1.774 10.445-3.943zm4.908-18.319c4.24-1.57 7.968-3.046 8.287-3.28.318-.234-4.344-15.194-10.36-33.244-12.394-37.185-12-36.755-25.743-28.038-7.663 4.859-16.004 16.51-16.004 22.353 0 1.72 4.476 16.555 9.946 32.969l9.947 29.842 8.11-8.873c5.427-5.939 10.658-9.818 15.817-11.729z"/></svg>
