<svg xmlns="http://www.w3.org/2000/svg" version="1.0" width="256" height="256" viewBox="0 0 192 192"><path d="M8.015 190.06c-8.024-3.878-9.438-19.794-2.35-26.453 5.478-5.146 16.6-4.802 22.084.683 3.348 3.348 4.076 5.365 4.076 11.296 0 5.985-.738 7.991-4.317 11.727-3.483 3.635-5.473 4.487-10.29 4.407-3.285-.055-7.426-.802-9.203-1.66zm12.301-8.2c3.12-1.985 3.837-8.528 1.22-11.144-2.563-2.564-4.917-2.977-8.7-1.525-2.843 1.091-3.247 11.721-.488 12.835 2.782 1.122 6.05 1.054 7.968-.167zm21.8-18.45c-7.69-3.01-10.937-5.374-13.09-9.538-5.468-10.575-3.911-23.923 3.676-31.51l4.312-4.313-2.962-9.946c-3.39-11.384-4.059-35.828-1.337-48.879C39.6 26.201 66.89 3.866 103.492 1.293c44.848-3.153 79.699 21.685 86.43 61.598 2.416 14.317 1.033 37.512-2.903 48.695-8.54 24.266-27.72 41.115-53.793 47.255-12.8 3.014-39.012 2.163-49.689-1.613l-7.088-2.507-4.047 3.878c-6.767 6.483-20.456 8.658-30.287 4.81zM64.23 150.24c6.263-5.387 5.281-18.259-1.632-21.409-3.992-1.818-15.053-2.274-18.947-.78-2.853 1.095-6.68 8.071-6.68 12.175 0 4.594 2.966 9.983 6.414 11.653 5.925 2.869 16.579 2.031 20.845-1.639zm60.626-2.574c14.682-2.382 24.496-6.776 33.483-14.99 14.124-12.908 20.556-29.743 20.37-53.313-.104-13.023-.675-16.124-5.016-27.195-9.693-24.72-27.702-36.296-58.813-37.8-16.987-.823-28.702 1.353-41.084 7.627-7.911 4.009-19.09 15.46-23.466 24.038-7.831 15.351-9.812 42.027-4.395 59.19l3.084 9.774 7.81.806c13.052 1.347 19.854 7.261 22.886 19.897 2.146 8.948 3.308 9.714 17.92 11.81 12.837 1.843 16.692 1.865 27.221.156z"/></svg>
