<svg xmlns="http://www.w3.org/2000/svg" version="1.0" width="256" height="256" viewBox="0 0 192 192"><path d="M90.18 127.224c-.23-.23-2.79-.658-5.687-.95-17.144-1.726-32.946-9.44-44.168-21.562-1.87-2.019-3.603-3.433-3.852-3.143-.25.29-1.71 2.323-3.245 4.517-6.082 8.693-18.566 19.065-22.946 19.065-4.614 0-7.816-3.503-7.226-7.905.407-3.034.693-3.332 7.542-7.892 9.616-6.402 15.44-13.596 18.003-22.238.389-1.312.834-6.157.99-10.768.333-9.845.961-11.652 4.673-13.45 2.108-1.02 2.792-1.095 4.688-.513 4.18 1.283 4.917 2.718 5.143 10.01.11 3.538-.088 7.99-.44 9.891l-.639 3.458 3.225 4.284c12.677 16.843 27.227 23.746 50.05 23.746 15.234 0 26.815-3.14 36.153-9.805 4.33-3.09 11.114-10.104 14.346-14.834l2.293-3.356-.742-6.812c-.408-3.746-.548-8.09-.311-9.652 1.092-7.2 8.116-9.596 12.907-4.402 1.386 1.503 1.495 2.137 1.892 11.006.468 10.446.886 12.366 3.977 18.283 2.744 5.253 8.053 10.55 15.634 15.597 5.984 3.983 7.266 5.566 7.266 8.967 0 1.646-2.347 4.974-4.059 5.753-3.665 1.67-7.205.254-14.73-5.895-4.662-3.81-8.914-8.45-12.673-13.833a604.141 604.141 0 0 0-2.486-3.544c-.103-.137-1.673 1.393-3.491 3.402-10.718 11.844-25.793 19.288-44.05 21.752-6.425.867-17.488 1.372-18.036.823z"/></svg>
