<svg xmlns="http://www.w3.org/2000/svg" version="1.0" width="256" height="256" viewBox="0 0 192 192"><path d="M30.757 139.476c0-34.475-.552-51.57-1.666-51.57-.917 0-3.272 1-5.233 2.223-1.962 1.223-5.607 2.698-8.1 3.277-4.296 1-4.508.79-4.026-3.968.45-4.428 1.461-5.356 8.56-7.846 8.251-2.895 28.007-14.282 41.25-23.776 4.09-2.933 8.227-5.333 9.192-5.333 1.085 0 1.934 5.001 2.223 13.089l.468 13.088 6.44-5.961c9.984-9.241 28.478-17.565 40.765-18.347 20.708-1.318 39.18 7.346 45.547 21.364 2.706 5.956 2.98 11.518 3.013 60.943l.035 54.388-20.529-.45-20.528-.45-.805-56.817c-.88-62.129-.487-59.878-10.466-59.855-13.133.029-27.868 13.151-37.563 33.452l-5.91 12.375-.804 35.422-.805 35.422-20.529.45-20.529.451zm16.101-110.51c-20.743-18.502-20.297-18.013-18.27-20.04 1.549-1.549 12.263.487 30.596 5.813 4.872 1.415 13.846-3.262 17.22-8.974C77.965 3.122 79.976.96 80.874.96c.897 0 5.022 2.335 9.167 5.19 9.769 6.73 16.607 6.691 26.549-.149C120.62 3.23 124.442.96 125.083.96s3.576 2.817 6.523 6.259c6.988 8.164 11.192 9.045 24.404 5.116 12.91-3.839 21.493-4.764 22.335-2.408.338.946-7.447 8.755-17.3 17.353l-17.913 15.634-14.727-1.253c-18.042-1.535-24.152-1.555-47.735-.152L62.154 42.61z"/></svg>
