<svg xmlns="http://www.w3.org/2000/svg" version="1.0" width="256" height="256" viewBox="0 0 192 192"><path d="M120.553 140.736c-7.043-1.164-12.864-3.81-12.864-5.847 0-1.76 5.462-7.559 7.12-7.559.53 0 4.508.493 8.839 1.096 10.156 1.412 24.632-.223 32.077-3.624 6.064-2.77 14.14-9.787 16.486-14.324l1.585-3.066-3.98 3.135c-5.427 4.275-13.568 8.26-20.645 10.102-7.132 1.858-51.745 2.182-59.89.435-7.225-1.55-7.627-2.434-4.41-9.706 2.415-5.457 2.734-7.491 2.74-17.496.008-10.261-.246-11.802-2.71-16.466-1.496-2.83-3.695-6.028-4.889-7.107-4.792-4.33-2.7-5.812 12.27-8.685 5.926-1.137 16.796-4.224 24.154-6.859 15.908-5.695 24.214-6.705 34.757-4.224 8.799 2.071 14.133 4.79 19.984 10.183 12.25 11.29 19.39 41.612 12.765 54.21-1.326 2.522-4.9 7.196-7.943 10.385-3.042 3.19-5.531 6.147-5.531 6.57 0 1.273-4.51 4.633-6.268 4.67-.9.019-5.068.91-9.262 1.98-8.881 2.266-26.976 3.422-34.385 2.197zm-84.037-9.634c-6.965-2.599-13.466-7.073-21.684-14.925-9.334-8.918-12.776-13.3-11.471-14.606.495-.495 5.672-1.27 11.504-1.721l10.603-.822 2.483-6.116c1.365-3.365 4.234-8.604 6.375-11.643 2.142-3.04 4.277-6.076 4.746-6.748.534-.767-1.122-4.18-4.455-9.174-6.56-9.833-6.474-11.654.55-11.462 9.11.25 30.723 9.06 38.817 15.825 17.628 14.73 11.295 48.855-11.076 59.685-6.265 3.032-20.39 3.946-26.392 1.707zm18.103-9.482c3.574-2.342 5.206-6.861 3.572-9.891-1.291-2.395-1.305-2.388-2.232 1.193-1.134 4.379-3.512 7.204-6.063 7.204-1.045 0-1.9.695-1.9 1.544 0 2.01 3.52 1.983 6.623-.05zm14.286-25.333c3.198-1.703 4.75-4.04 4.788-7.209.045-3.724-.937-6.002-2.585-6.002-.988 0-1.208.996-.788 3.581.497 3.061.119 4.013-2.602 6.554-1.75 1.636-2.89 3.266-2.532 3.623.874.875 1.118.839 3.72-.547z"/></svg>
