<svg xmlns="http://www.w3.org/2000/svg" version="1.0" width="256" height="256" viewBox="0 0 192 192"><path d="M1.328 189.92c0-.361.427-1.868.95-3.35 2.151-6.097 3.75-16.838 3.713-24.953-.038-8.335-1.99-19.308-4.714-26.489-.659-1.737-1.132-3.211-1.053-3.276.08-.066 15.102-.457 33.384-.87 90.216-2.037 123.57-1.983 130.523.212 8.21 2.592 12.393 12.023 12.505 28.186.095 13.754-3.792 23.903-10.026 26.18-6.118 2.236-2.86 2.13-140.193 4.57-17.007.301-25.09.234-25.09-.21zm97.11-3.721c52.821-.913 64.058-1.404 67.44-2.945 5.535-2.521 9.196-15.692 7.973-28.683-.84-8.923-2.57-14.079-5.883-17.524-4.458-4.635-3.112-4.516-50.624-4.497-33.643.013-112.658 1.297-113.276 1.84-.075.067.3 1.545.835 3.287 4.203 13.692 4.851 27.42 1.953 41.34-.931 4.473-1.693 8.323-1.693 8.557 0 .234 8.701.233 19.336-.003 10.635-.235 43.907-.853 73.939-1.372zm-88.8-8.61c48.586 1.468 105.189-5.61 146.964-2.744.146.108.146.296 0 .419-51.075-.141-103.153 3.728-146.965 2.325zm4.56-8.601c54.194 1.166 99.928-1.578 149.325-1.995-49.136-2.547-88.392 3.566-149.324 1.995zm1.831-7.804c48.55 2.622 102-2.71 153.41-2.789-55.59.982-106.743 7.044-153.409 2.789zm-1.918-8.036c51.196.795 105.59-4.647 147.605-2.884-50.308-2.861-100.997 5.712-147.605 2.884zm-4.976-7.85c49.801 2.241 93.99-3.85 146.828-2.596-53.529-2.872-98.413 5.966-146.828 2.595zm22.235-20.473c-7.192-1.276-8.293-1.693-10.19-3.854-4.945-5.632-7.345-14.004-7.228-25.218.098-9.421 1.313-15.526 4.039-20.298 3.663-6.415 7.327-7.569 27.762-8.743 8.437-.485 24.019-1.08 34.626-1.323 19.197-.44 19.287-.448 19.64-1.855.556-2.213 2.997-2.994 6.933-2.217 8.293 1.635 21.248.474 26.983-2.419 3.82-1.927 8.504-5.896 10.482-8.883 2.79-4.21 2.516-4.648-.981-1.57-3.571 3.144-9.105 5.853-15.226 7.454-3.793.993-7.1 1.174-21.733 1.19-12.319.012-18.356-.231-21.094-.853-6.353-1.442-6.312-1.384-4.145-5.966 5.2-10.994 4.02-23.468-2.949-31.182-2.313-2.56-2.382-2.756-1.266-3.572 1.252-.915 4.706-1.699 12.495-2.835 2.924-.427 8.124-2.028 13.423-4.133 12.404-4.928 17.755-5.704 26.548-3.85 9.234 1.948 16.784 7.315 20.303 14.435.94 1.901 2.652 6.62 3.805 10.488 1.668 5.591 2.094 8.144 2.08 12.464-.024 7.236-1.8 11.13-7.939 17.404-2.478 2.534-4.506 4.728-4.506 4.876 0 .148 10.355.058 23.011-.2 14.779-.302 23.012-.248 23.012.15 0 .342-.428 1.833-.95 3.314-.523 1.482-1.587 5.904-2.363 9.829-2.599 13.124-1.427 27.875 3.306 41.632.669 1.945 1.16 3.542 1.09 3.55-4.344.5-156.66 2.595-158.968 2.185zm51.02-2.839c18.17-.352 48.973-.924 68.451-1.27 19.479-.348 35.504-.72 35.613-.83.108-.108-.239-1.621-.771-3.363-4.51-14.749-4.99-28.677-1.504-43.646.682-2.929 1.24-5.55 1.24-5.826 0-.276-10.714-.375-23.81-.221-18.813.222-24.33.477-26.281 1.216-9.331 3.531-28.994 3.802-34.174.47-1.272-.818-4.097-.896-19.495-.54-23.039.533-49.872 2.01-53.165 2.926-8.354 2.324-11.103 7.796-11.746 23.379-.22 5.328-.198 9.563.049 9.41 48.804 2.942 104.1-4.522 146.889-2.957-49.541 2.119-94.91 2.795-145.022 3.351-1.414.003-1.491.18-1.112 2.554.705 4.406 2.915 9.39 5.375 12.12 2.086 2.314 2.832 2.696 6.206 3.17 5.474.771 15.797.782 53.258.057zm-47.647-9.338c.416-.416 124.88-2.82 138.851-2.682-42.647-2.176-104.47 4.332-138.851 2.682zm-13.6-16.36c55.265.903 109.317-2.804 153.409-2.597-50.296.677-102.359 4.683-153.409 2.596zm7.99-8.193c51.29 1.237 95.673-1.178 147.308-2.336-30.754.774-161.18 2.796-147.308 2.336zM34 80.152c44.156-1.31 82.17-1.556 129.687-2.637 9.667-.227 17.394-.22 17.17.013-49.492-.895-93.043.643-146.857 2.624Zm12.19-16.874c-4.74-1.687-11.531-6.492-17.418-12.324-5.507-5.455-7.504-8.46-6.188-9.312.438-.283 4.2-.66 8.358-.835l7.562-.32 1.165-3.315c1.655-4.709 4.361-9.467 7.248-12.747 2.387-2.711 2.445-2.882 1.442-4.248-3.935-5.36-7.42-11.084-7.26-11.929.894-4.724 26.555 4.283 34.318 12.045 11.108 11.108 5.899 34.218-9.412 41.755-3.668 1.806-4.91 2.077-10.294 2.247-4.753.15-6.884-.078-9.521-1.017zm14.38-7.352c2.506-2.296 3.116-5.161 1.51-7.095-1.134-1.367-2.112-1.248-1.652.201.828 2.611-1.854 6.477-4.494 6.477-1.628 0-2.178 1.558-.753 2.133 1.83.738 3.181.308 5.39-1.716zm11.235-18.654c2.134-2.134 2.8-5.655 1.458-7.704-.557-.85-1.438-1.545-1.957-1.545-1.13 0-1.146.135-.238 2.129.919 2.016-.725 5.693-3.01 6.734-.882.402-1.426 1.017-1.21 1.367.723 1.169 3.322.654 4.957-.981z"/></svg>