<svg xmlns="http://www.w3.org/2000/svg" version="1.0" width="256" height="256" viewBox="0 0 192 192"><path d="M28.735 188.939c-10.787-3.764-18.083-10.75-23.502-22.504l-2.74-5.944V33.027l3.956-8.038c4.085-8.297 10.419-14.83 17.752-18.31 8.294-3.936 16.86-4.38 77.164-4.01 58.665.362 59.901.42 65.467 3.01 7.638 3.555 16.085 11.56 19.978 18.936l3.198 6.058v132.222l-3.186 6.01c-4.309 8.129-11.094 14.716-19.052 18.496l-6.61 3.14-63.107.283c-58.151.26-63.594.112-69.318-1.885zm89.752-38.064v-31.853h31.553l31.554.002-.352-22.239-.352-22.239h-7.762c-7.36 0-7.762.148-7.762 2.843 0 6.001-8.218 12.698-20.09 16.37-5.99 1.854-6.82 2.528-8.256 6.704-3.363 9.783-9.641 11.273-34.975 8.302-20.808-2.44-24.618-1.851-33.282 5.15l-5.575 4.505 5.112.601 5.112.601.32 31.553.32 31.553h44.435zM30.14 142.51c8.594-7.158 17.79-15.328 20.434-18.155 2.645-2.827 8.475-8.393 12.957-12.37 11.222-9.958 15.26-10.755 40.485-7.993 17.05 1.867 19.176 1.884 23.231.19 3.767-1.574 4.464-2.437 4.464-5.532 0-2.017-.541-3.668-1.202-3.668-.661 0-1.202-.54-1.202-1.202 0-.66.783-1.202 1.74-1.202 4.802 0 21.55-6.48 25.333-9.802 5.653-4.964 5.819-10.059.4-12.337l-3.778-1.589 8.556-4.496c18.916-9.94 24.215-23.769 10.184-26.575-8.534-1.707-33.903 7.667-53.855 19.899-15.865 9.727-27.708 20.345-67.914 60.89-22.147 22.334-39.186 39.786-37.863 38.782 1.322-1.004 9.435-7.682 18.03-14.84zm35.998-47.307c23.458-23.182 31.159-29.838 45.439-39.269l6.911-4.565V10.786l-21.936.327-21.937.328-.601 31.252-.601 31.253-31.253.6-31.252.602-.328 21.937-.328 21.937h31.784Z"/></svg>
