<svg xmlns="http://www.w3.org/2000/svg" version="1.0" width="256" height="256" viewBox="0 0 192 192"><path d="m42.438 176.605-5.302-8.976 14.976-4.974c8.236-2.736 20.775-9.939 27.863-16.006 13.406-11.474 30.98-38.657 31.03-47.996.038-6.864 1.003-6.778 15.1 1.335l11.677 6.72-11.067 19.365c-14.609 25.563-32.041 43.423-51.001 52.252-20.445 9.52-26.83 9.19-33.276-1.72zm141.464-61.028c-.74-1.27-1.383-12.446-1.428-24.837-.051-12.39-.638-23.085-1.317-23.764-.68-.68-6.642.258-13.25 2.083-9.947 2.746-25.431 1.306-89.896-8.357C30.346 53.557.544 47.79 1.194 45.839c.585-1.754 6.662-2.785 13.505-2.29 10.503.757 13.575-.47 19.704-7.87l7.262-8.77 26.222 3.658C143.1 41.057 165.66 44.945 173.544 48.78c7.794 3.791 8.56 3.69 7.655-1.013-1.689-8.77-13.725-12.035-82.474-22.373-36.387-5.472-66.758-10.462-67.492-11.091-.733-.628-.038-2.382 1.539-3.895 1.689-1.62 9.843-1.615 19.796.01 9.308 1.521 40.464 6.296 69.235 10.612 70.237 10.536 67.456 8.185 68.557 57.947.525 23.7-.306 38.907-2.126 38.907-1.643 0-3.593-1.038-4.332-2.307z"/></svg>
