<svg xmlns="http://www.w3.org/2000/svg" version="1.0" width="256" height="256" viewBox="0 0 192 192"><path d="M91.482 182.478c-2.287-2.387-7.72-6.09-12.072-8.228-6.801-3.34-9.624-3.872-20.077-3.789-8.925.072-14.234.92-19.947 3.186-4.282 1.698-7.878 2.942-7.993 2.764C30.21 174.567 1.78 70.756 2.313 70.224c.395-.396 7.188-1.383 15.095-2.194 33.95-3.484 61.524 5.1 73.607 22.913 2.643 3.898 5.128 7.086 5.522 7.085.393-.001 2.325-2.64 4.293-5.864 10.523-17.247 34.643-25.316 70.979-23.747 9.855.425 18.295 1.15 18.754 1.608.459.46-6.182 24.669-14.758 53.8-12.566 42.682-16.01 52.805-17.74 52.148-20.9-7.942-42.589-5.486-56.066 6.347-2.819 2.475-5.402 4.5-5.741 4.5-.34 0-2.488-1.954-4.776-4.342zm-3.41-104.996c-4.646-4.944-17.951-11.657-28.739-14.499-5.965-1.572-15.344-2.513-26.15-2.625l-16.85-.174-1.315-5.008C11.727 42.641 11.727 42.733 15 41.877c1.703-.445 8.673-.232 15.488.474 26.032 2.696 45.359 13.115 57.758 31.137 4.813 6.996 4.718 9.2-.173 3.995zm.9-13.516c-4.695-7.095-15.506-15.856-25.691-20.82-7.382-3.598-27.644-9.434-32.755-9.434-1.938 0-3.17-2.078-4.877-8.227-1.256-4.525-2.552-9.06-2.88-10.077-.665-2.064 3.828-1.582 18.516 1.989 20.134 4.894 38.062 19.355 47.386 38.221 6 12.141 6.184 17.238.301 8.348z"/></svg>
