<svg xmlns="http://www.w3.org/2000/svg" version="1.0" width="256" height="256" viewBox="0 0 192 192"><path d="M.77 94.52V.08h188.88v188.88H.77Zm155.564 63.849c2.742-3.241 2.34-7.685-.929-10.256-5.517-4.34-11.926-1.321-11.926 5.619 0 7.104 8.249 10.08 12.855 4.637zm-45.651-8.799c2.124-.887 4.71-2.38 5.746-3.318 1.773-1.605 1.78-1.82.103-3.672-2.845-3.144-3.058-13.146-.372-17.428 2.198-3.502 9.21-7.5 13.153-7.5 5.776 0 13.525 5.984 15.56 12.015.507 1.504 7.556-3.595 9.486-6.863 3.857-6.529 3.44-16-.99-22.53-2.368-3.49-2.482-4.083-1.08-5.633 3.145-3.475 5.835-11.15 5.858-16.713.059-14.208-12.334-26.43-26.8-26.43-2.796 0-3.588-.533-4.443-2.985-1.488-4.269-7.216-10.44-11.916-12.837-11.37-5.8-27.284-1.976-33.477 8.044-1.906 3.084-2.457 3.37-4.79 2.483-8.356-3.177-21.475.739-27.72 8.275-4.144 5-6.684 13.667-5.857 19.986.626 4.783.583 4.87-3.584 7.25-5.269 3.007-10.073 9.517-10.978 14.874-1.377 8.154 5.835 18.205 15.768 21.976 4.982 1.891 5.144 2.091 6.485 7.993 1.859 8.184 4.759 12.515 10.118 15.109 5.08 2.459 10.964 2.718 16.536.726 3.42-1.222 3.912-1.161 5.023.619.678 1.085 3.432 3.368 6.121 5.073 4.09 2.594 5.976 3.1 11.538 3.1 3.657 0 8.387-.726 10.512-1.614zm-40.657-41.504c-1.023-.724-1.167-1.282-.411-1.596.64-.266 1.985-1.084 2.99-1.82 1.726-1.261 1.705-1.541-.371-4.946-2.596-4.26-2.805-8.332-.64-12.518 5.083-9.83 19.597-7.892 22.532 3.009 1.845 6.853-1.607 13.919-8.57 17.542-3.319 1.726-13.256 1.937-15.53.329zM46.502 96.287c-3.74-2.734.452-8.84 4.373-6.371 2.503 1.576 2.81 4.006.765 6.05-2.06 2.061-2.703 2.101-5.138.321zm88.069 49.19c12.76-5.332 8.635-24.723-5.258-24.723-13.742 0-17.982 18.36-5.644 24.439 4.382 2.158 6.295 2.208 10.902.283z"/></svg>
