<svg xmlns="http://www.w3.org/2000/svg" xml:space="preserve" width="256" height="256"><path d="M241.497 17.973c-7.58-5.053-15.159-7.58-23.46-8.301-16.602-1.805-34.648 2.165-48.002 12.27-13.354 10.106-20.211 25.987-19.85 41.506.36 15.88 7.579 29.595 12.27 43.31 5.054 13.715 8.302 27.43 8.302 41.506s-3.248 28.151-10.106 40.784c-9.023 17.324-20.933 29.595-38.618 38.618-2.526 1.083-5.775 2.526-9.745 3.97-8.3 2.887-20.572 2.887-27.79 2.887-15.88 0-28.874-5.414-38.619-15.88-9.744-10.467-15.158-25.986-15.519-46.198h38.257c19.49 0 34.648-.36 45.476-1.082 6.135-.361 12.632-1.444 19.49-3.249l.36-9.023c0-19.128-5.413-34.287-15.88-44.753-10.467-10.467-24.903-15.88-42.95-15.88-11.91 0-24.18 3.608-37.174 10.466-12.632 7.218-21.294 14.797-25.986 23.099-7.218 12.632-10.827 27.43-10.827 44.753 0 22.738 6.496 40.423 19.128 53.777s29.596 19.85 50.168 19.85c9.384 0 24.542-1.443 33.565-3.609 8.301-2.165 15.159-4.33 24.182-9.383 18.406-9.023 31.039-22.738 41.144-40.784 7.58-13.354 11.189-27.069 11.55-42.228.36-15.158-4.692-35.73-10.106-49.806s-8.662-30.678-7.218-41.145c1.443-10.105 3.97-24.542 15.88-32.482 8.301-5.414 13.715-6.858 25.264-6.858 10.106.361 16.963 3.248 23.099 10.106 14.798 16.602 27.79 11.55 27.069 0-.361-6.136-5.775-11.189-13.354-16.241zM41.548 121.556c6.858-8.301 15.88-12.632 27.43-12.632 7.219 0 13.715 1.804 19.49 5.053 5.774 3.248 9.745 7.579 11.91 12.632 3.61 7.94 5.414 16.602 5.414 25.625v8.662c-7.219.722-14.437 1.083-22.377 1.083-19.129 0-36.814-.361-52.694-1.083.722-17.685 3.97-30.678 10.827-39.34zM52.015 81.855c.361 0 .722 0 .722-.36v-.723L39.744 58.395c-.361-.721-1.083-.721-1.444 0L25.307 80.772v.722s.361.361.722.361z"/><path d="M104.71 81.855c.36 0 .72 0 .72-.36v-.723L92.439 58.395c0-.36-.361-.36-.722-.36-.36 0-.722 0-.722.36L78.001 80.772v.722s.361.361.722.361z"/></svg>
