<svg xmlns="http://www.w3.org/2000/svg" version="1.0" width="256" height="256" viewBox="0 0 192 192"><path d="M102.447 187.828c-2.126-.858-5.376-4.378-7.22-7.823-2.992-5.592.88-10.507 36.013-45.718 21.65-21.699 41.523-39.453 44.16-39.453 6.194 0 12.154 6.014 12.154 12.261 0 4.23-76.51 83.192-79.97 82.533-.697-.133-3.01-.943-5.137-1.8zm-27.709-26.162c-2.023-2.024-3.678-5.834-3.678-8.468 0-6.62 92.298-98.217 98.969-98.217 2.967 0 7 3.522 8.96 7.827 3.418 7.501 1.596 9.802-43.714 55.182-26.004 26.045-49.435 47.354-52.069 47.354-2.634 0-6.444-1.655-8.468-3.678zm-22.002-23.842c-3.41-3.411-6.201-7.25-6.201-8.532S72.06 101.464 103.258 70.3c59.491-59.426 60.696-60.198 70.274-45.015 2.72 4.314-5.454 13.889-50.379 59.006-29.494 29.621-56.009 55.179-58.92 56.795-3.933 2.183-6.892 1.343-11.497-3.262zM30.44 116.048c-2.95-1.718-5.365-5.446-5.365-8.285 0-6.525 61.072-68.11 67.543-68.11 6.125 0 12.164 5.985 12.164 12.057 0 5.219-60.913 67.704-65.857 67.556-1.716-.05-5.534-1.499-8.485-3.218zm-19.962-20.19c-2.127-.857-5.372-4.37-7.21-7.806-2.947-5.504-.49-9.119 20.655-30.389 13.2-13.278 26.171-24.142 28.824-24.142 6.248 0 12.181 6.013 12.181 12.345 0 4.201-46.139 52.512-49.464 51.792-.616-.133-2.86-.943-4.986-1.8zm96.312-58.746c-6.788-7.5-6.47-9.462 3.164-19.517 8.835-9.222 15.908-10.818 21.806-4.92 5.897 5.898 4.302 12.97-4.92 21.806-10.15 9.725-13.261 10.133-20.05 2.631zm-39.854-6.131c-6.787-7.5-6.47-9.463 3.164-19.518C78.935 2.242 86.008.646 91.906 6.543c5.898 5.899 4.302 12.971-4.92 21.806-10.15 9.725-13.26 10.134-20.05 2.632Z"/></svg>
